G04 #@! TF.FileFunction,Soldermask,Top*
%FSLAX46Y46*%
G04 Gerber Fmt 4.6, Leading zero omitted, Abs format (unit mm)*
G04 Created by KiCad (PCBNEW 4.0.7-e2-6376~58~ubuntu16.04.1) date Fri Jun  1 11:33:50 2018*
%MOMM*%
%LPD*%
G01*
G04 APERTURE LIST*
%ADD10C,0.100000*%
%ADD11R,1.900000X1.700000*%
%ADD12R,1.700000X1.900000*%
%ADD13R,2.100000X2.100000*%
%ADD14O,2.100000X2.100000*%
%ADD15C,3.575000*%
G04 APERTURE END LIST*
D10*
D11*
X55419000Y-50800000D03*
X58119000Y-50800000D03*
D10*
G36*
X54402442Y-49701622D02*
X53552442Y-48229378D01*
X55197890Y-47279378D01*
X56047890Y-48751622D01*
X54402442Y-49701622D01*
X54402442Y-49701622D01*
G37*
G36*
X56740710Y-48351622D02*
X55890710Y-46879378D01*
X57536158Y-45929378D01*
X58386158Y-47401622D01*
X56740710Y-48351622D01*
X56740710Y-48351622D01*
G37*
G36*
X53370622Y-48047558D02*
X51898378Y-47197558D01*
X52848378Y-45552110D01*
X54320622Y-46402110D01*
X53370622Y-48047558D01*
X53370622Y-48047558D01*
G37*
G36*
X54720622Y-45709290D02*
X53248378Y-44859290D01*
X54198378Y-43213842D01*
X55670622Y-44063842D01*
X54720622Y-45709290D01*
X54720622Y-45709290D01*
G37*
D12*
X50800000Y-46181000D03*
X50800000Y-43481000D03*
D10*
G36*
X49701622Y-47197558D02*
X48229378Y-48047558D01*
X47279378Y-46402110D01*
X48751622Y-45552110D01*
X49701622Y-47197558D01*
X49701622Y-47197558D01*
G37*
G36*
X48351622Y-44859290D02*
X46879378Y-45709290D01*
X45929378Y-44063842D01*
X47401622Y-43213842D01*
X48351622Y-44859290D01*
X48351622Y-44859290D01*
G37*
G36*
X48047558Y-48229378D02*
X47197558Y-49701622D01*
X45552110Y-48751622D01*
X46402110Y-47279378D01*
X48047558Y-48229378D01*
X48047558Y-48229378D01*
G37*
G36*
X45709290Y-46879378D02*
X44859290Y-48351622D01*
X43213842Y-47401622D01*
X44063842Y-45929378D01*
X45709290Y-46879378D01*
X45709290Y-46879378D01*
G37*
D11*
X46181000Y-50800000D03*
X43481000Y-50800000D03*
D10*
G36*
X47197558Y-51898378D02*
X48047558Y-53370622D01*
X46402110Y-54320622D01*
X45552110Y-52848378D01*
X47197558Y-51898378D01*
X47197558Y-51898378D01*
G37*
G36*
X44859290Y-53248378D02*
X45709290Y-54720622D01*
X44063842Y-55670622D01*
X43213842Y-54198378D01*
X44859290Y-53248378D01*
X44859290Y-53248378D01*
G37*
G36*
X48229378Y-53552442D02*
X49701622Y-54402442D01*
X48751622Y-56047890D01*
X47279378Y-55197890D01*
X48229378Y-53552442D01*
X48229378Y-53552442D01*
G37*
G36*
X46879378Y-55890710D02*
X48351622Y-56740710D01*
X47401622Y-58386158D01*
X45929378Y-57536158D01*
X46879378Y-55890710D01*
X46879378Y-55890710D01*
G37*
D12*
X50800000Y-55419000D03*
X50800000Y-58119000D03*
D10*
G36*
X51898378Y-54402442D02*
X53370622Y-53552442D01*
X54320622Y-55197890D01*
X52848378Y-56047890D01*
X51898378Y-54402442D01*
X51898378Y-54402442D01*
G37*
G36*
X53248378Y-56740710D02*
X54720622Y-55890710D01*
X55670622Y-57536158D01*
X54198378Y-58386158D01*
X53248378Y-56740710D01*
X53248378Y-56740710D01*
G37*
G36*
X53552442Y-53370622D02*
X54402442Y-51898378D01*
X56047890Y-52848378D01*
X55197890Y-54320622D01*
X53552442Y-53370622D01*
X53552442Y-53370622D01*
G37*
G36*
X55890710Y-54720622D02*
X56740710Y-53248378D01*
X58386158Y-54198378D01*
X57536158Y-55670622D01*
X55890710Y-54720622D01*
X55890710Y-54720622D01*
G37*
D13*
X63500000Y-52070000D03*
D14*
X63500000Y-49530000D03*
D15*
X50800000Y-38100000D03*
X50800000Y-63500000D03*
M02*
