G04 #@! TF.FileFunction,Copper,L1,Top,Signal*
%FSLAX46Y46*%
G04 Gerber Fmt 4.6, Leading zero omitted, Abs format (unit mm)*
G04 Created by KiCad (PCBNEW 4.0.7-e2-6376~58~ubuntu16.04.1) date Fri Jun  1 11:33:50 2018*
%MOMM*%
%LPD*%
G01*
G04 APERTURE LIST*
%ADD10C,0.100000*%
%ADD11R,1.500000X1.300000*%
%ADD12R,1.300000X1.500000*%
%ADD13R,1.700000X1.700000*%
%ADD14O,1.700000X1.700000*%
%ADD15C,3.175000*%
%ADD16C,0.381000*%
G04 APERTURE END LIST*
D10*
D11*
X55419000Y-50800000D03*
X58119000Y-50800000D03*
D10*
G36*
X54475647Y-49428417D02*
X53825647Y-48302583D01*
X55124685Y-47552583D01*
X55774685Y-48678417D01*
X54475647Y-49428417D01*
X54475647Y-49428417D01*
G37*
G36*
X56813915Y-48078417D02*
X56163915Y-46952583D01*
X57462953Y-46202583D01*
X58112953Y-47328417D01*
X56813915Y-48078417D01*
X56813915Y-48078417D01*
G37*
G36*
X53297417Y-47774353D02*
X52171583Y-47124353D01*
X52921583Y-45825315D01*
X54047417Y-46475315D01*
X53297417Y-47774353D01*
X53297417Y-47774353D01*
G37*
G36*
X54647417Y-45436085D02*
X53521583Y-44786085D01*
X54271583Y-43487047D01*
X55397417Y-44137047D01*
X54647417Y-45436085D01*
X54647417Y-45436085D01*
G37*
D12*
X50800000Y-46181000D03*
X50800000Y-43481000D03*
D10*
G36*
X49428417Y-47124353D02*
X48302583Y-47774353D01*
X47552583Y-46475315D01*
X48678417Y-45825315D01*
X49428417Y-47124353D01*
X49428417Y-47124353D01*
G37*
G36*
X48078417Y-44786085D02*
X46952583Y-45436085D01*
X46202583Y-44137047D01*
X47328417Y-43487047D01*
X48078417Y-44786085D01*
X48078417Y-44786085D01*
G37*
G36*
X47774353Y-48302583D02*
X47124353Y-49428417D01*
X45825315Y-48678417D01*
X46475315Y-47552583D01*
X47774353Y-48302583D01*
X47774353Y-48302583D01*
G37*
G36*
X45436085Y-46952583D02*
X44786085Y-48078417D01*
X43487047Y-47328417D01*
X44137047Y-46202583D01*
X45436085Y-46952583D01*
X45436085Y-46952583D01*
G37*
D11*
X46181000Y-50800000D03*
X43481000Y-50800000D03*
D10*
G36*
X47124353Y-52171583D02*
X47774353Y-53297417D01*
X46475315Y-54047417D01*
X45825315Y-52921583D01*
X47124353Y-52171583D01*
X47124353Y-52171583D01*
G37*
G36*
X44786085Y-53521583D02*
X45436085Y-54647417D01*
X44137047Y-55397417D01*
X43487047Y-54271583D01*
X44786085Y-53521583D01*
X44786085Y-53521583D01*
G37*
G36*
X48302583Y-53825647D02*
X49428417Y-54475647D01*
X48678417Y-55774685D01*
X47552583Y-55124685D01*
X48302583Y-53825647D01*
X48302583Y-53825647D01*
G37*
G36*
X46952583Y-56163915D02*
X48078417Y-56813915D01*
X47328417Y-58112953D01*
X46202583Y-57462953D01*
X46952583Y-56163915D01*
X46952583Y-56163915D01*
G37*
D12*
X50800000Y-55419000D03*
X50800000Y-58119000D03*
D10*
G36*
X52171583Y-54475647D02*
X53297417Y-53825647D01*
X54047417Y-55124685D01*
X52921583Y-55774685D01*
X52171583Y-54475647D01*
X52171583Y-54475647D01*
G37*
G36*
X53521583Y-56813915D02*
X54647417Y-56163915D01*
X55397417Y-57462953D01*
X54271583Y-58112953D01*
X53521583Y-56813915D01*
X53521583Y-56813915D01*
G37*
G36*
X53825647Y-53297417D02*
X54475647Y-52171583D01*
X55774685Y-52921583D01*
X55124685Y-54047417D01*
X53825647Y-53297417D01*
X53825647Y-53297417D01*
G37*
G36*
X56163915Y-54647417D02*
X56813915Y-53521583D01*
X58112953Y-54271583D01*
X57462953Y-55397417D01*
X56163915Y-54647417D01*
X56163915Y-54647417D01*
G37*
D13*
X63500000Y-52070000D03*
D14*
X63500000Y-49530000D03*
D15*
X50800000Y-38100000D03*
X50800000Y-63500000D03*
D16*
X56367800Y-49756000D02*
X55419000Y-49756000D01*
X57813700Y-48310100D02*
X56367800Y-49756000D01*
X57138400Y-47140500D02*
X57813700Y-48310100D01*
X55419000Y-50800000D02*
X55419000Y-49756000D01*
X58345000Y-49530000D02*
X58119000Y-49756000D01*
X63500000Y-49530000D02*
X58345000Y-49530000D01*
X58119000Y-50800000D02*
X58119000Y-49756000D01*
X54800200Y-44802300D02*
X54800200Y-48490500D01*
X54459500Y-44461600D02*
X54800200Y-44802300D01*
X51940000Y-45630300D02*
X51940000Y-46124500D01*
X51844000Y-45534300D02*
X51940000Y-45630300D01*
X51844000Y-43481000D02*
X51844000Y-45534300D01*
X50800000Y-43481000D02*
X51844000Y-43481000D01*
X53109500Y-46799800D02*
X51940000Y-46124500D01*
X49756000Y-45232200D02*
X49756000Y-46181000D01*
X48310100Y-43786300D02*
X49756000Y-45232200D01*
X47140500Y-44461600D02*
X48310100Y-43786300D01*
X50800000Y-46181000D02*
X49756000Y-46181000D01*
X48149800Y-47140500D02*
X48490500Y-46799800D01*
X44461600Y-47140500D02*
X48149800Y-47140500D01*
X45630300Y-49660000D02*
X46124500Y-49660000D01*
X45534300Y-49756000D02*
X45630300Y-49660000D01*
X43481000Y-49756000D02*
X45534300Y-49756000D01*
X43481000Y-50800000D02*
X43481000Y-49756000D01*
X46799800Y-48490500D02*
X46124500Y-49660000D01*
X45232200Y-51844000D02*
X46181000Y-51844000D01*
X43786300Y-53289900D02*
X45232200Y-51844000D01*
X44461600Y-54459500D02*
X43786300Y-53289900D01*
X46181000Y-50800000D02*
X46181000Y-51844000D01*
X46799800Y-56797700D02*
X46799800Y-53109500D01*
X47140500Y-57138400D02*
X46799800Y-56797700D01*
X49660000Y-55969700D02*
X49660000Y-55475500D01*
X49756000Y-56065700D02*
X49660000Y-55969700D01*
X49756000Y-58119000D02*
X49756000Y-56065700D01*
X50800000Y-58119000D02*
X49756000Y-58119000D01*
X48490500Y-54800200D02*
X49660000Y-55475500D01*
X51844000Y-56367800D02*
X51844000Y-55419000D01*
X53289900Y-57813700D02*
X51844000Y-56367800D01*
X54459500Y-57138400D02*
X53289900Y-57813700D01*
X50800000Y-55419000D02*
X51844000Y-55419000D01*
X53450200Y-54459500D02*
X53109500Y-54800200D01*
X57138400Y-54459500D02*
X53450200Y-54459500D01*
X61216500Y-53109500D02*
X54800200Y-53109500D01*
X62256000Y-52070000D02*
X61216500Y-53109500D01*
X63500000Y-52070000D02*
X62256000Y-52070000D01*
M02*
