G04 #@! TF.FileFunction,Legend,Top*
%FSLAX46Y46*%
G04 Gerber Fmt 4.6, Leading zero omitted, Abs format (unit mm)*
G04 Created by KiCad (PCBNEW 4.0.7-e2-6376~58~ubuntu16.04.1) date Fri Jun  1 11:33:50 2018*
%MOMM*%
%LPD*%
G01*
G04 APERTURE LIST*
%ADD10C,0.100000*%
%ADD11C,0.200000*%
%ADD12C,0.120000*%
%ADD13C,0.150000*%
G04 APERTURE END LIST*
D10*
D11*
X65278000Y-47752000D02*
X61722000Y-47752000D01*
X65278000Y-53848000D02*
X65278000Y-47752000D01*
X61722000Y-53848000D02*
X65278000Y-53848000D01*
X61722000Y-47752000D02*
X61722000Y-53848000D01*
D12*
X57769000Y-51550000D02*
X54569000Y-51550000D01*
X54569000Y-50050000D02*
X57769000Y-50050000D01*
X54569000Y-50050000D02*
X54569000Y-51550000D01*
X57210325Y-47965019D02*
X54439044Y-49565019D01*
X53689044Y-48265981D02*
X56460325Y-46665981D01*
X53689044Y-48265981D02*
X54439044Y-49565019D01*
X54934019Y-45139675D02*
X53334019Y-47910956D01*
X52034981Y-47160956D02*
X53634981Y-44389675D01*
X52034981Y-47160956D02*
X53334019Y-47910956D01*
X51550000Y-43831000D02*
X51550000Y-47031000D01*
X50050000Y-47031000D02*
X50050000Y-43831000D01*
X50050000Y-47031000D02*
X51550000Y-47031000D01*
X47965019Y-44389675D02*
X49565019Y-47160956D01*
X48265981Y-47910956D02*
X46665981Y-45139675D01*
X48265981Y-47910956D02*
X49565019Y-47160956D01*
X45139675Y-46665981D02*
X47910956Y-48265981D01*
X47160956Y-49565019D02*
X44389675Y-47965019D01*
X47160956Y-49565019D02*
X47910956Y-48265981D01*
X43831000Y-50050000D02*
X47031000Y-50050000D01*
X47031000Y-51550000D02*
X43831000Y-51550000D01*
X47031000Y-51550000D02*
X47031000Y-50050000D01*
X44389675Y-53634981D02*
X47160956Y-52034981D01*
X47910956Y-53334019D02*
X45139675Y-54934019D01*
X47910956Y-53334019D02*
X47160956Y-52034981D01*
X46665981Y-56460325D02*
X48265981Y-53689044D01*
X49565019Y-54439044D02*
X47965019Y-57210325D01*
X49565019Y-54439044D02*
X48265981Y-53689044D01*
X50050000Y-57769000D02*
X50050000Y-54569000D01*
X51550000Y-54569000D02*
X51550000Y-57769000D01*
X51550000Y-54569000D02*
X50050000Y-54569000D01*
X53634981Y-57210325D02*
X52034981Y-54439044D01*
X53334019Y-53689044D02*
X54934019Y-56460325D01*
X53334019Y-53689044D02*
X52034981Y-54439044D01*
X56460325Y-54934019D02*
X53689044Y-53334019D01*
X54439044Y-52034981D02*
X57210325Y-53634981D01*
X54439044Y-52034981D02*
X53689044Y-53334019D01*
X64830000Y-48200000D02*
X62170000Y-48200000D01*
X64830000Y-50800000D02*
X64830000Y-48200000D01*
X62170000Y-50800000D02*
X62170000Y-48200000D01*
X64830000Y-50800000D02*
X62170000Y-50800000D01*
X64830000Y-52070000D02*
X64830000Y-53400000D01*
X64830000Y-53400000D02*
X63500000Y-53400000D01*
D13*
X57748933Y-49618452D02*
X57748933Y-48618452D01*
X57987028Y-48618452D01*
X58129886Y-48666071D01*
X58225124Y-48761309D01*
X58272743Y-48856547D01*
X58320362Y-49047023D01*
X58320362Y-49189881D01*
X58272743Y-49380357D01*
X58225124Y-49475595D01*
X58129886Y-49570833D01*
X57987028Y-49618452D01*
X57748933Y-49618452D01*
X59272743Y-49618452D02*
X58701314Y-49618452D01*
X58987028Y-49618452D02*
X58987028Y-48618452D01*
X58891790Y-48761309D01*
X58796552Y-48856547D01*
X58701314Y-48904166D01*
X56227172Y-46302284D02*
X55727172Y-45436259D01*
X55933369Y-45317211D01*
X56080897Y-45287021D01*
X56210994Y-45321881D01*
X56299853Y-45380550D01*
X56436330Y-45521697D01*
X56507759Y-45645416D01*
X56561758Y-45834183D01*
X56568137Y-45940471D01*
X56533278Y-46070568D01*
X56433369Y-46183236D01*
X56227172Y-46302284D01*
X56599578Y-45042547D02*
X56617007Y-44977498D01*
X56675676Y-44888640D01*
X56881874Y-44769592D01*
X56988162Y-44763212D01*
X57053210Y-44780642D01*
X57142069Y-44839311D01*
X57189688Y-44921789D01*
X57219877Y-45069316D01*
X57010719Y-45849903D01*
X57546831Y-45540379D01*
X53251216Y-44191281D02*
X52385191Y-43691281D01*
X52504238Y-43485084D01*
X52616906Y-43385175D01*
X52747004Y-43350316D01*
X52853292Y-43356695D01*
X53042058Y-43410694D01*
X53165777Y-43482123D01*
X53306925Y-43618600D01*
X53365594Y-43707459D01*
X53400453Y-43837556D01*
X53370263Y-43985084D01*
X53251216Y-44191281D01*
X52837572Y-42907734D02*
X53147096Y-42371622D01*
X53310343Y-42850774D01*
X53381772Y-42727055D01*
X53470630Y-42668386D01*
X53535679Y-42650957D01*
X53641968Y-42657337D01*
X53848164Y-42776384D01*
X53906833Y-42865243D01*
X53924263Y-42930291D01*
X53917883Y-43036579D01*
X53775025Y-43284016D01*
X53686167Y-43342685D01*
X53621118Y-43360115D01*
X49618452Y-43851067D02*
X48618452Y-43851067D01*
X48618452Y-43612972D01*
X48666071Y-43470114D01*
X48761309Y-43374876D01*
X48856547Y-43327257D01*
X49047023Y-43279638D01*
X49189881Y-43279638D01*
X49380357Y-43327257D01*
X49475595Y-43374876D01*
X49570833Y-43470114D01*
X49618452Y-43612972D01*
X49618452Y-43851067D01*
X48951785Y-42422495D02*
X49618452Y-42422495D01*
X48570833Y-42660591D02*
X49285119Y-42898686D01*
X49285119Y-42279638D01*
X44780642Y-44546790D02*
X45646667Y-44046790D01*
X45765715Y-44252987D01*
X45795905Y-44400515D01*
X45761045Y-44530612D01*
X45702376Y-44619471D01*
X45561229Y-44755948D01*
X45437510Y-44827377D01*
X45248743Y-44881376D01*
X45142455Y-44887755D01*
X45012358Y-44852896D01*
X44899690Y-44752987D01*
X44780642Y-44546790D01*
X46384763Y-45325209D02*
X46146667Y-44912816D01*
X45710465Y-45109672D01*
X45775514Y-45127101D01*
X45864372Y-45185770D01*
X45983420Y-45391968D01*
X45989800Y-45498256D01*
X45972370Y-45563304D01*
X45913700Y-45652163D01*
X45707504Y-45771211D01*
X45601216Y-45777590D01*
X45536167Y-45760161D01*
X45447309Y-45701492D01*
X45328261Y-45495294D01*
X45321881Y-45389006D01*
X45339311Y-45323958D01*
X42460481Y-48394235D02*
X42960481Y-47528210D01*
X43166678Y-47647257D01*
X43266587Y-47759925D01*
X43301446Y-47890023D01*
X43295067Y-47996311D01*
X43241068Y-48185077D01*
X43169639Y-48308796D01*
X43033162Y-48449944D01*
X42944303Y-48508613D01*
X42814206Y-48543472D01*
X42666678Y-48513282D01*
X42460481Y-48394235D01*
X44197661Y-48242496D02*
X44032703Y-48147257D01*
X43926415Y-48140877D01*
X43861366Y-48158307D01*
X43707459Y-48234406D01*
X43570982Y-48375553D01*
X43380506Y-48705468D01*
X43374126Y-48811756D01*
X43391556Y-48876805D01*
X43450225Y-48965663D01*
X43615183Y-49060902D01*
X43721471Y-49067282D01*
X43786519Y-49049852D01*
X43875378Y-48991183D01*
X43994425Y-48784987D01*
X44000805Y-48678698D01*
X43983376Y-48613649D01*
X43924707Y-48524791D01*
X43759749Y-48429552D01*
X43653461Y-48423172D01*
X43588412Y-48440602D01*
X43499553Y-48499272D01*
X42374877Y-52886309D02*
X42374877Y-51886309D01*
X42612972Y-51886309D01*
X42755830Y-51933928D01*
X42851068Y-52029166D01*
X42898687Y-52124404D01*
X42946306Y-52314880D01*
X42946306Y-52457738D01*
X42898687Y-52648214D01*
X42851068Y-52743452D01*
X42755830Y-52838690D01*
X42612972Y-52886309D01*
X42374877Y-52886309D01*
X43279639Y-51886309D02*
X43946306Y-51886309D01*
X43517734Y-52886309D01*
X44546789Y-56819357D02*
X44046789Y-55953332D01*
X44252986Y-55834284D01*
X44400514Y-55804094D01*
X44530611Y-55838954D01*
X44619470Y-55897623D01*
X44755947Y-56038770D01*
X44827376Y-56162489D01*
X44881375Y-56351256D01*
X44887754Y-56457544D01*
X44852895Y-56587641D01*
X44752986Y-56700309D01*
X44546789Y-56819357D01*
X45250818Y-55753056D02*
X45144530Y-55759436D01*
X45079481Y-55742006D01*
X44990623Y-55683337D01*
X44966814Y-55642098D01*
X44960434Y-55535810D01*
X44977864Y-55470761D01*
X45036533Y-55381903D01*
X45201491Y-55286665D01*
X45307779Y-55280285D01*
X45372827Y-55297715D01*
X45461686Y-55356384D01*
X45485495Y-55397623D01*
X45491875Y-55503911D01*
X45474445Y-55568960D01*
X45415776Y-55657818D01*
X45250818Y-55753056D01*
X45192149Y-55841915D01*
X45174719Y-55906963D01*
X45181100Y-56013252D01*
X45276338Y-56178209D01*
X45365196Y-56236878D01*
X45430245Y-56254308D01*
X45536533Y-56247928D01*
X45701491Y-56152690D01*
X45760160Y-56063832D01*
X45777589Y-55998783D01*
X45771210Y-55892495D01*
X45675972Y-55727538D01*
X45587113Y-55668868D01*
X45522064Y-55651438D01*
X45415776Y-55657818D01*
X48394236Y-59139519D02*
X47528211Y-58639519D01*
X47647258Y-58433322D01*
X47759926Y-58333413D01*
X47890024Y-58298554D01*
X47996312Y-58304933D01*
X48185078Y-58358932D01*
X48308797Y-58430361D01*
X48449945Y-58566838D01*
X48508614Y-58655697D01*
X48543473Y-58785794D01*
X48513283Y-58933322D01*
X48394236Y-59139519D01*
X48918045Y-58232254D02*
X49013283Y-58067297D01*
X49019664Y-57961008D01*
X49002234Y-57895959D01*
X48926135Y-57742052D01*
X48784988Y-57605575D01*
X48455073Y-57415098D01*
X48348785Y-57408719D01*
X48283736Y-57426148D01*
X48194878Y-57484817D01*
X48099639Y-57649775D01*
X48093259Y-57756063D01*
X48110689Y-57821112D01*
X48169358Y-57909970D01*
X48375554Y-58029018D01*
X48481842Y-58035398D01*
X48546892Y-58017968D01*
X48635750Y-57959299D01*
X48730989Y-57794341D01*
X48737369Y-57688053D01*
X48719938Y-57623004D01*
X48661269Y-57534146D01*
X52886309Y-59701314D02*
X51886309Y-59701314D01*
X51886309Y-59463219D01*
X51933928Y-59320361D01*
X52029166Y-59225123D01*
X52124404Y-59177504D01*
X52314880Y-59129885D01*
X52457738Y-59129885D01*
X52648214Y-59177504D01*
X52743452Y-59225123D01*
X52838690Y-59320361D01*
X52886309Y-59463219D01*
X52886309Y-59701314D01*
X52886309Y-58177504D02*
X52886309Y-58748933D01*
X52886309Y-58463219D02*
X51886309Y-58463219D01*
X52029166Y-58558457D01*
X52124404Y-58653695D01*
X52172023Y-58748933D01*
X51886309Y-57558457D02*
X51886309Y-57463218D01*
X51933928Y-57367980D01*
X51981547Y-57320361D01*
X52076785Y-57272742D01*
X52267261Y-57225123D01*
X52505357Y-57225123D01*
X52695833Y-57272742D01*
X52791071Y-57320361D01*
X52838690Y-57367980D01*
X52886309Y-57463218D01*
X52886309Y-57558457D01*
X52838690Y-57653695D01*
X52791071Y-57701314D01*
X52695833Y-57748933D01*
X52505357Y-57796552D01*
X52267261Y-57796552D01*
X52076785Y-57748933D01*
X51981547Y-57701314D01*
X51933928Y-57653695D01*
X51886309Y-57558457D01*
X55059620Y-55814780D02*
X55925645Y-55314780D01*
X56044692Y-55520976D01*
X56074882Y-55668504D01*
X56040023Y-55798602D01*
X55981354Y-55887460D01*
X55840206Y-56023938D01*
X55716487Y-56095367D01*
X55527721Y-56149365D01*
X55421433Y-56155745D01*
X55291335Y-56120885D01*
X55178667Y-56020976D01*
X55059620Y-55814780D01*
X55821525Y-57134438D02*
X55535810Y-56639566D01*
X55678667Y-56887002D02*
X56544692Y-56387002D01*
X56373356Y-56375952D01*
X56243258Y-56341092D01*
X56154400Y-56282423D01*
X56297715Y-57959224D02*
X56012001Y-57464352D01*
X56154858Y-57711788D02*
X57020883Y-57211788D01*
X56849546Y-57200738D01*
X56719449Y-57165878D01*
X56630590Y-57107209D01*
X56996326Y-53013120D02*
X57496326Y-52147095D01*
X57702522Y-52266143D01*
X57802431Y-52378811D01*
X57837291Y-52508908D01*
X57830911Y-52615196D01*
X57776913Y-52803963D01*
X57705484Y-52927682D01*
X57569006Y-53068829D01*
X57480148Y-53127498D01*
X57350050Y-53162358D01*
X57202522Y-53132168D01*
X56996326Y-53013120D01*
X58315984Y-53775025D02*
X57821112Y-53489311D01*
X58068548Y-53632168D02*
X58568548Y-52766143D01*
X58414641Y-52842241D01*
X58284543Y-52877101D01*
X58178255Y-52870721D01*
X59098279Y-53181955D02*
X59163328Y-53164525D01*
X59269616Y-53170905D01*
X59475813Y-53289953D01*
X59534482Y-53378811D01*
X59551912Y-53443860D01*
X59545532Y-53550148D01*
X59497913Y-53632626D01*
X59385246Y-53732534D01*
X58604659Y-53941692D01*
X59140770Y-54251216D01*
X60499667Y-52919381D02*
X60499667Y-53633667D01*
X60452047Y-53776524D01*
X60356809Y-53871762D01*
X60213952Y-53919381D01*
X60118714Y-53919381D01*
X61499667Y-53919381D02*
X60928238Y-53919381D01*
X61213952Y-53919381D02*
X61213952Y-52919381D01*
X61118714Y-53062238D01*
X61023476Y-53157476D01*
X60928238Y-53205095D01*
M02*
