G04 #@! TF.GenerationSoftware,KiCad,Pcbnew,6.0.8-f2edbf62ab~116~ubuntu22.04.1*
G04 #@! TF.CreationDate,2023-01-10T16:41:05-08:00*
G04 #@! TF.ProjectId,led_ring,6c65645f-7269-46e6-972e-6b696361645f,rev?*
G04 #@! TF.SameCoordinates,Original*
G04 #@! TF.FileFunction,Copper,L1,Top*
G04 #@! TF.FilePolarity,Positive*
%FSLAX46Y46*%
G04 Gerber Fmt 4.6, Leading zero omitted, Abs format (unit mm)*
G04 Created by KiCad (PCBNEW 6.0.8-f2edbf62ab~116~ubuntu22.04.1) date 2023-01-10 16:41:05*
%MOMM*%
%LPD*%
G01*
G04 APERTURE LIST*
G04 Aperture macros list*
%AMRoundRect*
0 Rectangle with rounded corners*
0 $1 Rounding radius*
0 $2 $3 $4 $5 $6 $7 $8 $9 X,Y pos of 4 corners*
0 Add a 4 corners polygon primitive as box body*
4,1,4,$2,$3,$4,$5,$6,$7,$8,$9,$2,$3,0*
0 Add four circle primitives for the rounded corners*
1,1,$1+$1,$2,$3*
1,1,$1+$1,$4,$5*
1,1,$1+$1,$6,$7*
1,1,$1+$1,$8,$9*
0 Add four rect primitives between the rounded corners*
20,1,$1+$1,$2,$3,$4,$5,0*
20,1,$1+$1,$4,$5,$6,$7,0*
20,1,$1+$1,$6,$7,$8,$9,0*
20,1,$1+$1,$8,$9,$2,$3,0*%
G04 Aperture macros list end*
G04 #@! TA.AperFunction,ComponentPad*
%ADD10R,1.700000X1.700000*%
G04 #@! TD*
G04 #@! TA.AperFunction,ComponentPad*
%ADD11O,1.700000X1.700000*%
G04 #@! TD*
G04 #@! TA.AperFunction,ComponentPad*
%ADD12C,3.175000*%
G04 #@! TD*
G04 #@! TA.AperFunction,SMDPad,CuDef*
%ADD13RoundRect,0.243750X0.243750X0.456250X-0.243750X0.456250X-0.243750X-0.456250X0.243750X-0.456250X0*%
G04 #@! TD*
G04 #@! TA.AperFunction,SMDPad,CuDef*
%ADD14RoundRect,0.243750X-0.243750X-0.456250X0.243750X-0.456250X0.243750X0.456250X-0.243750X0.456250X0*%
G04 #@! TD*
G04 #@! TA.AperFunction,SMDPad,CuDef*
%ADD15RoundRect,0.243750X0.017031X-0.516999X0.439219X-0.273249X-0.017031X0.516999X-0.439219X0.273249X0*%
G04 #@! TD*
G04 #@! TA.AperFunction,SMDPad,CuDef*
%ADD16RoundRect,0.243750X0.273249X-0.439219X0.516999X-0.017031X-0.273249X0.439219X-0.516999X0.017031X0*%
G04 #@! TD*
G04 #@! TA.AperFunction,SMDPad,CuDef*
%ADD17RoundRect,0.243750X0.456250X-0.243750X0.456250X0.243750X-0.456250X0.243750X-0.456250X-0.243750X0*%
G04 #@! TD*
G04 #@! TA.AperFunction,SMDPad,CuDef*
%ADD18RoundRect,0.243750X0.516999X0.017031X0.273249X0.439219X-0.516999X-0.017031X-0.273249X-0.439219X0*%
G04 #@! TD*
G04 #@! TA.AperFunction,SMDPad,CuDef*
%ADD19RoundRect,0.243750X0.439219X0.273249X0.017031X0.516999X-0.439219X-0.273249X-0.017031X-0.516999X0*%
G04 #@! TD*
G04 #@! TA.AperFunction,SMDPad,CuDef*
%ADD20RoundRect,0.243750X-0.017031X0.516999X-0.439219X0.273249X0.017031X-0.516999X0.439219X-0.273249X0*%
G04 #@! TD*
G04 #@! TA.AperFunction,SMDPad,CuDef*
%ADD21RoundRect,0.243750X-0.273249X0.439219X-0.516999X0.017031X0.273249X-0.439219X0.516999X-0.017031X0*%
G04 #@! TD*
G04 #@! TA.AperFunction,SMDPad,CuDef*
%ADD22RoundRect,0.243750X-0.456250X0.243750X-0.456250X-0.243750X0.456250X-0.243750X0.456250X0.243750X0*%
G04 #@! TD*
G04 #@! TA.AperFunction,SMDPad,CuDef*
%ADD23RoundRect,0.243750X-0.516999X-0.017031X-0.273249X-0.439219X0.516999X0.017031X0.273249X0.439219X0*%
G04 #@! TD*
G04 #@! TA.AperFunction,SMDPad,CuDef*
%ADD24RoundRect,0.243750X-0.439219X-0.273249X-0.017031X-0.516999X0.439219X0.273249X0.017031X0.516999X0*%
G04 #@! TD*
G04 #@! TA.AperFunction,ViaPad*
%ADD25C,0.685800*%
G04 #@! TD*
G04 #@! TA.AperFunction,Conductor*
%ADD26C,0.381000*%
G04 #@! TD*
G04 APERTURE END LIST*
D10*
X64770000Y-52070000D03*
D11*
X64770000Y-49530000D03*
D12*
X50800000Y-38100000D03*
X50800000Y-63500000D03*
D13*
X61643500Y-52959000D03*
X59768500Y-52959000D03*
X59768500Y-48768000D03*
X61643500Y-48768000D03*
D14*
X55831500Y-50800000D03*
X57706500Y-50800000D03*
D15*
X56781199Y-47346750D03*
X55157401Y-48284250D03*
D16*
X53315750Y-46442599D03*
X54253250Y-44818801D03*
D17*
X50800000Y-43893500D03*
X50800000Y-45768500D03*
D18*
X48284250Y-46442599D03*
X47346750Y-44818801D03*
D19*
X44818801Y-47346750D03*
X46442599Y-48284250D03*
D13*
X45768500Y-50800000D03*
X43893500Y-50800000D03*
D20*
X44818801Y-54253250D03*
X46442599Y-53315750D03*
D21*
X48284250Y-55157401D03*
X47346750Y-56781199D03*
D22*
X50800000Y-57706500D03*
X50800000Y-55831500D03*
D23*
X53315750Y-55157401D03*
X54253250Y-56781199D03*
D24*
X56781199Y-54253250D03*
X55157401Y-53315750D03*
D25*
X43771200Y-52483800D03*
D26*
X56781200Y-47346800D02*
X56781200Y-49329500D01*
X56781200Y-49329500D02*
X55831500Y-50279200D01*
X55831500Y-50279200D02*
X55831500Y-50800000D01*
X43893500Y-50800000D02*
X43893500Y-52361500D01*
X43893500Y-52361500D02*
X43771200Y-52483800D01*
X64770000Y-49530000D02*
X63221200Y-49530000D01*
X57706500Y-50800000D02*
X61951200Y-50800000D01*
X61951200Y-50800000D02*
X63221200Y-49530000D01*
X55157400Y-48284200D02*
X55157400Y-45722900D01*
X55157400Y-45722900D02*
X54253300Y-44818800D01*
X50800000Y-43893500D02*
X50973700Y-43893500D01*
X50973700Y-43893500D02*
X53315700Y-46235500D01*
X53315700Y-46235500D02*
X53315700Y-46442600D01*
X50800000Y-45768500D02*
X50109800Y-45768500D01*
X50109800Y-45768500D02*
X49160100Y-44818800D01*
X49160100Y-44818800D02*
X47346800Y-44818800D01*
X44818800Y-47346800D02*
X45723000Y-46442600D01*
X45723000Y-46442600D02*
X48284200Y-46442600D01*
X46442600Y-48284200D02*
X45891700Y-48835100D01*
X45891700Y-48835100D02*
X44254800Y-48835100D01*
X44254800Y-48835100D02*
X43432600Y-48012900D01*
X43432600Y-48012900D02*
X43432600Y-46849300D01*
X43432600Y-46849300D02*
X47589800Y-42692100D01*
X47589800Y-42692100D02*
X53972200Y-42692100D01*
X53972200Y-42692100D02*
X59768500Y-48488400D01*
X59768500Y-48488400D02*
X59768500Y-48768000D01*
X44818800Y-54253300D02*
X44818800Y-52270500D01*
X44818800Y-52270500D02*
X45768500Y-51320800D01*
X45768500Y-51320800D02*
X45768500Y-50800000D01*
X46442600Y-53315700D02*
X46442600Y-55877100D01*
X46442600Y-55877100D02*
X47346700Y-56781200D01*
X50800000Y-57706500D02*
X50626300Y-57706500D01*
X50626300Y-57706500D02*
X48284300Y-55364500D01*
X48284300Y-55364500D02*
X48284300Y-55157400D01*
X50800000Y-55831500D02*
X51490200Y-55831500D01*
X51490200Y-55831500D02*
X52439900Y-56781200D01*
X52439900Y-56781200D02*
X54253300Y-56781200D01*
X56781200Y-54253300D02*
X55877100Y-55157400D01*
X55877100Y-55157400D02*
X53315700Y-55157400D01*
X61643500Y-48768000D02*
X62442500Y-47969000D01*
X62442500Y-47969000D02*
X65451000Y-47969000D01*
X65451000Y-47969000D02*
X66326100Y-48844100D01*
X66326100Y-48844100D02*
X66326100Y-50513900D01*
X66326100Y-50513900D02*
X64770000Y-52070000D01*
X64770000Y-52070000D02*
X63221200Y-52070000D01*
X61643500Y-52959000D02*
X62332200Y-52959000D01*
X62332200Y-52959000D02*
X63221200Y-52070000D01*
X55157400Y-53315700D02*
X55708300Y-52764800D01*
X55708300Y-52764800D02*
X59574300Y-52764800D01*
X59574300Y-52764800D02*
X59768500Y-52959000D01*
M02*
