G04 #@! TF.GenerationSoftware,KiCad,Pcbnew,6.0.8-f2edbf62ab~116~ubuntu22.04.1*
G04 #@! TF.CreationDate,2023-01-10T16:41:05-08:00*
G04 #@! TF.ProjectId,led_ring,6c65645f-7269-46e6-972e-6b696361645f,rev?*
G04 #@! TF.SameCoordinates,Original*
G04 #@! TF.FileFunction,Legend,Top*
G04 #@! TF.FilePolarity,Positive*
%FSLAX46Y46*%
G04 Gerber Fmt 4.6, Leading zero omitted, Abs format (unit mm)*
G04 Created by KiCad (PCBNEW 6.0.8-f2edbf62ab~116~ubuntu22.04.1) date 2023-01-10 16:41:05*
%MOMM*%
%LPD*%
G01*
G04 APERTURE LIST*
%ADD10C,0.200000*%
%ADD11C,0.120000*%
G04 APERTURE END LIST*
D10*
X66548000Y-47752000D02*
X62992000Y-47752000D01*
X66548000Y-53848000D02*
X66548000Y-47752000D01*
X62992000Y-53848000D02*
X66548000Y-53848000D01*
X62992000Y-47752000D02*
X62992000Y-53848000D01*
D11*
X66100000Y-53400000D02*
X64770000Y-53400000D01*
X66100000Y-52070000D02*
X66100000Y-53400000D01*
X66100000Y-50800000D02*
X63440000Y-50800000D01*
X63440000Y-50800000D02*
X63440000Y-48200000D01*
X66100000Y-50800000D02*
X66100000Y-48200000D01*
X66100000Y-48200000D02*
X63440000Y-48200000D01*
X60964578Y-52249000D02*
X60447422Y-52249000D01*
X60964578Y-53669000D02*
X60447422Y-53669000D01*
X60964578Y-49478000D02*
X60447422Y-49478000D01*
X60964578Y-48058000D02*
X60447422Y-48058000D01*
X55084000Y-51760000D02*
X57769000Y-51760000D01*
X55084000Y-49840000D02*
X55084000Y-51760000D01*
X57769000Y-49840000D02*
X55084000Y-49840000D01*
X56355325Y-46484116D02*
X54030047Y-47826616D01*
X54030047Y-47826616D02*
X54990047Y-49489384D01*
X54990047Y-49489384D02*
X57315325Y-48146884D01*
X53773384Y-47569953D02*
X55115884Y-45244675D01*
X52110616Y-46609953D02*
X53773384Y-47569953D01*
X53453116Y-44284675D02*
X52110616Y-46609953D01*
X49840000Y-43831000D02*
X49840000Y-46516000D01*
X49840000Y-46516000D02*
X51760000Y-46516000D01*
X51760000Y-46516000D02*
X51760000Y-43831000D01*
X49489384Y-46609953D02*
X48146884Y-44284675D01*
X47826616Y-47569953D02*
X49489384Y-46609953D01*
X46484116Y-45244675D02*
X47826616Y-47569953D01*
X44284675Y-48146884D02*
X46609953Y-49489384D01*
X46609953Y-49489384D02*
X47569953Y-47826616D01*
X47569953Y-47826616D02*
X45244675Y-46484116D01*
X46516000Y-49840000D02*
X43831000Y-49840000D01*
X46516000Y-51760000D02*
X46516000Y-49840000D01*
X43831000Y-51760000D02*
X46516000Y-51760000D01*
X45244675Y-55115884D02*
X47569953Y-53773384D01*
X47569953Y-53773384D02*
X46609953Y-52110616D01*
X46609953Y-52110616D02*
X44284675Y-53453116D01*
X47826616Y-54030047D02*
X46484116Y-56355325D01*
X49489384Y-54990047D02*
X47826616Y-54030047D01*
X48146884Y-57315325D02*
X49489384Y-54990047D01*
X51760000Y-57769000D02*
X51760000Y-55084000D01*
X51760000Y-55084000D02*
X49840000Y-55084000D01*
X49840000Y-55084000D02*
X49840000Y-57769000D01*
X52110616Y-54990047D02*
X53453116Y-57315325D01*
X53773384Y-54030047D02*
X52110616Y-54990047D01*
X55115884Y-56355325D02*
X53773384Y-54030047D01*
X57315325Y-53453116D02*
X54990047Y-52110616D01*
X54990047Y-52110616D02*
X54030047Y-53773384D01*
X54030047Y-53773384D02*
X56355325Y-55115884D01*
M02*
