G04 #@! TF.FileFunction,Legend,Bot*
%FSLAX46Y46*%
G04 Gerber Fmt 4.6, Leading zero omitted, Abs format (unit mm)*
G04 Created by KiCad (PCBNEW 4.0.7-e2-6376~58~ubuntu16.04.1) date Fri Jun  1 11:33:50 2018*
%MOMM*%
%LPD*%
G01*
G04 APERTURE LIST*
%ADD10C,0.100000*%
%ADD11C,0.203200*%
%ADD12C,0.200000*%
G04 APERTURE END LIST*
D10*
D11*
X56974619Y-43246525D02*
X55958619Y-43246525D01*
X55958619Y-43488430D01*
X56007000Y-43633572D01*
X56103762Y-43730334D01*
X56200524Y-43778715D01*
X56394048Y-43827096D01*
X56539190Y-43827096D01*
X56732714Y-43778715D01*
X56829476Y-43730334D01*
X56926238Y-43633572D01*
X56974619Y-43488430D01*
X56974619Y-43246525D01*
X56974619Y-44262525D02*
X56297286Y-44262525D01*
X55958619Y-44262525D02*
X56007000Y-44214144D01*
X56055381Y-44262525D01*
X56007000Y-44310906D01*
X55958619Y-44262525D01*
X56055381Y-44262525D01*
X56926238Y-45181763D02*
X56974619Y-45085001D01*
X56974619Y-44891478D01*
X56926238Y-44794716D01*
X56877857Y-44746335D01*
X56781095Y-44697954D01*
X56490810Y-44697954D01*
X56394048Y-44746335D01*
X56345667Y-44794716D01*
X56297286Y-44891478D01*
X56297286Y-45085001D01*
X56345667Y-45181763D01*
X56974619Y-45617192D02*
X55958619Y-45617192D01*
X56587571Y-45713954D02*
X56974619Y-46004239D01*
X56297286Y-46004239D02*
X56684333Y-45617192D01*
X56974619Y-46439668D02*
X56297286Y-46439668D01*
X55958619Y-46439668D02*
X56007000Y-46391287D01*
X56055381Y-46439668D01*
X56007000Y-46488049D01*
X55958619Y-46439668D01*
X56055381Y-46439668D01*
X56297286Y-46923478D02*
X56974619Y-46923478D01*
X56394048Y-46923478D02*
X56345667Y-46971859D01*
X56297286Y-47068621D01*
X56297286Y-47213763D01*
X56345667Y-47310525D01*
X56442429Y-47358906D01*
X56974619Y-47358906D01*
X56926238Y-47794335D02*
X56974619Y-47891097D01*
X56974619Y-48084621D01*
X56926238Y-48181382D01*
X56829476Y-48229763D01*
X56781095Y-48229763D01*
X56684333Y-48181382D01*
X56635952Y-48084621D01*
X56635952Y-47939478D01*
X56587571Y-47842716D01*
X56490810Y-47794335D01*
X56442429Y-47794335D01*
X56345667Y-47842716D01*
X56297286Y-47939478D01*
X56297286Y-48084621D01*
X56345667Y-48181382D01*
X56974619Y-48810335D02*
X56926238Y-48713573D01*
X56877857Y-48665192D01*
X56781095Y-48616811D01*
X56490810Y-48616811D01*
X56394048Y-48665192D01*
X56345667Y-48713573D01*
X56297286Y-48810335D01*
X56297286Y-48955477D01*
X56345667Y-49052239D01*
X56394048Y-49100620D01*
X56490810Y-49149001D01*
X56781095Y-49149001D01*
X56877857Y-49100620D01*
X56926238Y-49052239D01*
X56974619Y-48955477D01*
X56974619Y-48810335D01*
X56297286Y-49584430D02*
X56974619Y-49584430D01*
X56394048Y-49584430D02*
X56345667Y-49632811D01*
X56297286Y-49729573D01*
X56297286Y-49874715D01*
X56345667Y-49971477D01*
X56442429Y-50019858D01*
X56974619Y-50019858D01*
X56974619Y-51761572D02*
X56974619Y-51277763D01*
X55958619Y-51277763D01*
X56974619Y-52535667D02*
X56442429Y-52535667D01*
X56345667Y-52487286D01*
X56297286Y-52390524D01*
X56297286Y-52197001D01*
X56345667Y-52100239D01*
X56926238Y-52535667D02*
X56974619Y-52438905D01*
X56974619Y-52197001D01*
X56926238Y-52100239D01*
X56829476Y-52051858D01*
X56732714Y-52051858D01*
X56635952Y-52100239D01*
X56587571Y-52197001D01*
X56587571Y-52438905D01*
X56539190Y-52535667D01*
X56974619Y-53019477D02*
X55958619Y-53019477D01*
X56345667Y-53019477D02*
X56297286Y-53116239D01*
X56297286Y-53309762D01*
X56345667Y-53406524D01*
X56394048Y-53454905D01*
X56490810Y-53503286D01*
X56781095Y-53503286D01*
X56877857Y-53454905D01*
X56926238Y-53406524D01*
X56974619Y-53309762D01*
X56974619Y-53116239D01*
X56926238Y-53019477D01*
X56055381Y-54664429D02*
X56007000Y-54712810D01*
X55958619Y-54809572D01*
X55958619Y-55051476D01*
X56007000Y-55148238D01*
X56055381Y-55196619D01*
X56152143Y-55245000D01*
X56248905Y-55245000D01*
X56394048Y-55196619D01*
X56974619Y-54616048D01*
X56974619Y-55245000D01*
X55958619Y-55873953D02*
X55958619Y-55970714D01*
X56007000Y-56067476D01*
X56055381Y-56115857D01*
X56152143Y-56164238D01*
X56345667Y-56212619D01*
X56587571Y-56212619D01*
X56781095Y-56164238D01*
X56877857Y-56115857D01*
X56926238Y-56067476D01*
X56974619Y-55970714D01*
X56974619Y-55873953D01*
X56926238Y-55777191D01*
X56877857Y-55728810D01*
X56781095Y-55680429D01*
X56587571Y-55632048D01*
X56345667Y-55632048D01*
X56152143Y-55680429D01*
X56055381Y-55728810D01*
X56007000Y-55777191D01*
X55958619Y-55873953D01*
X56974619Y-57180238D02*
X56974619Y-56599667D01*
X56974619Y-56889953D02*
X55958619Y-56889953D01*
X56103762Y-56793191D01*
X56200524Y-56696429D01*
X56248905Y-56599667D01*
X56394048Y-57760810D02*
X56345667Y-57664048D01*
X56297286Y-57615667D01*
X56200524Y-57567286D01*
X56152143Y-57567286D01*
X56055381Y-57615667D01*
X56007000Y-57664048D01*
X55958619Y-57760810D01*
X55958619Y-57954333D01*
X56007000Y-58051095D01*
X56055381Y-58099476D01*
X56152143Y-58147857D01*
X56200524Y-58147857D01*
X56297286Y-58099476D01*
X56345667Y-58051095D01*
X56394048Y-57954333D01*
X56394048Y-57760810D01*
X56442429Y-57664048D01*
X56490810Y-57615667D01*
X56587571Y-57567286D01*
X56781095Y-57567286D01*
X56877857Y-57615667D01*
X56926238Y-57664048D01*
X56974619Y-57760810D01*
X56974619Y-57954333D01*
X56926238Y-58051095D01*
X56877857Y-58099476D01*
X56781095Y-58147857D01*
X56587571Y-58147857D01*
X56490810Y-58099476D01*
X56442429Y-58051095D01*
X56394048Y-57954333D01*
X45798619Y-44691905D02*
X44782619Y-44691905D01*
X45798619Y-45756286D02*
X45314810Y-45417620D01*
X45798619Y-45175715D02*
X44782619Y-45175715D01*
X44782619Y-45562762D01*
X44831000Y-45659524D01*
X44879381Y-45707905D01*
X44976143Y-45756286D01*
X45121286Y-45756286D01*
X45218048Y-45707905D01*
X45266429Y-45659524D01*
X45314810Y-45562762D01*
X45314810Y-45175715D01*
X45798619Y-47449619D02*
X45798619Y-46965810D01*
X44782619Y-46965810D01*
X45266429Y-47788286D02*
X45266429Y-48126952D01*
X45798619Y-48272095D02*
X45798619Y-47788286D01*
X44782619Y-47788286D01*
X44782619Y-48272095D01*
X45798619Y-48707524D02*
X44782619Y-48707524D01*
X44782619Y-48949429D01*
X44831000Y-49094571D01*
X44927762Y-49191333D01*
X45024524Y-49239714D01*
X45218048Y-49288095D01*
X45363190Y-49288095D01*
X45556714Y-49239714D01*
X45653476Y-49191333D01*
X45750238Y-49094571D01*
X45798619Y-48949429D01*
X45798619Y-48707524D01*
X45798619Y-51078190D02*
X45314810Y-50739524D01*
X45798619Y-50497619D02*
X44782619Y-50497619D01*
X44782619Y-50884666D01*
X44831000Y-50981428D01*
X44879381Y-51029809D01*
X44976143Y-51078190D01*
X45121286Y-51078190D01*
X45218048Y-51029809D01*
X45266429Y-50981428D01*
X45314810Y-50884666D01*
X45314810Y-50497619D01*
X45798619Y-51513619D02*
X45121286Y-51513619D01*
X44782619Y-51513619D02*
X44831000Y-51465238D01*
X44879381Y-51513619D01*
X44831000Y-51562000D01*
X44782619Y-51513619D01*
X44879381Y-51513619D01*
X45121286Y-51997429D02*
X45798619Y-51997429D01*
X45218048Y-51997429D02*
X45169667Y-52045810D01*
X45121286Y-52142572D01*
X45121286Y-52287714D01*
X45169667Y-52384476D01*
X45266429Y-52432857D01*
X45798619Y-52432857D01*
X45121286Y-53352095D02*
X45943762Y-53352095D01*
X46040524Y-53303714D01*
X46088905Y-53255333D01*
X46137286Y-53158572D01*
X46137286Y-53013429D01*
X46088905Y-52916667D01*
X45750238Y-53352095D02*
X45798619Y-53255333D01*
X45798619Y-53061810D01*
X45750238Y-52965048D01*
X45701857Y-52916667D01*
X45605095Y-52868286D01*
X45314810Y-52868286D01*
X45218048Y-52916667D01*
X45169667Y-52965048D01*
X45121286Y-53061810D01*
X45121286Y-53255333D01*
X45169667Y-53352095D01*
X44782619Y-54464857D02*
X45798619Y-54803524D01*
X44782619Y-55142190D01*
X44782619Y-55674381D02*
X44782619Y-55771142D01*
X44831000Y-55867904D01*
X44879381Y-55916285D01*
X44976143Y-55964666D01*
X45169667Y-56013047D01*
X45411571Y-56013047D01*
X45605095Y-55964666D01*
X45701857Y-55916285D01*
X45750238Y-55867904D01*
X45798619Y-55771142D01*
X45798619Y-55674381D01*
X45750238Y-55577619D01*
X45701857Y-55529238D01*
X45605095Y-55480857D01*
X45411571Y-55432476D01*
X45169667Y-55432476D01*
X44976143Y-55480857D01*
X44879381Y-55529238D01*
X44831000Y-55577619D01*
X44782619Y-55674381D01*
X45701857Y-56448476D02*
X45750238Y-56496857D01*
X45798619Y-56448476D01*
X45750238Y-56400095D01*
X45701857Y-56448476D01*
X45798619Y-56448476D01*
X45798619Y-57464476D02*
X45798619Y-56883905D01*
X45798619Y-57174191D02*
X44782619Y-57174191D01*
X44927762Y-57077429D01*
X45024524Y-56980667D01*
X45072905Y-56883905D01*
D12*
X65278000Y-47752000D02*
X61722000Y-47752000D01*
X65278000Y-53848000D02*
X65278000Y-47752000D01*
X61722000Y-53848000D02*
X65278000Y-53848000D01*
X61722000Y-47752000D02*
X61722000Y-53848000D01*
M02*
