G04 #@! TF.GenerationSoftware,KiCad,Pcbnew,5.0.2-bee76a0~70~ubuntu18.04.1*
G04 #@! TF.CreationDate,2020-10-21T16:40:24-07:00*
G04 #@! TF.ProjectId,led_ring,6c65645f-7269-46e6-972e-6b696361645f,rev?*
G04 #@! TF.SameCoordinates,Original*
G04 #@! TF.FileFunction,Soldermask,Bot*
G04 #@! TF.FilePolarity,Negative*
%FSLAX46Y46*%
G04 Gerber Fmt 4.6, Leading zero omitted, Abs format (unit mm)*
G04 Created by KiCad (PCBNEW 5.0.2-bee76a0~70~ubuntu18.04.1) date Wed 21 Oct 2020 04:40:24 PM PDT*
%MOMM*%
%LPD*%
G01*
G04 APERTURE LIST*
%ADD10C,0.100000*%
G04 APERTURE END LIST*
D10*
G36*
X51321394Y-61781192D02*
X51646698Y-61915937D01*
X51939468Y-62111560D01*
X52188440Y-62360532D01*
X52384063Y-62653302D01*
X52518808Y-62978606D01*
X52587500Y-63323945D01*
X52587500Y-63676055D01*
X52518808Y-64021394D01*
X52384063Y-64346698D01*
X52188440Y-64639468D01*
X51939468Y-64888440D01*
X51646698Y-65084063D01*
X51321394Y-65218808D01*
X50976055Y-65287500D01*
X50623945Y-65287500D01*
X50278606Y-65218808D01*
X49953302Y-65084063D01*
X49660532Y-64888440D01*
X49411560Y-64639468D01*
X49215937Y-64346698D01*
X49081192Y-64021394D01*
X49012500Y-63676055D01*
X49012500Y-63323945D01*
X49081192Y-62978606D01*
X49215937Y-62653302D01*
X49411560Y-62360532D01*
X49660532Y-62111560D01*
X49953302Y-61915937D01*
X50278606Y-61781192D01*
X50623945Y-61712500D01*
X50976055Y-61712500D01*
X51321394Y-61781192D01*
X51321394Y-61781192D01*
G37*
G36*
X65820000Y-53120000D02*
X63720000Y-53120000D01*
X63720000Y-51020000D01*
X65820000Y-51020000D01*
X65820000Y-53120000D01*
X65820000Y-53120000D01*
G37*
G36*
X64898707Y-48487597D02*
X64975836Y-48495193D01*
X65107787Y-48535220D01*
X65173763Y-48555233D01*
X65356172Y-48652733D01*
X65516054Y-48783946D01*
X65647267Y-48943828D01*
X65744767Y-49126237D01*
X65744767Y-49126238D01*
X65804807Y-49324164D01*
X65825080Y-49530000D01*
X65804807Y-49735836D01*
X65764780Y-49867787D01*
X65744767Y-49933763D01*
X65647267Y-50116172D01*
X65516054Y-50276054D01*
X65356172Y-50407267D01*
X65173763Y-50504767D01*
X65107787Y-50524780D01*
X64975836Y-50564807D01*
X64898707Y-50572404D01*
X64821580Y-50580000D01*
X64718420Y-50580000D01*
X64641293Y-50572404D01*
X64564164Y-50564807D01*
X64432213Y-50524780D01*
X64366237Y-50504767D01*
X64183828Y-50407267D01*
X64023946Y-50276054D01*
X63892733Y-50116172D01*
X63795233Y-49933763D01*
X63775220Y-49867787D01*
X63735193Y-49735836D01*
X63714920Y-49530000D01*
X63735193Y-49324164D01*
X63795233Y-49126238D01*
X63795233Y-49126237D01*
X63892733Y-48943828D01*
X64023946Y-48783946D01*
X64183828Y-48652733D01*
X64366237Y-48555233D01*
X64432213Y-48535220D01*
X64564164Y-48495193D01*
X64641293Y-48487597D01*
X64718420Y-48480000D01*
X64821580Y-48480000D01*
X64898707Y-48487597D01*
X64898707Y-48487597D01*
G37*
G36*
X51321394Y-36381192D02*
X51646698Y-36515937D01*
X51939468Y-36711560D01*
X52188440Y-36960532D01*
X52384063Y-37253302D01*
X52518808Y-37578606D01*
X52587500Y-37923945D01*
X52587500Y-38276055D01*
X52518808Y-38621394D01*
X52384063Y-38946698D01*
X52188440Y-39239468D01*
X51939468Y-39488440D01*
X51646698Y-39684063D01*
X51321394Y-39818808D01*
X50976055Y-39887500D01*
X50623945Y-39887500D01*
X50278606Y-39818808D01*
X49953302Y-39684063D01*
X49660532Y-39488440D01*
X49411560Y-39239468D01*
X49215937Y-38946698D01*
X49081192Y-38621394D01*
X49012500Y-38276055D01*
X49012500Y-37923945D01*
X49081192Y-37578606D01*
X49215937Y-37253302D01*
X49411560Y-36960532D01*
X49660532Y-36711560D01*
X49953302Y-36515937D01*
X50278606Y-36381192D01*
X50623945Y-36312500D01*
X50976055Y-36312500D01*
X51321394Y-36381192D01*
X51321394Y-36381192D01*
G37*
M02*
