G04 #@! TF.GenerationSoftware,KiCad,Pcbnew,5.1.7-a382d34a8~87~ubuntu18.04.1*
G04 #@! TF.CreationDate,2020-12-09T10:15:32-08:00*
G04 #@! TF.ProjectId,led_ring,6c65645f-7269-46e6-972e-6b696361645f,rev?*
G04 #@! TF.SameCoordinates,Original*
G04 #@! TF.FileFunction,Paste,Top*
G04 #@! TF.FilePolarity,Positive*
%FSLAX46Y46*%
G04 Gerber Fmt 4.6, Leading zero omitted, Abs format (unit mm)*
G04 Created by KiCad (PCBNEW 5.1.7-a382d34a8~87~ubuntu18.04.1) date 2020-12-09 10:15:32*
%MOMM*%
%LPD*%
G01*
G04 APERTURE LIST*
G04 APERTURE END LIST*
G36*
G01*
X62131000Y-52502750D02*
X62131000Y-53415250D01*
G75*
G02*
X61887250Y-53659000I-243750J0D01*
G01*
X61399750Y-53659000D01*
G75*
G02*
X61156000Y-53415250I0J243750D01*
G01*
X61156000Y-52502750D01*
G75*
G02*
X61399750Y-52259000I243750J0D01*
G01*
X61887250Y-52259000D01*
G75*
G02*
X62131000Y-52502750I0J-243750D01*
G01*
G37*
G36*
G01*
X60256000Y-52502750D02*
X60256000Y-53415250D01*
G75*
G02*
X60012250Y-53659000I-243750J0D01*
G01*
X59524750Y-53659000D01*
G75*
G02*
X59281000Y-53415250I0J243750D01*
G01*
X59281000Y-52502750D01*
G75*
G02*
X59524750Y-52259000I243750J0D01*
G01*
X60012250Y-52259000D01*
G75*
G02*
X60256000Y-52502750I0J-243750D01*
G01*
G37*
G36*
G01*
X60256000Y-48311750D02*
X60256000Y-49224250D01*
G75*
G02*
X60012250Y-49468000I-243750J0D01*
G01*
X59524750Y-49468000D01*
G75*
G02*
X59281000Y-49224250I0J243750D01*
G01*
X59281000Y-48311750D01*
G75*
G02*
X59524750Y-48068000I243750J0D01*
G01*
X60012250Y-48068000D01*
G75*
G02*
X60256000Y-48311750I0J-243750D01*
G01*
G37*
G36*
G01*
X62131000Y-48311750D02*
X62131000Y-49224250D01*
G75*
G02*
X61887250Y-49468000I-243750J0D01*
G01*
X61399750Y-49468000D01*
G75*
G02*
X61156000Y-49224250I0J243750D01*
G01*
X61156000Y-48311750D01*
G75*
G02*
X61399750Y-48068000I243750J0D01*
G01*
X61887250Y-48068000D01*
G75*
G02*
X62131000Y-48311750I0J-243750D01*
G01*
G37*
G36*
G01*
X55344000Y-51256250D02*
X55344000Y-50343750D01*
G75*
G02*
X55587750Y-50100000I243750J0D01*
G01*
X56075250Y-50100000D01*
G75*
G02*
X56319000Y-50343750I0J-243750D01*
G01*
X56319000Y-51256250D01*
G75*
G02*
X56075250Y-51500000I-243750J0D01*
G01*
X55587750Y-51500000D01*
G75*
G02*
X55344000Y-51256250I0J243750D01*
G01*
G37*
G36*
G01*
X57219000Y-51256250D02*
X57219000Y-50343750D01*
G75*
G02*
X57462750Y-50100000I243750J0D01*
G01*
X57950250Y-50100000D01*
G75*
G02*
X58194000Y-50343750I0J-243750D01*
G01*
X58194000Y-51256250D01*
G75*
G02*
X57950250Y-51500000I-243750J0D01*
G01*
X57462750Y-51500000D01*
G75*
G02*
X57219000Y-51256250I0J243750D01*
G01*
G37*
G36*
G01*
X56587136Y-47985624D02*
X56130886Y-47195376D01*
G75*
G02*
X56220105Y-46862407I211094J121875D01*
G01*
X56642293Y-46618657D01*
G75*
G02*
X56975262Y-46707876I121875J-211094D01*
G01*
X57431512Y-47498124D01*
G75*
G02*
X57342293Y-47831093I-211094J-121875D01*
G01*
X56920105Y-48074843D01*
G75*
G02*
X56587136Y-47985624I-121875J211094D01*
G01*
G37*
G36*
G01*
X54963338Y-48923124D02*
X54507088Y-48132876D01*
G75*
G02*
X54596307Y-47799907I211094J121875D01*
G01*
X55018495Y-47556157D01*
G75*
G02*
X55351464Y-47645376I121875J-211094D01*
G01*
X55807714Y-48435624D01*
G75*
G02*
X55718495Y-48768593I-211094J-121875D01*
G01*
X55296307Y-49012343D01*
G75*
G02*
X54963338Y-48923124I-121875J211094D01*
G01*
G37*
G36*
G01*
X53467124Y-47092912D02*
X52676876Y-46636662D01*
G75*
G02*
X52587657Y-46303693I121875J211094D01*
G01*
X52831407Y-45881505D01*
G75*
G02*
X53164376Y-45792286I211094J-121875D01*
G01*
X53954624Y-46248536D01*
G75*
G02*
X54043843Y-46581505I-121875J-211094D01*
G01*
X53800093Y-47003693D01*
G75*
G02*
X53467124Y-47092912I-211094J121875D01*
G01*
G37*
G36*
G01*
X54404624Y-45469114D02*
X53614376Y-45012864D01*
G75*
G02*
X53525157Y-44679895I121875J211094D01*
G01*
X53768907Y-44257707D01*
G75*
G02*
X54101876Y-44168488I211094J-121875D01*
G01*
X54892124Y-44624738D01*
G75*
G02*
X54981343Y-44957707I-121875J-211094D01*
G01*
X54737593Y-45379895D01*
G75*
G02*
X54404624Y-45469114I-211094J121875D01*
G01*
G37*
G36*
G01*
X51256250Y-44381000D02*
X50343750Y-44381000D01*
G75*
G02*
X50100000Y-44137250I0J243750D01*
G01*
X50100000Y-43649750D01*
G75*
G02*
X50343750Y-43406000I243750J0D01*
G01*
X51256250Y-43406000D01*
G75*
G02*
X51500000Y-43649750I0J-243750D01*
G01*
X51500000Y-44137250D01*
G75*
G02*
X51256250Y-44381000I-243750J0D01*
G01*
G37*
G36*
G01*
X51256250Y-46256000D02*
X50343750Y-46256000D01*
G75*
G02*
X50100000Y-46012250I0J243750D01*
G01*
X50100000Y-45524750D01*
G75*
G02*
X50343750Y-45281000I243750J0D01*
G01*
X51256250Y-45281000D01*
G75*
G02*
X51500000Y-45524750I0J-243750D01*
G01*
X51500000Y-46012250D01*
G75*
G02*
X51256250Y-46256000I-243750J0D01*
G01*
G37*
G36*
G01*
X48923124Y-46636662D02*
X48132876Y-47092912D01*
G75*
G02*
X47799907Y-47003693I-121875J211094D01*
G01*
X47556157Y-46581505D01*
G75*
G02*
X47645376Y-46248536I211094J121875D01*
G01*
X48435624Y-45792286D01*
G75*
G02*
X48768593Y-45881505I121875J-211094D01*
G01*
X49012343Y-46303693D01*
G75*
G02*
X48923124Y-46636662I-211094J-121875D01*
G01*
G37*
G36*
G01*
X47985624Y-45012864D02*
X47195376Y-45469114D01*
G75*
G02*
X46862407Y-45379895I-121875J211094D01*
G01*
X46618657Y-44957707D01*
G75*
G02*
X46707876Y-44624738I211094J121875D01*
G01*
X47498124Y-44168488D01*
G75*
G02*
X47831093Y-44257707I121875J-211094D01*
G01*
X48074843Y-44679895D01*
G75*
G02*
X47985624Y-45012864I-211094J-121875D01*
G01*
G37*
G36*
G01*
X45469114Y-47195376D02*
X45012864Y-47985624D01*
G75*
G02*
X44679895Y-48074843I-211094J121875D01*
G01*
X44257707Y-47831093D01*
G75*
G02*
X44168488Y-47498124I121875J211094D01*
G01*
X44624738Y-46707876D01*
G75*
G02*
X44957707Y-46618657I211094J-121875D01*
G01*
X45379895Y-46862407D01*
G75*
G02*
X45469114Y-47195376I-121875J-211094D01*
G01*
G37*
G36*
G01*
X47092912Y-48132876D02*
X46636662Y-48923124D01*
G75*
G02*
X46303693Y-49012343I-211094J121875D01*
G01*
X45881505Y-48768593D01*
G75*
G02*
X45792286Y-48435624I121875J211094D01*
G01*
X46248536Y-47645376D01*
G75*
G02*
X46581505Y-47556157I211094J-121875D01*
G01*
X47003693Y-47799907D01*
G75*
G02*
X47092912Y-48132876I-121875J-211094D01*
G01*
G37*
G36*
G01*
X46256000Y-50343750D02*
X46256000Y-51256250D01*
G75*
G02*
X46012250Y-51500000I-243750J0D01*
G01*
X45524750Y-51500000D01*
G75*
G02*
X45281000Y-51256250I0J243750D01*
G01*
X45281000Y-50343750D01*
G75*
G02*
X45524750Y-50100000I243750J0D01*
G01*
X46012250Y-50100000D01*
G75*
G02*
X46256000Y-50343750I0J-243750D01*
G01*
G37*
G36*
G01*
X44381000Y-50343750D02*
X44381000Y-51256250D01*
G75*
G02*
X44137250Y-51500000I-243750J0D01*
G01*
X43649750Y-51500000D01*
G75*
G02*
X43406000Y-51256250I0J243750D01*
G01*
X43406000Y-50343750D01*
G75*
G02*
X43649750Y-50100000I243750J0D01*
G01*
X44137250Y-50100000D01*
G75*
G02*
X44381000Y-50343750I0J-243750D01*
G01*
G37*
G36*
G01*
X45012864Y-53614376D02*
X45469114Y-54404624D01*
G75*
G02*
X45379895Y-54737593I-211094J-121875D01*
G01*
X44957707Y-54981343D01*
G75*
G02*
X44624738Y-54892124I-121875J211094D01*
G01*
X44168488Y-54101876D01*
G75*
G02*
X44257707Y-53768907I211094J121875D01*
G01*
X44679895Y-53525157D01*
G75*
G02*
X45012864Y-53614376I121875J-211094D01*
G01*
G37*
G36*
G01*
X46636662Y-52676876D02*
X47092912Y-53467124D01*
G75*
G02*
X47003693Y-53800093I-211094J-121875D01*
G01*
X46581505Y-54043843D01*
G75*
G02*
X46248536Y-53954624I-121875J211094D01*
G01*
X45792286Y-53164376D01*
G75*
G02*
X45881505Y-52831407I211094J121875D01*
G01*
X46303693Y-52587657D01*
G75*
G02*
X46636662Y-52676876I121875J-211094D01*
G01*
G37*
G36*
G01*
X48132876Y-54507088D02*
X48923124Y-54963338D01*
G75*
G02*
X49012343Y-55296307I-121875J-211094D01*
G01*
X48768593Y-55718495D01*
G75*
G02*
X48435624Y-55807714I-211094J121875D01*
G01*
X47645376Y-55351464D01*
G75*
G02*
X47556157Y-55018495I121875J211094D01*
G01*
X47799907Y-54596307D01*
G75*
G02*
X48132876Y-54507088I211094J-121875D01*
G01*
G37*
G36*
G01*
X47195376Y-56130886D02*
X47985624Y-56587136D01*
G75*
G02*
X48074843Y-56920105I-121875J-211094D01*
G01*
X47831093Y-57342293D01*
G75*
G02*
X47498124Y-57431512I-211094J121875D01*
G01*
X46707876Y-56975262D01*
G75*
G02*
X46618657Y-56642293I121875J211094D01*
G01*
X46862407Y-56220105D01*
G75*
G02*
X47195376Y-56130886I211094J-121875D01*
G01*
G37*
G36*
G01*
X50343750Y-57219000D02*
X51256250Y-57219000D01*
G75*
G02*
X51500000Y-57462750I0J-243750D01*
G01*
X51500000Y-57950250D01*
G75*
G02*
X51256250Y-58194000I-243750J0D01*
G01*
X50343750Y-58194000D01*
G75*
G02*
X50100000Y-57950250I0J243750D01*
G01*
X50100000Y-57462750D01*
G75*
G02*
X50343750Y-57219000I243750J0D01*
G01*
G37*
G36*
G01*
X50343750Y-55344000D02*
X51256250Y-55344000D01*
G75*
G02*
X51500000Y-55587750I0J-243750D01*
G01*
X51500000Y-56075250D01*
G75*
G02*
X51256250Y-56319000I-243750J0D01*
G01*
X50343750Y-56319000D01*
G75*
G02*
X50100000Y-56075250I0J243750D01*
G01*
X50100000Y-55587750D01*
G75*
G02*
X50343750Y-55344000I243750J0D01*
G01*
G37*
G36*
G01*
X52676876Y-54963338D02*
X53467124Y-54507088D01*
G75*
G02*
X53800093Y-54596307I121875J-211094D01*
G01*
X54043843Y-55018495D01*
G75*
G02*
X53954624Y-55351464I-211094J-121875D01*
G01*
X53164376Y-55807714D01*
G75*
G02*
X52831407Y-55718495I-121875J211094D01*
G01*
X52587657Y-55296307D01*
G75*
G02*
X52676876Y-54963338I211094J121875D01*
G01*
G37*
G36*
G01*
X53614376Y-56587136D02*
X54404624Y-56130886D01*
G75*
G02*
X54737593Y-56220105I121875J-211094D01*
G01*
X54981343Y-56642293D01*
G75*
G02*
X54892124Y-56975262I-211094J-121875D01*
G01*
X54101876Y-57431512D01*
G75*
G02*
X53768907Y-57342293I-121875J211094D01*
G01*
X53525157Y-56920105D01*
G75*
G02*
X53614376Y-56587136I211094J121875D01*
G01*
G37*
G36*
G01*
X56130886Y-54404624D02*
X56587136Y-53614376D01*
G75*
G02*
X56920105Y-53525157I211094J-121875D01*
G01*
X57342293Y-53768907D01*
G75*
G02*
X57431512Y-54101876I-121875J-211094D01*
G01*
X56975262Y-54892124D01*
G75*
G02*
X56642293Y-54981343I-211094J121875D01*
G01*
X56220105Y-54737593D01*
G75*
G02*
X56130886Y-54404624I121875J211094D01*
G01*
G37*
G36*
G01*
X54507088Y-53467124D02*
X54963338Y-52676876D01*
G75*
G02*
X55296307Y-52587657I211094J-121875D01*
G01*
X55718495Y-52831407D01*
G75*
G02*
X55807714Y-53164376I-121875J-211094D01*
G01*
X55351464Y-53954624D01*
G75*
G02*
X55018495Y-54043843I-211094J121875D01*
G01*
X54596307Y-53800093D01*
G75*
G02*
X54507088Y-53467124I121875J211094D01*
G01*
G37*
M02*
