G04 #@! TF.GenerationSoftware,KiCad,Pcbnew,5.1.7-a382d34a8~87~ubuntu18.04.1*
G04 #@! TF.CreationDate,2020-12-09T10:15:32-08:00*
G04 #@! TF.ProjectId,led_ring,6c65645f-7269-46e6-972e-6b696361645f,rev?*
G04 #@! TF.SameCoordinates,Original*
G04 #@! TF.FileFunction,Soldermask,Top*
G04 #@! TF.FilePolarity,Negative*
%FSLAX46Y46*%
G04 Gerber Fmt 4.6, Leading zero omitted, Abs format (unit mm)*
G04 Created by KiCad (PCBNEW 5.1.7-a382d34a8~87~ubuntu18.04.1) date 2020-12-09 10:15:32*
%MOMM*%
%LPD*%
G01*
G04 APERTURE LIST*
%ADD10O,2.100000X2.100000*%
%ADD11C,3.575000*%
%ADD12C,0.100000*%
G04 APERTURE END LIST*
G36*
G01*
X65820000Y-51220000D02*
X65820000Y-52920000D01*
G75*
G02*
X65620000Y-53120000I-200000J0D01*
G01*
X63920000Y-53120000D01*
G75*
G02*
X63720000Y-52920000I0J200000D01*
G01*
X63720000Y-51220000D01*
G75*
G02*
X63920000Y-51020000I200000J0D01*
G01*
X65620000Y-51020000D01*
G75*
G02*
X65820000Y-51220000I0J-200000D01*
G01*
G37*
D10*
X64770000Y-49530000D03*
D11*
X50800000Y-38100000D03*
X50800000Y-63500000D03*
G36*
G01*
X62331000Y-52402750D02*
X62331000Y-53515250D01*
G75*
G02*
X61987250Y-53859000I-343750J0D01*
G01*
X61299750Y-53859000D01*
G75*
G02*
X60956000Y-53515250I0J343750D01*
G01*
X60956000Y-52402750D01*
G75*
G02*
X61299750Y-52059000I343750J0D01*
G01*
X61987250Y-52059000D01*
G75*
G02*
X62331000Y-52402750I0J-343750D01*
G01*
G37*
G36*
G01*
X60456000Y-52402750D02*
X60456000Y-53515250D01*
G75*
G02*
X60112250Y-53859000I-343750J0D01*
G01*
X59424750Y-53859000D01*
G75*
G02*
X59081000Y-53515250I0J343750D01*
G01*
X59081000Y-52402750D01*
G75*
G02*
X59424750Y-52059000I343750J0D01*
G01*
X60112250Y-52059000D01*
G75*
G02*
X60456000Y-52402750I0J-343750D01*
G01*
G37*
G36*
G01*
X60456000Y-48211750D02*
X60456000Y-49324250D01*
G75*
G02*
X60112250Y-49668000I-343750J0D01*
G01*
X59424750Y-49668000D01*
G75*
G02*
X59081000Y-49324250I0J343750D01*
G01*
X59081000Y-48211750D01*
G75*
G02*
X59424750Y-47868000I343750J0D01*
G01*
X60112250Y-47868000D01*
G75*
G02*
X60456000Y-48211750I0J-343750D01*
G01*
G37*
G36*
G01*
X62331000Y-48211750D02*
X62331000Y-49324250D01*
G75*
G02*
X61987250Y-49668000I-343750J0D01*
G01*
X61299750Y-49668000D01*
G75*
G02*
X60956000Y-49324250I0J343750D01*
G01*
X60956000Y-48211750D01*
G75*
G02*
X61299750Y-47868000I343750J0D01*
G01*
X61987250Y-47868000D01*
G75*
G02*
X62331000Y-48211750I0J-343750D01*
G01*
G37*
G36*
G01*
X55144000Y-51356250D02*
X55144000Y-50243750D01*
G75*
G02*
X55487750Y-49900000I343750J0D01*
G01*
X56175250Y-49900000D01*
G75*
G02*
X56519000Y-50243750I0J-343750D01*
G01*
X56519000Y-51356250D01*
G75*
G02*
X56175250Y-51700000I-343750J0D01*
G01*
X55487750Y-51700000D01*
G75*
G02*
X55144000Y-51356250I0J343750D01*
G01*
G37*
G36*
G01*
X57019000Y-51356250D02*
X57019000Y-50243750D01*
G75*
G02*
X57362750Y-49900000I343750J0D01*
G01*
X58050250Y-49900000D01*
G75*
G02*
X58394000Y-50243750I0J-343750D01*
G01*
X58394000Y-51356250D01*
G75*
G02*
X58050250Y-51700000I-343750J0D01*
G01*
X57362750Y-51700000D01*
G75*
G02*
X57019000Y-51356250I0J343750D01*
G01*
G37*
G36*
G01*
X56463932Y-48172227D02*
X55907682Y-47208773D01*
G75*
G02*
X56033503Y-46739202I297696J171875D01*
G01*
X56628895Y-46395452D01*
G75*
G02*
X57098466Y-46521273I171875J-297696D01*
G01*
X57654716Y-47484727D01*
G75*
G02*
X57528895Y-47954298I-297696J-171875D01*
G01*
X56933503Y-48298048D01*
G75*
G02*
X56463932Y-48172227I-171875J297696D01*
G01*
G37*
G36*
G01*
X54840134Y-49109727D02*
X54283884Y-48146273D01*
G75*
G02*
X54409705Y-47676702I297696J171875D01*
G01*
X55005097Y-47332952D01*
G75*
G02*
X55474668Y-47458773I171875J-297696D01*
G01*
X56030918Y-48422227D01*
G75*
G02*
X55905097Y-48891798I-297696J-171875D01*
G01*
X55309705Y-49235548D01*
G75*
G02*
X54840134Y-49109727I-171875J297696D01*
G01*
G37*
G36*
G01*
X53453727Y-47316116D02*
X52490273Y-46759866D01*
G75*
G02*
X52364452Y-46290295I171875J297696D01*
G01*
X52708202Y-45694903D01*
G75*
G02*
X53177773Y-45569082I297696J-171875D01*
G01*
X54141227Y-46125332D01*
G75*
G02*
X54267048Y-46594903I-171875J-297696D01*
G01*
X53923298Y-47190295D01*
G75*
G02*
X53453727Y-47316116I-297696J171875D01*
G01*
G37*
G36*
G01*
X54391227Y-45692318D02*
X53427773Y-45136068D01*
G75*
G02*
X53301952Y-44666497I171875J297696D01*
G01*
X53645702Y-44071105D01*
G75*
G02*
X54115273Y-43945284I297696J-171875D01*
G01*
X55078727Y-44501534D01*
G75*
G02*
X55204548Y-44971105I-171875J-297696D01*
G01*
X54860798Y-45566497D01*
G75*
G02*
X54391227Y-45692318I-297696J171875D01*
G01*
G37*
G36*
G01*
X51356250Y-44581000D02*
X50243750Y-44581000D01*
G75*
G02*
X49900000Y-44237250I0J343750D01*
G01*
X49900000Y-43549750D01*
G75*
G02*
X50243750Y-43206000I343750J0D01*
G01*
X51356250Y-43206000D01*
G75*
G02*
X51700000Y-43549750I0J-343750D01*
G01*
X51700000Y-44237250D01*
G75*
G02*
X51356250Y-44581000I-343750J0D01*
G01*
G37*
G36*
G01*
X51356250Y-46456000D02*
X50243750Y-46456000D01*
G75*
G02*
X49900000Y-46112250I0J343750D01*
G01*
X49900000Y-45424750D01*
G75*
G02*
X50243750Y-45081000I343750J0D01*
G01*
X51356250Y-45081000D01*
G75*
G02*
X51700000Y-45424750I0J-343750D01*
G01*
X51700000Y-46112250D01*
G75*
G02*
X51356250Y-46456000I-343750J0D01*
G01*
G37*
G36*
G01*
X49109727Y-46759866D02*
X48146273Y-47316116D01*
G75*
G02*
X47676702Y-47190295I-171875J297696D01*
G01*
X47332952Y-46594903D01*
G75*
G02*
X47458773Y-46125332I297696J171875D01*
G01*
X48422227Y-45569082D01*
G75*
G02*
X48891798Y-45694903I171875J-297696D01*
G01*
X49235548Y-46290295D01*
G75*
G02*
X49109727Y-46759866I-297696J-171875D01*
G01*
G37*
G36*
G01*
X48172227Y-45136068D02*
X47208773Y-45692318D01*
G75*
G02*
X46739202Y-45566497I-171875J297696D01*
G01*
X46395452Y-44971105D01*
G75*
G02*
X46521273Y-44501534I297696J171875D01*
G01*
X47484727Y-43945284D01*
G75*
G02*
X47954298Y-44071105I171875J-297696D01*
G01*
X48298048Y-44666497D01*
G75*
G02*
X48172227Y-45136068I-297696J-171875D01*
G01*
G37*
G36*
G01*
X45692318Y-47208773D02*
X45136068Y-48172227D01*
G75*
G02*
X44666497Y-48298048I-297696J171875D01*
G01*
X44071105Y-47954298D01*
G75*
G02*
X43945284Y-47484727I171875J297696D01*
G01*
X44501534Y-46521273D01*
G75*
G02*
X44971105Y-46395452I297696J-171875D01*
G01*
X45566497Y-46739202D01*
G75*
G02*
X45692318Y-47208773I-171875J-297696D01*
G01*
G37*
G36*
G01*
X47316116Y-48146273D02*
X46759866Y-49109727D01*
G75*
G02*
X46290295Y-49235548I-297696J171875D01*
G01*
X45694903Y-48891798D01*
G75*
G02*
X45569082Y-48422227I171875J297696D01*
G01*
X46125332Y-47458773D01*
G75*
G02*
X46594903Y-47332952I297696J-171875D01*
G01*
X47190295Y-47676702D01*
G75*
G02*
X47316116Y-48146273I-171875J-297696D01*
G01*
G37*
G36*
G01*
X46456000Y-50243750D02*
X46456000Y-51356250D01*
G75*
G02*
X46112250Y-51700000I-343750J0D01*
G01*
X45424750Y-51700000D01*
G75*
G02*
X45081000Y-51356250I0J343750D01*
G01*
X45081000Y-50243750D01*
G75*
G02*
X45424750Y-49900000I343750J0D01*
G01*
X46112250Y-49900000D01*
G75*
G02*
X46456000Y-50243750I0J-343750D01*
G01*
G37*
G36*
G01*
X44581000Y-50243750D02*
X44581000Y-51356250D01*
G75*
G02*
X44237250Y-51700000I-343750J0D01*
G01*
X43549750Y-51700000D01*
G75*
G02*
X43206000Y-51356250I0J343750D01*
G01*
X43206000Y-50243750D01*
G75*
G02*
X43549750Y-49900000I343750J0D01*
G01*
X44237250Y-49900000D01*
G75*
G02*
X44581000Y-50243750I0J-343750D01*
G01*
G37*
G36*
G01*
X45136068Y-53427773D02*
X45692318Y-54391227D01*
G75*
G02*
X45566497Y-54860798I-297696J-171875D01*
G01*
X44971105Y-55204548D01*
G75*
G02*
X44501534Y-55078727I-171875J297696D01*
G01*
X43945284Y-54115273D01*
G75*
G02*
X44071105Y-53645702I297696J171875D01*
G01*
X44666497Y-53301952D01*
G75*
G02*
X45136068Y-53427773I171875J-297696D01*
G01*
G37*
G36*
G01*
X46759866Y-52490273D02*
X47316116Y-53453727D01*
G75*
G02*
X47190295Y-53923298I-297696J-171875D01*
G01*
X46594903Y-54267048D01*
G75*
G02*
X46125332Y-54141227I-171875J297696D01*
G01*
X45569082Y-53177773D01*
G75*
G02*
X45694903Y-52708202I297696J171875D01*
G01*
X46290295Y-52364452D01*
G75*
G02*
X46759866Y-52490273I171875J-297696D01*
G01*
G37*
G36*
G01*
X48146273Y-54283884D02*
X49109727Y-54840134D01*
G75*
G02*
X49235548Y-55309705I-171875J-297696D01*
G01*
X48891798Y-55905097D01*
G75*
G02*
X48422227Y-56030918I-297696J171875D01*
G01*
X47458773Y-55474668D01*
G75*
G02*
X47332952Y-55005097I171875J297696D01*
G01*
X47676702Y-54409705D01*
G75*
G02*
X48146273Y-54283884I297696J-171875D01*
G01*
G37*
G36*
G01*
X47208773Y-55907682D02*
X48172227Y-56463932D01*
G75*
G02*
X48298048Y-56933503I-171875J-297696D01*
G01*
X47954298Y-57528895D01*
G75*
G02*
X47484727Y-57654716I-297696J171875D01*
G01*
X46521273Y-57098466D01*
G75*
G02*
X46395452Y-56628895I171875J297696D01*
G01*
X46739202Y-56033503D01*
G75*
G02*
X47208773Y-55907682I297696J-171875D01*
G01*
G37*
G36*
G01*
X50243750Y-57019000D02*
X51356250Y-57019000D01*
G75*
G02*
X51700000Y-57362750I0J-343750D01*
G01*
X51700000Y-58050250D01*
G75*
G02*
X51356250Y-58394000I-343750J0D01*
G01*
X50243750Y-58394000D01*
G75*
G02*
X49900000Y-58050250I0J343750D01*
G01*
X49900000Y-57362750D01*
G75*
G02*
X50243750Y-57019000I343750J0D01*
G01*
G37*
G36*
G01*
X50243750Y-55144000D02*
X51356250Y-55144000D01*
G75*
G02*
X51700000Y-55487750I0J-343750D01*
G01*
X51700000Y-56175250D01*
G75*
G02*
X51356250Y-56519000I-343750J0D01*
G01*
X50243750Y-56519000D01*
G75*
G02*
X49900000Y-56175250I0J343750D01*
G01*
X49900000Y-55487750D01*
G75*
G02*
X50243750Y-55144000I343750J0D01*
G01*
G37*
G36*
G01*
X52490273Y-54840134D02*
X53453727Y-54283884D01*
G75*
G02*
X53923298Y-54409705I171875J-297696D01*
G01*
X54267048Y-55005097D01*
G75*
G02*
X54141227Y-55474668I-297696J-171875D01*
G01*
X53177773Y-56030918D01*
G75*
G02*
X52708202Y-55905097I-171875J297696D01*
G01*
X52364452Y-55309705D01*
G75*
G02*
X52490273Y-54840134I297696J171875D01*
G01*
G37*
G36*
G01*
X53427773Y-56463932D02*
X54391227Y-55907682D01*
G75*
G02*
X54860798Y-56033503I171875J-297696D01*
G01*
X55204548Y-56628895D01*
G75*
G02*
X55078727Y-57098466I-297696J-171875D01*
G01*
X54115273Y-57654716D01*
G75*
G02*
X53645702Y-57528895I-171875J297696D01*
G01*
X53301952Y-56933503D01*
G75*
G02*
X53427773Y-56463932I297696J171875D01*
G01*
G37*
G36*
G01*
X55907682Y-54391227D02*
X56463932Y-53427773D01*
G75*
G02*
X56933503Y-53301952I297696J-171875D01*
G01*
X57528895Y-53645702D01*
G75*
G02*
X57654716Y-54115273I-171875J-297696D01*
G01*
X57098466Y-55078727D01*
G75*
G02*
X56628895Y-55204548I-297696J171875D01*
G01*
X56033503Y-54860798D01*
G75*
G02*
X55907682Y-54391227I171875J297696D01*
G01*
G37*
G36*
G01*
X54283884Y-53453727D02*
X54840134Y-52490273D01*
G75*
G02*
X55309705Y-52364452I297696J-171875D01*
G01*
X55905097Y-52708202D01*
G75*
G02*
X56030918Y-53177773I-171875J-297696D01*
G01*
X55474668Y-54141227D01*
G75*
G02*
X55005097Y-54267048I-297696J171875D01*
G01*
X54409705Y-53923298D01*
G75*
G02*
X54283884Y-53453727I171875J297696D01*
G01*
G37*
D12*
G36*
X49901990Y-58050054D02*
G01*
X49908575Y-58116917D01*
X49928023Y-58181028D01*
X49959603Y-58240111D01*
X50002103Y-58291897D01*
X50053889Y-58334397D01*
X50112972Y-58365977D01*
X50177083Y-58385425D01*
X50243946Y-58392010D01*
X50245572Y-58393175D01*
X50245376Y-58395165D01*
X50243750Y-58396000D01*
X50187390Y-58396000D01*
X50187194Y-58395990D01*
X50126305Y-58389993D01*
X50125920Y-58389917D01*
X50073272Y-58373946D01*
X50072910Y-58373796D01*
X50024389Y-58347862D01*
X50024063Y-58347644D01*
X49981536Y-58312741D01*
X49981259Y-58312464D01*
X49946356Y-58269937D01*
X49946138Y-58269611D01*
X49920204Y-58221090D01*
X49920054Y-58220728D01*
X49904083Y-58168080D01*
X49904007Y-58167695D01*
X49898010Y-58106806D01*
X49898000Y-58106610D01*
X49898000Y-58050250D01*
X49899000Y-58048518D01*
X49901000Y-58048518D01*
X49901990Y-58050054D01*
G37*
G36*
X51701165Y-58048624D02*
G01*
X51702000Y-58050250D01*
X51702000Y-58106610D01*
X51701990Y-58106806D01*
X51695993Y-58167695D01*
X51695917Y-58168080D01*
X51679946Y-58220728D01*
X51679796Y-58221090D01*
X51653862Y-58269611D01*
X51653644Y-58269937D01*
X51618741Y-58312464D01*
X51618464Y-58312741D01*
X51575937Y-58347644D01*
X51575611Y-58347862D01*
X51527090Y-58373796D01*
X51526728Y-58373946D01*
X51474080Y-58389917D01*
X51473695Y-58389993D01*
X51412806Y-58395990D01*
X51412610Y-58396000D01*
X51356250Y-58396000D01*
X51354518Y-58395000D01*
X51354518Y-58393000D01*
X51356054Y-58392010D01*
X51422917Y-58385425D01*
X51487028Y-58365977D01*
X51546111Y-58334397D01*
X51597897Y-58291897D01*
X51640397Y-58240111D01*
X51671977Y-58181028D01*
X51691425Y-58116917D01*
X51698010Y-58050054D01*
X51699175Y-58048428D01*
X51701165Y-58048624D01*
G37*
G36*
X54604661Y-55837984D02*
G01*
X54658937Y-55846945D01*
X54659315Y-55847046D01*
X54710811Y-55866427D01*
X54711163Y-55866601D01*
X54757881Y-55895652D01*
X54758192Y-55895890D01*
X54798344Y-55933497D01*
X54798603Y-55933792D01*
X54834247Y-55983533D01*
X54834353Y-55983698D01*
X54867003Y-56040250D01*
X54867160Y-56040522D01*
X54885929Y-56073031D01*
X54887202Y-56075236D01*
X54891885Y-56083348D01*
X54891887Y-56083350D01*
X54894965Y-56088682D01*
X54900139Y-56097643D01*
X54944368Y-56174250D01*
X54976907Y-56230610D01*
X54983086Y-56241312D01*
X55012062Y-56291499D01*
X55042458Y-56344147D01*
X55070472Y-56392668D01*
X55084703Y-56417318D01*
X55095025Y-56435195D01*
X55109385Y-56460068D01*
X55111038Y-56462932D01*
X55115176Y-56470098D01*
X55127308Y-56491111D01*
X55127725Y-56491834D01*
X55130149Y-56496032D01*
X55133700Y-56502183D01*
X55139019Y-56511395D01*
X55139370Y-56512003D01*
X55142832Y-56518000D01*
X55147885Y-56526752D01*
X55162096Y-56551366D01*
X55171067Y-56566904D01*
X55195135Y-56608591D01*
X55198039Y-56613622D01*
X55206280Y-56627895D01*
X55234459Y-56676703D01*
X55234549Y-56676878D01*
X55259800Y-56732608D01*
X55259926Y-56732979D01*
X55272420Y-56786564D01*
X55272471Y-56786953D01*
X55274271Y-56841939D01*
X55274245Y-56842330D01*
X55265284Y-56896606D01*
X55265183Y-56896984D01*
X55245802Y-56948480D01*
X55245628Y-56948832D01*
X55216577Y-56995550D01*
X55216339Y-56995861D01*
X55178732Y-57036013D01*
X55178437Y-57036272D01*
X55128701Y-57071913D01*
X55128536Y-57072019D01*
X54067462Y-57684630D01*
X54067287Y-57684720D01*
X54011562Y-57709969D01*
X54011191Y-57710095D01*
X53957606Y-57722589D01*
X53957217Y-57722640D01*
X53902230Y-57724440D01*
X53901839Y-57724414D01*
X53847563Y-57715453D01*
X53847185Y-57715352D01*
X53795689Y-57695971D01*
X53795337Y-57695797D01*
X53748619Y-57666746D01*
X53748308Y-57666508D01*
X53708156Y-57628901D01*
X53707897Y-57628606D01*
X53672253Y-57578865D01*
X53672147Y-57578700D01*
X53548046Y-57363750D01*
X53509328Y-57296688D01*
X53480352Y-57246501D01*
X53472097Y-57232203D01*
X53449956Y-57193853D01*
X53437785Y-57172773D01*
X53421942Y-57145332D01*
X53407711Y-57120682D01*
X53397389Y-57102805D01*
X53395462Y-57099466D01*
X53383029Y-57077932D01*
X53379192Y-57071287D01*
X53377238Y-57067902D01*
X53372800Y-57060215D01*
X53364689Y-57046166D01*
X53362265Y-57041968D01*
X53358615Y-57035646D01*
X53353395Y-57026605D01*
X53353044Y-57025997D01*
X53349582Y-57020000D01*
X53344404Y-57011032D01*
X53335433Y-56995494D01*
X53311365Y-56953807D01*
X53308461Y-56948776D01*
X53300220Y-56934503D01*
X53272041Y-56885695D01*
X53271951Y-56885520D01*
X53246700Y-56829790D01*
X53246574Y-56829419D01*
X53234080Y-56775834D01*
X53234029Y-56775445D01*
X53232845Y-56739276D01*
X53258639Y-56739276D01*
X53260832Y-56806233D01*
X53276044Y-56871478D01*
X53303734Y-56932589D01*
X53311925Y-56946776D01*
X53314829Y-56951807D01*
X53338897Y-56993494D01*
X53347868Y-57009032D01*
X53353046Y-57018000D01*
X53356508Y-57023997D01*
X53356859Y-57024605D01*
X53362079Y-57033646D01*
X53365729Y-57039968D01*
X53368153Y-57044166D01*
X53376264Y-57058215D01*
X53380702Y-57065902D01*
X53382656Y-57069287D01*
X53386493Y-57075932D01*
X53398926Y-57097466D01*
X53400853Y-57100805D01*
X53411175Y-57118682D01*
X53425406Y-57143332D01*
X53441249Y-57170773D01*
X53453420Y-57191853D01*
X53475561Y-57230203D01*
X53483816Y-57244501D01*
X53512792Y-57294688D01*
X53551510Y-57361750D01*
X53647383Y-57527807D01*
X53686465Y-57582346D01*
X53735361Y-57628142D01*
X53792248Y-57663517D01*
X53854950Y-57687116D01*
X53921046Y-57698029D01*
X53988003Y-57695836D01*
X54053248Y-57680624D01*
X54114359Y-57652934D01*
X55077639Y-57096785D01*
X55132178Y-57057703D01*
X55177974Y-57008807D01*
X55213349Y-56951920D01*
X55236948Y-56889218D01*
X55247861Y-56823122D01*
X55245668Y-56756165D01*
X55230456Y-56690920D01*
X55202766Y-56629809D01*
X55194575Y-56615622D01*
X55191671Y-56610591D01*
X55167603Y-56568904D01*
X55158632Y-56553366D01*
X55144421Y-56528752D01*
X55139368Y-56520000D01*
X55135906Y-56514003D01*
X55135555Y-56513395D01*
X55130236Y-56504183D01*
X55126685Y-56498032D01*
X55124261Y-56493834D01*
X55123844Y-56493111D01*
X55111712Y-56472098D01*
X55107574Y-56464932D01*
X55105921Y-56462068D01*
X55091561Y-56437195D01*
X55081239Y-56419318D01*
X55067008Y-56394668D01*
X55038994Y-56346147D01*
X55008598Y-56293499D01*
X54979622Y-56243312D01*
X54973443Y-56232610D01*
X54940904Y-56176250D01*
X54896675Y-56099643D01*
X54891501Y-56090682D01*
X54888423Y-56085350D01*
X54888422Y-56085349D01*
X54883738Y-56077236D01*
X54882465Y-56075031D01*
X54863696Y-56042522D01*
X54863539Y-56042250D01*
X54859117Y-56034591D01*
X54820035Y-55980052D01*
X54771139Y-55934256D01*
X54714252Y-55898881D01*
X54651550Y-55875282D01*
X54585454Y-55864369D01*
X54518497Y-55866562D01*
X54453252Y-55881774D01*
X54392141Y-55909464D01*
X53428861Y-56465613D01*
X53374322Y-56504695D01*
X53328526Y-56553591D01*
X53293151Y-56610478D01*
X53269552Y-56673180D01*
X53258639Y-56739276D01*
X53232845Y-56739276D01*
X53232229Y-56720459D01*
X53232255Y-56720068D01*
X53241216Y-56665792D01*
X53241317Y-56665414D01*
X53260698Y-56613918D01*
X53260872Y-56613566D01*
X53289923Y-56566848D01*
X53290161Y-56566537D01*
X53327768Y-56526385D01*
X53328063Y-56526126D01*
X53377799Y-56490485D01*
X53377964Y-56490379D01*
X54439038Y-55877768D01*
X54439213Y-55877678D01*
X54494938Y-55852429D01*
X54495309Y-55852303D01*
X54548894Y-55839809D01*
X54549283Y-55839758D01*
X54604270Y-55837958D01*
X54604661Y-55837984D01*
G37*
G36*
X46397182Y-56627899D02*
G01*
X46397272Y-56629724D01*
X46369544Y-56690920D01*
X46354332Y-56756165D01*
X46352139Y-56823122D01*
X46363052Y-56889218D01*
X46386651Y-56951920D01*
X46422026Y-57008807D01*
X46467822Y-57057703D01*
X46522361Y-57096785D01*
X47485641Y-57652934D01*
X47546752Y-57680624D01*
X47611997Y-57695836D01*
X47678954Y-57698029D01*
X47745050Y-57687116D01*
X47807752Y-57663517D01*
X47864639Y-57628142D01*
X47913535Y-57582346D01*
X47952617Y-57527807D01*
X48048490Y-57361750D01*
X48050222Y-57360750D01*
X48051954Y-57361750D01*
X48051954Y-57363750D01*
X47927853Y-57578700D01*
X47927747Y-57578865D01*
X47892103Y-57628606D01*
X47891844Y-57628901D01*
X47851692Y-57666508D01*
X47851381Y-57666746D01*
X47804663Y-57695797D01*
X47804311Y-57695971D01*
X47752815Y-57715352D01*
X47752437Y-57715453D01*
X47698161Y-57724414D01*
X47697770Y-57724440D01*
X47642784Y-57722640D01*
X47642395Y-57722589D01*
X47588814Y-57710096D01*
X47588443Y-57709970D01*
X47532705Y-57684716D01*
X47532530Y-57684626D01*
X46471464Y-57072019D01*
X46471299Y-57071913D01*
X46421563Y-57036272D01*
X46421268Y-57036013D01*
X46383661Y-56995861D01*
X46383423Y-56995550D01*
X46354372Y-56948832D01*
X46354198Y-56948480D01*
X46334817Y-56896984D01*
X46334716Y-56896606D01*
X46325755Y-56842330D01*
X46325729Y-56841939D01*
X46327529Y-56786952D01*
X46327580Y-56786563D01*
X46340074Y-56732980D01*
X46340200Y-56732609D01*
X46365453Y-56676875D01*
X46365543Y-56676700D01*
X46393718Y-56627899D01*
X46395450Y-56626899D01*
X46397182Y-56627899D01*
G37*
G36*
X50245482Y-57018000D02*
G01*
X50245482Y-57020000D01*
X50243946Y-57020990D01*
X50177083Y-57027575D01*
X50112972Y-57047023D01*
X50053889Y-57078603D01*
X50002103Y-57121103D01*
X49959603Y-57172889D01*
X49928023Y-57231972D01*
X49908575Y-57296083D01*
X49901990Y-57362946D01*
X49900825Y-57364572D01*
X49898835Y-57364376D01*
X49898000Y-57362750D01*
X49898000Y-57306390D01*
X49898010Y-57306194D01*
X49904007Y-57245305D01*
X49904083Y-57244920D01*
X49920054Y-57192272D01*
X49920204Y-57191910D01*
X49946138Y-57143389D01*
X49946356Y-57143063D01*
X49981259Y-57100536D01*
X49981536Y-57100259D01*
X50024063Y-57065356D01*
X50024389Y-57065138D01*
X50072910Y-57039204D01*
X50073272Y-57039054D01*
X50125920Y-57023083D01*
X50126305Y-57023007D01*
X50187194Y-57017010D01*
X50187390Y-57017000D01*
X50243750Y-57017000D01*
X50245482Y-57018000D01*
G37*
G36*
X51412806Y-57017010D02*
G01*
X51473695Y-57023007D01*
X51474080Y-57023083D01*
X51526728Y-57039054D01*
X51527090Y-57039204D01*
X51575611Y-57065138D01*
X51575937Y-57065356D01*
X51618464Y-57100259D01*
X51618741Y-57100536D01*
X51653644Y-57143063D01*
X51653862Y-57143389D01*
X51679796Y-57191910D01*
X51679946Y-57192272D01*
X51695917Y-57244920D01*
X51695993Y-57245305D01*
X51701990Y-57306194D01*
X51702000Y-57306390D01*
X51702000Y-57362750D01*
X51701000Y-57364482D01*
X51699000Y-57364482D01*
X51698010Y-57362946D01*
X51691425Y-57296083D01*
X51671977Y-57231972D01*
X51640397Y-57172889D01*
X51597897Y-57121103D01*
X51546111Y-57078603D01*
X51487028Y-57047023D01*
X51422917Y-57027575D01*
X51356054Y-57020990D01*
X51354428Y-57019825D01*
X51354624Y-57017835D01*
X51356250Y-57017000D01*
X51412610Y-57017000D01*
X51412806Y-57017010D01*
G37*
G36*
X47050716Y-55839758D02*
G01*
X47051105Y-55839809D01*
X47104686Y-55852302D01*
X47105057Y-55852428D01*
X47160795Y-55877682D01*
X47160970Y-55877772D01*
X48222036Y-56490379D01*
X48222201Y-56490485D01*
X48271937Y-56526126D01*
X48272232Y-56526385D01*
X48309839Y-56566537D01*
X48310077Y-56566848D01*
X48339128Y-56613566D01*
X48339302Y-56613918D01*
X48358683Y-56665414D01*
X48358784Y-56665792D01*
X48367745Y-56720068D01*
X48367771Y-56720459D01*
X48365971Y-56775446D01*
X48365920Y-56775835D01*
X48353426Y-56829418D01*
X48353300Y-56829789D01*
X48328047Y-56885523D01*
X48327957Y-56885698D01*
X48299782Y-56934499D01*
X48298050Y-56935499D01*
X48296318Y-56934499D01*
X48296228Y-56932674D01*
X48323956Y-56871478D01*
X48339168Y-56806233D01*
X48341361Y-56739276D01*
X48330448Y-56673180D01*
X48306849Y-56610478D01*
X48271474Y-56553591D01*
X48225678Y-56504695D01*
X48171139Y-56465613D01*
X47207859Y-55909464D01*
X47146748Y-55881774D01*
X47081503Y-55866562D01*
X47014546Y-55864369D01*
X46948450Y-55875282D01*
X46885748Y-55898881D01*
X46828861Y-55934256D01*
X46779965Y-55980052D01*
X46740883Y-56034591D01*
X46736461Y-56042250D01*
X46734729Y-56043250D01*
X46732997Y-56042250D01*
X46732997Y-56040250D01*
X46765647Y-55983698D01*
X46765753Y-55983533D01*
X46801397Y-55933792D01*
X46801656Y-55933497D01*
X46841808Y-55895890D01*
X46842119Y-55895652D01*
X46888837Y-55866601D01*
X46889189Y-55866427D01*
X46940685Y-55847046D01*
X46941063Y-55846945D01*
X46995339Y-55837984D01*
X46995730Y-55837958D01*
X47050716Y-55839758D01*
G37*
G36*
X49901990Y-56175054D02*
G01*
X49908575Y-56241917D01*
X49928023Y-56306028D01*
X49959603Y-56365111D01*
X50002103Y-56416897D01*
X50053889Y-56459397D01*
X50112972Y-56490977D01*
X50177083Y-56510425D01*
X50243946Y-56517010D01*
X50245572Y-56518175D01*
X50245376Y-56520165D01*
X50243750Y-56521000D01*
X50187390Y-56521000D01*
X50187194Y-56520990D01*
X50126305Y-56514993D01*
X50125920Y-56514917D01*
X50073272Y-56498946D01*
X50072910Y-56498796D01*
X50024389Y-56472862D01*
X50024063Y-56472644D01*
X49981536Y-56437741D01*
X49981259Y-56437464D01*
X49946356Y-56394937D01*
X49946138Y-56394611D01*
X49920204Y-56346090D01*
X49920054Y-56345728D01*
X49904083Y-56293080D01*
X49904007Y-56292695D01*
X49898010Y-56231806D01*
X49898000Y-56231610D01*
X49898000Y-56175250D01*
X49899000Y-56173518D01*
X49901000Y-56173518D01*
X49901990Y-56175054D01*
G37*
G36*
X51701165Y-56173624D02*
G01*
X51702000Y-56175250D01*
X51702000Y-56231610D01*
X51701990Y-56231806D01*
X51695993Y-56292695D01*
X51695917Y-56293080D01*
X51679946Y-56345728D01*
X51679796Y-56346090D01*
X51653862Y-56394611D01*
X51653644Y-56394937D01*
X51618741Y-56437464D01*
X51618464Y-56437741D01*
X51575937Y-56472644D01*
X51575611Y-56472862D01*
X51527090Y-56498796D01*
X51526728Y-56498946D01*
X51474080Y-56514917D01*
X51473695Y-56514993D01*
X51412806Y-56520990D01*
X51412610Y-56521000D01*
X51356250Y-56521000D01*
X51354518Y-56520000D01*
X51354518Y-56518000D01*
X51356054Y-56517010D01*
X51422917Y-56510425D01*
X51487028Y-56490977D01*
X51546111Y-56459397D01*
X51597897Y-56416897D01*
X51640397Y-56365111D01*
X51671977Y-56306028D01*
X51691425Y-56241917D01*
X51698010Y-56175054D01*
X51699175Y-56173428D01*
X51701165Y-56173624D01*
G37*
G36*
X54268780Y-55004097D02*
G01*
X54296959Y-55052905D01*
X54297049Y-55053080D01*
X54322300Y-55108810D01*
X54322426Y-55109181D01*
X54334920Y-55162766D01*
X54334971Y-55163155D01*
X54336771Y-55218141D01*
X54336745Y-55218532D01*
X54327784Y-55272808D01*
X54327683Y-55273186D01*
X54308302Y-55324682D01*
X54308128Y-55325034D01*
X54279077Y-55371752D01*
X54278839Y-55372063D01*
X54241232Y-55412215D01*
X54240937Y-55412474D01*
X54191201Y-55448115D01*
X54191036Y-55448221D01*
X53129962Y-56060832D01*
X53129787Y-56060922D01*
X53074062Y-56086171D01*
X53073691Y-56086297D01*
X53020106Y-56098791D01*
X53019717Y-56098842D01*
X52964730Y-56100642D01*
X52964339Y-56100616D01*
X52910063Y-56091655D01*
X52909685Y-56091554D01*
X52858189Y-56072173D01*
X52857837Y-56071999D01*
X52811119Y-56042948D01*
X52810808Y-56042710D01*
X52770656Y-56005103D01*
X52770397Y-56004808D01*
X52734753Y-55955067D01*
X52734647Y-55954902D01*
X52701997Y-55898350D01*
X52701997Y-55896350D01*
X52703729Y-55895350D01*
X52705461Y-55896350D01*
X52709883Y-55904009D01*
X52748965Y-55958548D01*
X52797861Y-56004344D01*
X52854748Y-56039719D01*
X52917450Y-56063318D01*
X52983546Y-56074231D01*
X53050503Y-56072038D01*
X53115748Y-56056826D01*
X53176859Y-56029136D01*
X54140139Y-55472987D01*
X54194678Y-55433905D01*
X54240474Y-55385009D01*
X54275849Y-55328122D01*
X54299448Y-55265420D01*
X54310361Y-55199324D01*
X54308168Y-55132367D01*
X54292956Y-55067122D01*
X54265226Y-55005922D01*
X54265422Y-55003932D01*
X54267244Y-55003107D01*
X54268780Y-55004097D01*
G37*
G36*
X47334682Y-55004101D02*
G01*
X47334772Y-55005926D01*
X47307044Y-55067122D01*
X47291832Y-55132367D01*
X47289639Y-55199324D01*
X47300552Y-55265420D01*
X47324151Y-55328122D01*
X47359526Y-55385009D01*
X47405322Y-55433905D01*
X47459861Y-55472987D01*
X48423141Y-56029136D01*
X48484252Y-56056826D01*
X48549497Y-56072038D01*
X48616454Y-56074231D01*
X48682550Y-56063318D01*
X48745252Y-56039719D01*
X48802139Y-56004344D01*
X48851035Y-55958548D01*
X48890117Y-55904009D01*
X48894539Y-55896350D01*
X48896271Y-55895350D01*
X48898003Y-55896350D01*
X48898003Y-55898350D01*
X48865353Y-55954902D01*
X48865247Y-55955067D01*
X48829603Y-56004808D01*
X48829344Y-56005103D01*
X48789192Y-56042710D01*
X48788881Y-56042948D01*
X48742163Y-56071999D01*
X48741811Y-56072173D01*
X48690315Y-56091554D01*
X48689937Y-56091655D01*
X48635661Y-56100616D01*
X48635270Y-56100642D01*
X48580284Y-56098842D01*
X48579895Y-56098791D01*
X48526314Y-56086298D01*
X48525943Y-56086172D01*
X48470205Y-56060918D01*
X48470030Y-56060828D01*
X47408964Y-55448221D01*
X47408799Y-55448115D01*
X47359063Y-55412474D01*
X47358768Y-55412215D01*
X47321161Y-55372063D01*
X47320923Y-55371752D01*
X47291872Y-55325034D01*
X47291698Y-55324682D01*
X47272317Y-55273186D01*
X47272216Y-55272808D01*
X47263255Y-55218532D01*
X47263229Y-55218141D01*
X47265029Y-55163154D01*
X47265080Y-55162765D01*
X47277574Y-55109182D01*
X47277700Y-55108811D01*
X47302953Y-55053077D01*
X47303043Y-55052902D01*
X47331218Y-55004101D01*
X47332950Y-55003101D01*
X47334682Y-55004101D01*
G37*
G36*
X50245482Y-55143000D02*
G01*
X50245482Y-55145000D01*
X50243946Y-55145990D01*
X50177083Y-55152575D01*
X50112972Y-55172023D01*
X50053889Y-55203603D01*
X50002103Y-55246103D01*
X49959603Y-55297889D01*
X49928023Y-55356972D01*
X49908575Y-55421083D01*
X49901990Y-55487946D01*
X49900825Y-55489572D01*
X49898835Y-55489376D01*
X49898000Y-55487750D01*
X49898000Y-55431390D01*
X49898010Y-55431194D01*
X49904007Y-55370305D01*
X49904083Y-55369920D01*
X49920054Y-55317272D01*
X49920204Y-55316910D01*
X49946138Y-55268389D01*
X49946356Y-55268063D01*
X49981259Y-55225536D01*
X49981536Y-55225259D01*
X50024063Y-55190356D01*
X50024389Y-55190138D01*
X50072910Y-55164204D01*
X50073272Y-55164054D01*
X50125920Y-55148083D01*
X50126305Y-55148007D01*
X50187194Y-55142010D01*
X50187390Y-55142000D01*
X50243750Y-55142000D01*
X50245482Y-55143000D01*
G37*
G36*
X51412806Y-55142010D02*
G01*
X51473695Y-55148007D01*
X51474080Y-55148083D01*
X51526728Y-55164054D01*
X51527090Y-55164204D01*
X51575611Y-55190138D01*
X51575937Y-55190356D01*
X51618464Y-55225259D01*
X51618741Y-55225536D01*
X51653644Y-55268063D01*
X51653862Y-55268389D01*
X51679796Y-55316910D01*
X51679946Y-55317272D01*
X51695917Y-55369920D01*
X51695993Y-55370305D01*
X51701990Y-55431194D01*
X51702000Y-55431390D01*
X51702000Y-55487750D01*
X51701000Y-55489482D01*
X51699000Y-55489482D01*
X51698010Y-55487946D01*
X51691425Y-55421083D01*
X51671977Y-55356972D01*
X51640397Y-55297889D01*
X51597897Y-55246103D01*
X51546111Y-55203603D01*
X51487028Y-55172023D01*
X51422917Y-55152575D01*
X51356054Y-55145990D01*
X51354428Y-55144825D01*
X51354624Y-55142835D01*
X51356250Y-55142000D01*
X51412610Y-55142000D01*
X51412806Y-55142010D01*
G37*
G36*
X47988216Y-54215960D02*
G01*
X47988605Y-54216011D01*
X48042186Y-54228504D01*
X48042557Y-54228630D01*
X48098295Y-54253884D01*
X48098470Y-54253974D01*
X49159536Y-54866581D01*
X49159701Y-54866687D01*
X49209437Y-54902328D01*
X49209732Y-54902587D01*
X49247339Y-54942739D01*
X49247577Y-54943050D01*
X49276628Y-54989768D01*
X49276802Y-54990120D01*
X49296183Y-55041616D01*
X49296284Y-55041994D01*
X49305245Y-55096270D01*
X49305271Y-55096661D01*
X49303471Y-55151648D01*
X49303420Y-55152037D01*
X49290926Y-55205620D01*
X49290800Y-55205991D01*
X49265547Y-55261725D01*
X49265457Y-55261900D01*
X49237282Y-55310701D01*
X49235550Y-55311701D01*
X49233818Y-55310701D01*
X49233728Y-55308876D01*
X49261456Y-55247680D01*
X49276668Y-55182435D01*
X49278861Y-55115478D01*
X49267948Y-55049382D01*
X49244349Y-54986680D01*
X49208974Y-54929793D01*
X49163178Y-54880897D01*
X49108639Y-54841815D01*
X48145359Y-54285666D01*
X48084248Y-54257976D01*
X48019003Y-54242764D01*
X47952046Y-54240571D01*
X47885950Y-54251484D01*
X47823248Y-54275083D01*
X47766361Y-54310458D01*
X47717465Y-54356254D01*
X47678383Y-54410793D01*
X47660921Y-54441038D01*
X47659189Y-54442038D01*
X47657457Y-54441038D01*
X47657457Y-54439038D01*
X47703147Y-54359900D01*
X47703253Y-54359735D01*
X47738897Y-54309994D01*
X47739156Y-54309699D01*
X47779308Y-54272092D01*
X47779619Y-54271854D01*
X47826337Y-54242803D01*
X47826689Y-54242629D01*
X47878185Y-54223248D01*
X47878563Y-54223147D01*
X47932839Y-54214186D01*
X47933230Y-54214160D01*
X47988216Y-54215960D01*
G37*
G36*
X53667161Y-54214186D02*
G01*
X53721437Y-54223147D01*
X53721815Y-54223248D01*
X53773311Y-54242629D01*
X53773663Y-54242803D01*
X53820381Y-54271854D01*
X53820692Y-54272092D01*
X53860844Y-54309699D01*
X53861103Y-54309994D01*
X53896747Y-54359735D01*
X53896853Y-54359900D01*
X53942543Y-54439038D01*
X53942543Y-54441038D01*
X53940811Y-54442038D01*
X53939079Y-54441038D01*
X53921617Y-54410793D01*
X53882535Y-54356254D01*
X53833639Y-54310458D01*
X53776752Y-54275083D01*
X53714050Y-54251484D01*
X53647954Y-54240571D01*
X53580997Y-54242764D01*
X53515752Y-54257976D01*
X53454641Y-54285666D01*
X52491361Y-54841815D01*
X52436822Y-54880897D01*
X52391026Y-54929793D01*
X52355651Y-54986680D01*
X52332052Y-55049382D01*
X52321139Y-55115478D01*
X52323332Y-55182435D01*
X52338544Y-55247680D01*
X52366273Y-55308878D01*
X52366077Y-55310868D01*
X52364255Y-55311693D01*
X52362719Y-55310703D01*
X52334541Y-55261897D01*
X52334451Y-55261722D01*
X52309200Y-55205992D01*
X52309074Y-55205621D01*
X52296580Y-55152036D01*
X52296529Y-55151647D01*
X52294729Y-55096661D01*
X52294755Y-55096270D01*
X52303716Y-55041994D01*
X52303817Y-55041616D01*
X52323198Y-54990120D01*
X52323372Y-54989768D01*
X52352423Y-54943050D01*
X52352661Y-54942739D01*
X52390268Y-54902587D01*
X52390563Y-54902328D01*
X52440299Y-54866687D01*
X52440464Y-54866581D01*
X53501538Y-54253970D01*
X53501713Y-54253880D01*
X53557438Y-54228631D01*
X53557809Y-54228505D01*
X53611394Y-54216011D01*
X53611783Y-54215960D01*
X53666770Y-54214160D01*
X53667161Y-54214186D01*
G37*
G36*
X44496193Y-55065477D02*
G01*
X44503215Y-55077639D01*
X44542297Y-55132178D01*
X44591193Y-55177974D01*
X44648080Y-55213349D01*
X44710782Y-55236948D01*
X44776878Y-55247861D01*
X44843835Y-55245668D01*
X44909080Y-55230456D01*
X44970280Y-55202726D01*
X44972270Y-55202922D01*
X44973095Y-55204744D01*
X44972105Y-55206280D01*
X44923297Y-55234459D01*
X44923122Y-55234549D01*
X44867392Y-55259800D01*
X44867021Y-55259926D01*
X44813436Y-55272420D01*
X44813047Y-55272471D01*
X44758061Y-55274271D01*
X44757670Y-55274245D01*
X44703394Y-55265284D01*
X44703016Y-55265183D01*
X44651520Y-55245802D01*
X44651168Y-55245628D01*
X44604450Y-55216577D01*
X44604139Y-55216339D01*
X44563987Y-55178732D01*
X44563728Y-55178437D01*
X44528087Y-55128701D01*
X44527981Y-55128536D01*
X44492729Y-55067477D01*
X44492729Y-55065477D01*
X44494461Y-55064477D01*
X44496193Y-55065477D01*
G37*
G36*
X57578700Y-53672147D02*
G01*
X57578865Y-53672253D01*
X57628606Y-53707897D01*
X57628901Y-53708156D01*
X57666508Y-53748308D01*
X57666746Y-53748619D01*
X57695797Y-53795337D01*
X57695971Y-53795689D01*
X57715352Y-53847185D01*
X57715453Y-53847563D01*
X57724414Y-53901839D01*
X57724440Y-53902230D01*
X57722640Y-53957216D01*
X57722589Y-53957605D01*
X57710096Y-54011186D01*
X57709970Y-54011557D01*
X57684716Y-54067295D01*
X57684626Y-54067470D01*
X57107271Y-55067477D01*
X57072019Y-55128536D01*
X57071913Y-55128701D01*
X57036272Y-55178437D01*
X57036013Y-55178732D01*
X56995861Y-55216339D01*
X56995550Y-55216577D01*
X56948832Y-55245628D01*
X56948480Y-55245802D01*
X56896984Y-55265183D01*
X56896606Y-55265284D01*
X56842330Y-55274245D01*
X56841939Y-55274271D01*
X56786952Y-55272471D01*
X56786563Y-55272420D01*
X56732980Y-55259926D01*
X56732609Y-55259800D01*
X56676875Y-55234547D01*
X56676700Y-55234457D01*
X56627899Y-55206282D01*
X56626899Y-55204550D01*
X56627899Y-55202818D01*
X56629724Y-55202728D01*
X56690920Y-55230456D01*
X56756165Y-55245668D01*
X56823122Y-55247861D01*
X56889218Y-55236948D01*
X56951920Y-55213349D01*
X57008807Y-55177974D01*
X57057703Y-55132178D01*
X57096785Y-55077639D01*
X57103807Y-55065477D01*
X57652934Y-54114359D01*
X57680624Y-54053248D01*
X57695836Y-53988003D01*
X57698029Y-53921046D01*
X57687116Y-53854950D01*
X57663517Y-53792248D01*
X57628142Y-53735361D01*
X57582346Y-53686465D01*
X57527807Y-53647383D01*
X57376455Y-53560000D01*
X57375455Y-53558268D01*
X57376455Y-53556536D01*
X57378455Y-53556536D01*
X57578700Y-53672147D01*
G37*
G36*
X56775446Y-53234029D02*
G01*
X56775835Y-53234080D01*
X56829418Y-53246574D01*
X56829789Y-53246700D01*
X56885523Y-53271953D01*
X56885698Y-53272043D01*
X56934499Y-53300218D01*
X56935499Y-53301950D01*
X56934499Y-53303682D01*
X56932674Y-53303772D01*
X56871478Y-53276044D01*
X56806233Y-53260832D01*
X56739276Y-53258639D01*
X56673180Y-53269552D01*
X56610478Y-53293151D01*
X56553591Y-53328526D01*
X56504695Y-53374322D01*
X56465613Y-53428861D01*
X56450679Y-53454727D01*
X55909464Y-54392141D01*
X55881774Y-54453252D01*
X55866562Y-54518497D01*
X55864369Y-54585454D01*
X55875282Y-54651550D01*
X55898881Y-54714252D01*
X55934256Y-54771139D01*
X55980052Y-54820035D01*
X56034591Y-54859117D01*
X56109251Y-54902222D01*
X56110251Y-54903954D01*
X56109251Y-54905686D01*
X56107251Y-54905686D01*
X55983698Y-54834353D01*
X55983533Y-54834247D01*
X55933792Y-54798603D01*
X55933497Y-54798344D01*
X55895890Y-54758192D01*
X55895652Y-54757881D01*
X55866601Y-54711163D01*
X55866427Y-54710811D01*
X55847046Y-54659315D01*
X55846945Y-54658937D01*
X55837984Y-54604661D01*
X55837958Y-54604270D01*
X55839758Y-54549284D01*
X55839809Y-54548895D01*
X55852302Y-54495314D01*
X55852428Y-54494943D01*
X55877682Y-54439205D01*
X55877772Y-54439030D01*
X56447215Y-53452727D01*
X56490379Y-53377964D01*
X56490485Y-53377799D01*
X56526126Y-53328063D01*
X56526385Y-53327768D01*
X56566537Y-53290161D01*
X56566848Y-53289923D01*
X56613566Y-53260872D01*
X56613918Y-53260698D01*
X56665414Y-53241317D01*
X56665792Y-53241216D01*
X56720068Y-53232255D01*
X56720459Y-53232229D01*
X56775446Y-53234029D01*
G37*
G36*
X45632076Y-54282884D02*
G01*
X45722232Y-54439038D01*
X45722322Y-54439213D01*
X45747571Y-54494938D01*
X45747697Y-54495309D01*
X45760191Y-54548894D01*
X45760242Y-54549283D01*
X45762042Y-54604270D01*
X45762016Y-54604661D01*
X45753055Y-54658937D01*
X45752954Y-54659315D01*
X45733573Y-54710811D01*
X45733399Y-54711163D01*
X45704348Y-54757881D01*
X45704110Y-54758192D01*
X45666503Y-54798344D01*
X45666208Y-54798603D01*
X45616467Y-54834247D01*
X45616302Y-54834353D01*
X45492749Y-54905686D01*
X45490749Y-54905686D01*
X45489749Y-54903954D01*
X45490749Y-54902222D01*
X45565409Y-54859117D01*
X45619948Y-54820035D01*
X45665744Y-54771139D01*
X45701119Y-54714252D01*
X45724718Y-54651550D01*
X45735631Y-54585454D01*
X45733438Y-54518497D01*
X45718226Y-54453252D01*
X45690536Y-54392141D01*
X45628612Y-54284884D01*
X45628612Y-54282884D01*
X45630344Y-54281884D01*
X45632076Y-54282884D01*
G37*
G36*
X46112079Y-54114273D02*
G01*
X46127013Y-54140139D01*
X46166095Y-54194678D01*
X46214991Y-54240474D01*
X46271878Y-54275849D01*
X46334580Y-54299448D01*
X46400676Y-54310361D01*
X46467633Y-54308168D01*
X46532878Y-54292956D01*
X46594078Y-54265226D01*
X46596068Y-54265422D01*
X46596893Y-54267244D01*
X46595903Y-54268780D01*
X46547095Y-54296959D01*
X46546920Y-54297049D01*
X46491190Y-54322300D01*
X46490819Y-54322426D01*
X46437234Y-54334920D01*
X46436845Y-54334971D01*
X46381859Y-54336771D01*
X46381468Y-54336745D01*
X46327192Y-54327784D01*
X46326814Y-54327683D01*
X46275318Y-54308302D01*
X46274966Y-54308128D01*
X46228248Y-54279077D01*
X46227937Y-54278839D01*
X46187785Y-54241232D01*
X46187526Y-54240937D01*
X46151885Y-54191201D01*
X46151779Y-54191036D01*
X46108615Y-54116273D01*
X46108615Y-54114273D01*
X46110347Y-54113273D01*
X46112079Y-54114273D01*
G37*
G36*
X55954902Y-52734647D02*
G01*
X55955067Y-52734753D01*
X56004808Y-52770397D01*
X56005103Y-52770656D01*
X56042710Y-52810808D01*
X56042948Y-52811119D01*
X56071999Y-52857837D01*
X56072173Y-52858189D01*
X56091554Y-52909685D01*
X56091655Y-52910063D01*
X56100616Y-52964339D01*
X56100642Y-52964730D01*
X56098842Y-53019716D01*
X56098791Y-53020105D01*
X56086298Y-53073686D01*
X56086172Y-53074057D01*
X56060918Y-53129795D01*
X56060828Y-53129970D01*
X55491385Y-54116273D01*
X55448221Y-54191036D01*
X55448115Y-54191201D01*
X55412474Y-54240937D01*
X55412215Y-54241232D01*
X55372063Y-54278839D01*
X55371752Y-54279077D01*
X55325034Y-54308128D01*
X55324682Y-54308302D01*
X55273186Y-54327683D01*
X55272808Y-54327784D01*
X55218532Y-54336745D01*
X55218141Y-54336771D01*
X55163154Y-54334971D01*
X55162765Y-54334920D01*
X55109182Y-54322426D01*
X55108811Y-54322300D01*
X55053077Y-54297047D01*
X55052902Y-54296957D01*
X55004101Y-54268782D01*
X55003101Y-54267050D01*
X55004101Y-54265318D01*
X55005926Y-54265228D01*
X55067122Y-54292956D01*
X55132367Y-54308168D01*
X55199324Y-54310361D01*
X55265420Y-54299448D01*
X55328122Y-54275849D01*
X55385009Y-54240474D01*
X55433905Y-54194678D01*
X55472987Y-54140139D01*
X55487921Y-54114273D01*
X56029136Y-53176859D01*
X56056826Y-53115748D01*
X56072038Y-53050503D01*
X56074231Y-52983546D01*
X56063318Y-52917450D01*
X56039719Y-52854748D01*
X56004344Y-52797861D01*
X55958548Y-52748965D01*
X55904009Y-52709883D01*
X55526633Y-52492005D01*
X55525633Y-52490273D01*
X55526633Y-52488541D01*
X55528633Y-52488541D01*
X55954902Y-52734647D01*
G37*
G36*
X44299054Y-53515250D02*
G01*
X44298054Y-53516982D01*
X44072193Y-53647383D01*
X44017654Y-53686465D01*
X43971858Y-53735361D01*
X43936483Y-53792248D01*
X43912884Y-53854950D01*
X43901971Y-53921046D01*
X43904164Y-53988003D01*
X43919376Y-54053248D01*
X43947066Y-54114359D01*
X44018895Y-54238772D01*
X44018895Y-54240772D01*
X44017163Y-54241772D01*
X44015431Y-54240772D01*
X43915370Y-54067462D01*
X43915280Y-54067287D01*
X43890031Y-54011562D01*
X43889905Y-54011191D01*
X43877411Y-53957606D01*
X43877360Y-53957217D01*
X43875560Y-53902230D01*
X43875586Y-53901839D01*
X43884547Y-53847563D01*
X43884648Y-53847185D01*
X43904029Y-53795689D01*
X43904203Y-53795337D01*
X43933254Y-53748619D01*
X43933492Y-53748308D01*
X43971099Y-53708156D01*
X43971394Y-53707897D01*
X44021135Y-53672253D01*
X44021300Y-53672147D01*
X44296054Y-53513518D01*
X44298054Y-53513518D01*
X44299054Y-53515250D01*
G37*
G36*
X47245969Y-53328228D02*
G01*
X47346030Y-53501538D01*
X47346120Y-53501713D01*
X47371369Y-53557438D01*
X47371495Y-53557809D01*
X47383989Y-53611394D01*
X47384040Y-53611783D01*
X47385840Y-53666770D01*
X47385814Y-53667161D01*
X47376853Y-53721437D01*
X47376752Y-53721815D01*
X47357371Y-53773311D01*
X47357197Y-53773663D01*
X47328146Y-53820381D01*
X47327908Y-53820692D01*
X47290301Y-53860844D01*
X47290006Y-53861103D01*
X47240265Y-53896747D01*
X47240100Y-53896853D01*
X46965098Y-54055625D01*
X46963098Y-54055625D01*
X46962098Y-54053893D01*
X46963098Y-54052161D01*
X47189207Y-53921617D01*
X47243746Y-53882535D01*
X47289542Y-53833639D01*
X47324917Y-53776752D01*
X47348516Y-53714050D01*
X47359429Y-53647954D01*
X47357236Y-53580997D01*
X47342024Y-53515752D01*
X47314334Y-53454641D01*
X47242505Y-53330228D01*
X47242505Y-53328228D01*
X47244237Y-53327228D01*
X47245969Y-53328228D01*
G37*
G36*
X55151648Y-52296529D02*
G01*
X55152037Y-52296580D01*
X55205620Y-52309074D01*
X55205991Y-52309200D01*
X55261725Y-52334453D01*
X55261900Y-52334543D01*
X55310701Y-52362718D01*
X55311701Y-52364450D01*
X55310701Y-52366182D01*
X55308876Y-52366272D01*
X55247680Y-52338544D01*
X55182435Y-52323332D01*
X55115478Y-52321139D01*
X55049382Y-52332052D01*
X54986680Y-52355651D01*
X54929793Y-52391026D01*
X54880897Y-52436822D01*
X54841815Y-52491361D01*
X54285666Y-53454641D01*
X54257976Y-53515752D01*
X54242764Y-53580997D01*
X54240571Y-53647954D01*
X54251484Y-53714050D01*
X54275083Y-53776752D01*
X54310458Y-53833639D01*
X54356254Y-53882535D01*
X54410793Y-53921617D01*
X54562145Y-54009000D01*
X54563145Y-54010732D01*
X54562145Y-54012464D01*
X54560145Y-54012464D01*
X54359900Y-53896853D01*
X54359735Y-53896747D01*
X54309994Y-53861103D01*
X54309699Y-53860844D01*
X54272092Y-53820692D01*
X54271854Y-53820381D01*
X54242803Y-53773663D01*
X54242629Y-53773311D01*
X54223248Y-53721815D01*
X54223147Y-53721437D01*
X54214186Y-53667161D01*
X54214160Y-53666770D01*
X54215960Y-53611784D01*
X54216011Y-53611395D01*
X54228504Y-53557814D01*
X54228630Y-53557443D01*
X54253884Y-53501705D01*
X54253974Y-53501530D01*
X54866581Y-52440464D01*
X54866687Y-52440299D01*
X54902328Y-52390563D01*
X54902587Y-52390268D01*
X54942739Y-52352661D01*
X54943050Y-52352423D01*
X54989768Y-52323372D01*
X54990120Y-52323198D01*
X55041616Y-52303817D01*
X55041994Y-52303716D01*
X55096270Y-52294755D01*
X55096661Y-52294729D01*
X55151648Y-52296529D01*
G37*
G36*
X59082990Y-53515054D02*
G01*
X59089575Y-53581917D01*
X59109023Y-53646028D01*
X59140603Y-53705111D01*
X59183103Y-53756897D01*
X59234889Y-53799397D01*
X59293972Y-53830977D01*
X59358083Y-53850425D01*
X59424946Y-53857010D01*
X59426572Y-53858175D01*
X59426376Y-53860165D01*
X59424750Y-53861000D01*
X59368390Y-53861000D01*
X59368194Y-53860990D01*
X59307305Y-53854993D01*
X59306920Y-53854917D01*
X59254272Y-53838946D01*
X59253910Y-53838796D01*
X59205389Y-53812862D01*
X59205063Y-53812644D01*
X59162536Y-53777741D01*
X59162259Y-53777464D01*
X59127356Y-53734937D01*
X59127138Y-53734611D01*
X59101204Y-53686090D01*
X59101054Y-53685728D01*
X59085083Y-53633080D01*
X59085007Y-53632695D01*
X59079010Y-53571806D01*
X59079000Y-53571610D01*
X59079000Y-53515250D01*
X59080000Y-53513518D01*
X59082000Y-53513518D01*
X59082990Y-53515054D01*
G37*
G36*
X62332165Y-53513624D02*
G01*
X62333000Y-53515250D01*
X62333000Y-53571610D01*
X62332990Y-53571806D01*
X62326993Y-53632695D01*
X62326917Y-53633080D01*
X62310946Y-53685728D01*
X62310796Y-53686090D01*
X62284862Y-53734611D01*
X62284644Y-53734937D01*
X62249741Y-53777464D01*
X62249464Y-53777741D01*
X62206937Y-53812644D01*
X62206611Y-53812862D01*
X62158090Y-53838796D01*
X62157728Y-53838946D01*
X62105080Y-53854917D01*
X62104695Y-53854993D01*
X62043806Y-53860990D01*
X62043610Y-53861000D01*
X61987250Y-53861000D01*
X61985518Y-53860000D01*
X61985518Y-53858000D01*
X61987054Y-53857010D01*
X62053917Y-53850425D01*
X62118028Y-53830977D01*
X62177111Y-53799397D01*
X62228897Y-53756897D01*
X62271397Y-53705111D01*
X62302977Y-53646028D01*
X62322425Y-53581917D01*
X62329010Y-53515054D01*
X62330175Y-53513428D01*
X62332165Y-53513624D01*
G37*
G36*
X60957990Y-53515054D02*
G01*
X60964575Y-53581917D01*
X60984023Y-53646028D01*
X61015603Y-53705111D01*
X61058103Y-53756897D01*
X61109889Y-53799397D01*
X61168972Y-53830977D01*
X61233083Y-53850425D01*
X61299946Y-53857010D01*
X61301572Y-53858175D01*
X61301376Y-53860165D01*
X61299750Y-53861000D01*
X61243390Y-53861000D01*
X61243194Y-53860990D01*
X61182305Y-53854993D01*
X61181920Y-53854917D01*
X61129272Y-53838946D01*
X61128910Y-53838796D01*
X61080389Y-53812862D01*
X61080063Y-53812644D01*
X61037536Y-53777741D01*
X61037259Y-53777464D01*
X61002356Y-53734937D01*
X61002138Y-53734611D01*
X60976204Y-53686090D01*
X60976054Y-53685728D01*
X60960083Y-53633080D01*
X60960007Y-53632695D01*
X60954010Y-53571806D01*
X60954000Y-53571610D01*
X60954000Y-53515250D01*
X60955000Y-53513518D01*
X60957000Y-53513518D01*
X60957990Y-53515054D01*
G37*
G36*
X60457165Y-53513624D02*
G01*
X60458000Y-53515250D01*
X60458000Y-53571610D01*
X60457990Y-53571806D01*
X60451993Y-53632695D01*
X60451917Y-53633080D01*
X60435946Y-53685728D01*
X60435796Y-53686090D01*
X60409862Y-53734611D01*
X60409644Y-53734937D01*
X60374741Y-53777464D01*
X60374464Y-53777741D01*
X60331937Y-53812644D01*
X60331611Y-53812862D01*
X60283090Y-53838796D01*
X60282728Y-53838946D01*
X60230080Y-53854917D01*
X60229695Y-53854993D01*
X60168806Y-53860990D01*
X60168610Y-53861000D01*
X60112250Y-53861000D01*
X60110518Y-53860000D01*
X60110518Y-53858000D01*
X60112054Y-53857010D01*
X60178917Y-53850425D01*
X60243028Y-53830977D01*
X60302111Y-53799397D01*
X60353897Y-53756897D01*
X60396397Y-53705111D01*
X60427977Y-53646028D01*
X60447425Y-53581917D01*
X60454010Y-53515054D01*
X60455175Y-53513428D01*
X60457165Y-53513624D01*
G37*
G36*
X44879932Y-53232255D02*
G01*
X44934208Y-53241216D01*
X44934586Y-53241317D01*
X44986082Y-53260698D01*
X44986434Y-53260872D01*
X45033152Y-53289923D01*
X45033463Y-53290161D01*
X45073615Y-53327768D01*
X45073874Y-53328063D01*
X45109515Y-53377799D01*
X45109621Y-53377964D01*
X45152785Y-53452727D01*
X45152785Y-53454727D01*
X45151053Y-53455727D01*
X45149321Y-53454727D01*
X45134387Y-53428861D01*
X45095305Y-53374322D01*
X45046409Y-53328526D01*
X44989522Y-53293151D01*
X44926820Y-53269552D01*
X44860724Y-53258639D01*
X44793767Y-53260832D01*
X44728522Y-53276044D01*
X44667324Y-53303773D01*
X44665334Y-53303577D01*
X44664509Y-53301755D01*
X44665499Y-53300219D01*
X44714305Y-53272041D01*
X44714480Y-53271951D01*
X44770210Y-53246700D01*
X44770581Y-53246574D01*
X44824166Y-53234080D01*
X44824555Y-53234029D01*
X44879541Y-53232229D01*
X44879932Y-53232255D01*
G37*
G36*
X46074367Y-52490273D02*
G01*
X46073367Y-52492005D01*
X45695991Y-52709883D01*
X45641452Y-52748965D01*
X45595656Y-52797861D01*
X45560281Y-52854748D01*
X45536682Y-52917450D01*
X45525769Y-52983546D01*
X45527962Y-53050503D01*
X45543174Y-53115748D01*
X45570864Y-53176859D01*
X45715151Y-53426773D01*
X45715151Y-53428773D01*
X45713419Y-53429773D01*
X45711687Y-53428773D01*
X45539168Y-53129962D01*
X45539078Y-53129787D01*
X45513829Y-53074062D01*
X45513703Y-53073691D01*
X45501209Y-53020106D01*
X45501158Y-53019717D01*
X45499358Y-52964730D01*
X45499384Y-52964339D01*
X45508345Y-52910063D01*
X45508446Y-52909685D01*
X45527827Y-52858189D01*
X45528001Y-52857837D01*
X45557052Y-52811119D01*
X45557290Y-52810808D01*
X45594897Y-52770656D01*
X45595192Y-52770397D01*
X45644933Y-52734753D01*
X45645098Y-52734647D01*
X46071367Y-52488541D01*
X46073367Y-52488541D01*
X46074367Y-52490273D01*
G37*
G36*
X46503730Y-52294755D02*
G01*
X46558006Y-52303716D01*
X46558384Y-52303817D01*
X46609880Y-52323198D01*
X46610232Y-52323372D01*
X46656950Y-52352423D01*
X46657261Y-52352661D01*
X46697413Y-52390268D01*
X46697672Y-52390563D01*
X46733313Y-52440299D01*
X46733419Y-52440464D01*
X47085199Y-53049766D01*
X47085199Y-53051766D01*
X47083467Y-53052766D01*
X47081735Y-53051766D01*
X46758185Y-52491361D01*
X46719103Y-52436822D01*
X46670207Y-52391026D01*
X46613320Y-52355651D01*
X46550618Y-52332052D01*
X46484522Y-52321139D01*
X46417565Y-52323332D01*
X46352320Y-52338544D01*
X46291122Y-52366273D01*
X46289132Y-52366077D01*
X46288307Y-52364255D01*
X46289297Y-52362719D01*
X46338103Y-52334541D01*
X46338278Y-52334451D01*
X46394008Y-52309200D01*
X46394379Y-52309074D01*
X46447964Y-52296580D01*
X46448353Y-52296529D01*
X46503339Y-52294729D01*
X46503730Y-52294755D01*
G37*
G36*
X59426482Y-52058000D02*
G01*
X59426482Y-52060000D01*
X59424946Y-52060990D01*
X59358083Y-52067575D01*
X59293972Y-52087023D01*
X59234889Y-52118603D01*
X59183103Y-52161103D01*
X59140603Y-52212889D01*
X59109023Y-52271972D01*
X59089575Y-52336083D01*
X59082990Y-52402946D01*
X59081825Y-52404572D01*
X59079835Y-52404376D01*
X59079000Y-52402750D01*
X59079000Y-52346390D01*
X59079010Y-52346194D01*
X59085007Y-52285305D01*
X59085083Y-52284920D01*
X59101054Y-52232272D01*
X59101204Y-52231910D01*
X59127138Y-52183389D01*
X59127356Y-52183063D01*
X59162259Y-52140536D01*
X59162536Y-52140259D01*
X59205063Y-52105356D01*
X59205389Y-52105138D01*
X59253910Y-52079204D01*
X59254272Y-52079054D01*
X59306920Y-52063083D01*
X59307305Y-52063007D01*
X59368194Y-52057010D01*
X59368390Y-52057000D01*
X59424750Y-52057000D01*
X59426482Y-52058000D01*
G37*
G36*
X61301482Y-52058000D02*
G01*
X61301482Y-52060000D01*
X61299946Y-52060990D01*
X61233083Y-52067575D01*
X61168972Y-52087023D01*
X61109889Y-52118603D01*
X61058103Y-52161103D01*
X61015603Y-52212889D01*
X60984023Y-52271972D01*
X60964575Y-52336083D01*
X60957990Y-52402946D01*
X60956825Y-52404572D01*
X60954835Y-52404376D01*
X60954000Y-52402750D01*
X60954000Y-52346390D01*
X60954010Y-52346194D01*
X60960007Y-52285305D01*
X60960083Y-52284920D01*
X60976054Y-52232272D01*
X60976204Y-52231910D01*
X61002138Y-52183389D01*
X61002356Y-52183063D01*
X61037259Y-52140536D01*
X61037536Y-52140259D01*
X61080063Y-52105356D01*
X61080389Y-52105138D01*
X61128910Y-52079204D01*
X61129272Y-52079054D01*
X61181920Y-52063083D01*
X61182305Y-52063007D01*
X61243194Y-52057010D01*
X61243390Y-52057000D01*
X61299750Y-52057000D01*
X61301482Y-52058000D01*
G37*
G36*
X62043806Y-52057010D02*
G01*
X62104695Y-52063007D01*
X62105080Y-52063083D01*
X62157728Y-52079054D01*
X62158090Y-52079204D01*
X62206611Y-52105138D01*
X62206937Y-52105356D01*
X62249464Y-52140259D01*
X62249741Y-52140536D01*
X62284644Y-52183063D01*
X62284862Y-52183389D01*
X62310796Y-52231910D01*
X62310946Y-52232272D01*
X62326917Y-52284920D01*
X62326993Y-52285305D01*
X62332990Y-52346194D01*
X62333000Y-52346390D01*
X62333000Y-52402750D01*
X62332000Y-52404482D01*
X62330000Y-52404482D01*
X62329010Y-52402946D01*
X62322425Y-52336083D01*
X62302977Y-52271972D01*
X62271397Y-52212889D01*
X62228897Y-52161103D01*
X62177111Y-52118603D01*
X62118028Y-52087023D01*
X62053917Y-52067575D01*
X61987054Y-52060990D01*
X61985428Y-52059825D01*
X61985624Y-52057835D01*
X61987250Y-52057000D01*
X62043610Y-52057000D01*
X62043806Y-52057010D01*
G37*
G36*
X60168806Y-52057010D02*
G01*
X60229695Y-52063007D01*
X60230080Y-52063083D01*
X60282728Y-52079054D01*
X60283090Y-52079204D01*
X60331611Y-52105138D01*
X60331937Y-52105356D01*
X60374464Y-52140259D01*
X60374741Y-52140536D01*
X60409644Y-52183063D01*
X60409862Y-52183389D01*
X60435796Y-52231910D01*
X60435946Y-52232272D01*
X60451917Y-52284920D01*
X60451993Y-52285305D01*
X60457990Y-52346194D01*
X60458000Y-52346390D01*
X60458000Y-52402750D01*
X60457000Y-52404482D01*
X60455000Y-52404482D01*
X60454010Y-52402946D01*
X60447425Y-52336083D01*
X60427977Y-52271972D01*
X60396397Y-52212889D01*
X60353897Y-52161103D01*
X60302111Y-52118603D01*
X60243028Y-52087023D01*
X60178917Y-52067575D01*
X60112054Y-52060990D01*
X60110428Y-52059825D01*
X60110624Y-52057835D01*
X60112250Y-52057000D01*
X60168610Y-52057000D01*
X60168806Y-52057010D01*
G37*
G36*
X58395165Y-51354624D02*
G01*
X58396000Y-51356250D01*
X58396000Y-51412610D01*
X58395990Y-51412806D01*
X58389993Y-51473695D01*
X58389917Y-51474080D01*
X58373946Y-51526728D01*
X58373796Y-51527090D01*
X58347862Y-51575611D01*
X58347644Y-51575937D01*
X58312741Y-51618464D01*
X58312464Y-51618741D01*
X58269937Y-51653644D01*
X58269611Y-51653862D01*
X58221090Y-51679796D01*
X58220728Y-51679946D01*
X58168080Y-51695917D01*
X58167695Y-51695993D01*
X58106806Y-51701990D01*
X58106610Y-51702000D01*
X58050250Y-51702000D01*
X58048518Y-51701000D01*
X58048518Y-51699000D01*
X58050054Y-51698010D01*
X58116917Y-51691425D01*
X58181028Y-51671977D01*
X58240111Y-51640397D01*
X58291897Y-51597897D01*
X58334397Y-51546111D01*
X58365977Y-51487028D01*
X58385425Y-51422917D01*
X58392010Y-51356054D01*
X58393175Y-51354428D01*
X58395165Y-51354624D01*
G37*
G36*
X56520165Y-51354624D02*
G01*
X56521000Y-51356250D01*
X56521000Y-51412610D01*
X56520990Y-51412806D01*
X56514993Y-51473695D01*
X56514917Y-51474080D01*
X56498946Y-51526728D01*
X56498796Y-51527090D01*
X56472862Y-51575611D01*
X56472644Y-51575937D01*
X56437741Y-51618464D01*
X56437464Y-51618741D01*
X56394937Y-51653644D01*
X56394611Y-51653862D01*
X56346090Y-51679796D01*
X56345728Y-51679946D01*
X56293080Y-51695917D01*
X56292695Y-51695993D01*
X56231806Y-51701990D01*
X56231610Y-51702000D01*
X56175250Y-51702000D01*
X56173518Y-51701000D01*
X56173518Y-51699000D01*
X56175054Y-51698010D01*
X56241917Y-51691425D01*
X56306028Y-51671977D01*
X56365111Y-51640397D01*
X56416897Y-51597897D01*
X56459397Y-51546111D01*
X56490977Y-51487028D01*
X56510425Y-51422917D01*
X56517010Y-51356054D01*
X56518175Y-51354428D01*
X56520165Y-51354624D01*
G37*
G36*
X45082990Y-51356054D02*
G01*
X45089575Y-51422917D01*
X45109023Y-51487028D01*
X45140603Y-51546111D01*
X45183103Y-51597897D01*
X45234889Y-51640397D01*
X45293972Y-51671977D01*
X45358083Y-51691425D01*
X45424946Y-51698010D01*
X45426572Y-51699175D01*
X45426376Y-51701165D01*
X45424750Y-51702000D01*
X45368390Y-51702000D01*
X45368194Y-51701990D01*
X45307305Y-51695993D01*
X45306920Y-51695917D01*
X45254272Y-51679946D01*
X45253910Y-51679796D01*
X45205389Y-51653862D01*
X45205063Y-51653644D01*
X45162536Y-51618741D01*
X45162259Y-51618464D01*
X45127356Y-51575937D01*
X45127138Y-51575611D01*
X45101204Y-51527090D01*
X45101054Y-51526728D01*
X45085083Y-51474080D01*
X45085007Y-51473695D01*
X45079010Y-51412806D01*
X45079000Y-51412610D01*
X45079000Y-51356250D01*
X45080000Y-51354518D01*
X45082000Y-51354518D01*
X45082990Y-51356054D01*
G37*
G36*
X44582165Y-51354624D02*
G01*
X44583000Y-51356250D01*
X44583000Y-51412610D01*
X44582990Y-51412806D01*
X44576993Y-51473695D01*
X44576917Y-51474080D01*
X44560946Y-51526728D01*
X44560796Y-51527090D01*
X44534862Y-51575611D01*
X44534644Y-51575937D01*
X44499741Y-51618464D01*
X44499464Y-51618741D01*
X44456937Y-51653644D01*
X44456611Y-51653862D01*
X44408090Y-51679796D01*
X44407728Y-51679946D01*
X44355080Y-51695917D01*
X44354695Y-51695993D01*
X44293806Y-51701990D01*
X44293610Y-51702000D01*
X44237250Y-51702000D01*
X44235518Y-51701000D01*
X44235518Y-51699000D01*
X44237054Y-51698010D01*
X44303917Y-51691425D01*
X44368028Y-51671977D01*
X44427111Y-51640397D01*
X44478897Y-51597897D01*
X44521397Y-51546111D01*
X44552977Y-51487028D01*
X44572425Y-51422917D01*
X44579010Y-51356054D01*
X44580175Y-51354428D01*
X44582165Y-51354624D01*
G37*
G36*
X46457165Y-51354624D02*
G01*
X46458000Y-51356250D01*
X46458000Y-51412610D01*
X46457990Y-51412806D01*
X46451993Y-51473695D01*
X46451917Y-51474080D01*
X46435946Y-51526728D01*
X46435796Y-51527090D01*
X46409862Y-51575611D01*
X46409644Y-51575937D01*
X46374741Y-51618464D01*
X46374464Y-51618741D01*
X46331937Y-51653644D01*
X46331611Y-51653862D01*
X46283090Y-51679796D01*
X46282728Y-51679946D01*
X46230080Y-51695917D01*
X46229695Y-51695993D01*
X46168806Y-51701990D01*
X46168610Y-51702000D01*
X46112250Y-51702000D01*
X46110518Y-51701000D01*
X46110518Y-51699000D01*
X46112054Y-51698010D01*
X46178917Y-51691425D01*
X46243028Y-51671977D01*
X46302111Y-51640397D01*
X46353897Y-51597897D01*
X46396397Y-51546111D01*
X46427977Y-51487028D01*
X46447425Y-51422917D01*
X46454010Y-51356054D01*
X46455175Y-51354428D01*
X46457165Y-51354624D01*
G37*
G36*
X57020990Y-51356054D02*
G01*
X57027575Y-51422917D01*
X57047023Y-51487028D01*
X57078603Y-51546111D01*
X57121103Y-51597897D01*
X57172889Y-51640397D01*
X57231972Y-51671977D01*
X57296083Y-51691425D01*
X57362946Y-51698010D01*
X57364572Y-51699175D01*
X57364376Y-51701165D01*
X57362750Y-51702000D01*
X57306390Y-51702000D01*
X57306194Y-51701990D01*
X57245305Y-51695993D01*
X57244920Y-51695917D01*
X57192272Y-51679946D01*
X57191910Y-51679796D01*
X57143389Y-51653862D01*
X57143063Y-51653644D01*
X57100536Y-51618741D01*
X57100259Y-51618464D01*
X57065356Y-51575937D01*
X57065138Y-51575611D01*
X57039204Y-51527090D01*
X57039054Y-51526728D01*
X57023083Y-51474080D01*
X57023007Y-51473695D01*
X57017010Y-51412806D01*
X57017000Y-51412610D01*
X57017000Y-51356250D01*
X57018000Y-51354518D01*
X57020000Y-51354518D01*
X57020990Y-51356054D01*
G37*
G36*
X43207990Y-51356054D02*
G01*
X43214575Y-51422917D01*
X43234023Y-51487028D01*
X43265603Y-51546111D01*
X43308103Y-51597897D01*
X43359889Y-51640397D01*
X43418972Y-51671977D01*
X43483083Y-51691425D01*
X43549946Y-51698010D01*
X43551572Y-51699175D01*
X43551376Y-51701165D01*
X43549750Y-51702000D01*
X43493390Y-51702000D01*
X43493194Y-51701990D01*
X43432305Y-51695993D01*
X43431920Y-51695917D01*
X43379272Y-51679946D01*
X43378910Y-51679796D01*
X43330389Y-51653862D01*
X43330063Y-51653644D01*
X43287536Y-51618741D01*
X43287259Y-51618464D01*
X43252356Y-51575937D01*
X43252138Y-51575611D01*
X43226204Y-51527090D01*
X43226054Y-51526728D01*
X43210083Y-51474080D01*
X43210007Y-51473695D01*
X43204010Y-51412806D01*
X43204000Y-51412610D01*
X43204000Y-51356250D01*
X43205000Y-51354518D01*
X43207000Y-51354518D01*
X43207990Y-51356054D01*
G37*
G36*
X55145990Y-51356054D02*
G01*
X55152575Y-51422917D01*
X55172023Y-51487028D01*
X55203603Y-51546111D01*
X55246103Y-51597897D01*
X55297889Y-51640397D01*
X55356972Y-51671977D01*
X55421083Y-51691425D01*
X55487946Y-51698010D01*
X55489572Y-51699175D01*
X55489376Y-51701165D01*
X55487750Y-51702000D01*
X55431390Y-51702000D01*
X55431194Y-51701990D01*
X55370305Y-51695993D01*
X55369920Y-51695917D01*
X55317272Y-51679946D01*
X55316910Y-51679796D01*
X55268389Y-51653862D01*
X55268063Y-51653644D01*
X55225536Y-51618741D01*
X55225259Y-51618464D01*
X55190356Y-51575937D01*
X55190138Y-51575611D01*
X55164204Y-51527090D01*
X55164054Y-51526728D01*
X55148083Y-51474080D01*
X55148007Y-51473695D01*
X55142010Y-51412806D01*
X55142000Y-51412610D01*
X55142000Y-51356250D01*
X55143000Y-51354518D01*
X55145000Y-51354518D01*
X55145990Y-51356054D01*
G37*
G36*
X55489482Y-49899000D02*
G01*
X55489482Y-49901000D01*
X55487946Y-49901990D01*
X55421083Y-49908575D01*
X55356972Y-49928023D01*
X55297889Y-49959603D01*
X55246103Y-50002103D01*
X55203603Y-50053889D01*
X55172023Y-50112972D01*
X55152575Y-50177083D01*
X55145990Y-50243946D01*
X55144825Y-50245572D01*
X55142835Y-50245376D01*
X55142000Y-50243750D01*
X55142000Y-50187390D01*
X55142010Y-50187194D01*
X55148007Y-50126305D01*
X55148083Y-50125920D01*
X55164054Y-50073272D01*
X55164204Y-50072910D01*
X55190138Y-50024389D01*
X55190356Y-50024063D01*
X55225259Y-49981536D01*
X55225536Y-49981259D01*
X55268063Y-49946356D01*
X55268389Y-49946138D01*
X55316910Y-49920204D01*
X55317272Y-49920054D01*
X55369920Y-49904083D01*
X55370305Y-49904007D01*
X55431194Y-49898010D01*
X55431390Y-49898000D01*
X55487750Y-49898000D01*
X55489482Y-49899000D01*
G37*
G36*
X45426482Y-49899000D02*
G01*
X45426482Y-49901000D01*
X45424946Y-49901990D01*
X45358083Y-49908575D01*
X45293972Y-49928023D01*
X45234889Y-49959603D01*
X45183103Y-50002103D01*
X45140603Y-50053889D01*
X45109023Y-50112972D01*
X45089575Y-50177083D01*
X45082990Y-50243946D01*
X45081825Y-50245572D01*
X45079835Y-50245376D01*
X45079000Y-50243750D01*
X45079000Y-50187390D01*
X45079010Y-50187194D01*
X45085007Y-50126305D01*
X45085083Y-50125920D01*
X45101054Y-50073272D01*
X45101204Y-50072910D01*
X45127138Y-50024389D01*
X45127356Y-50024063D01*
X45162259Y-49981536D01*
X45162536Y-49981259D01*
X45205063Y-49946356D01*
X45205389Y-49946138D01*
X45253910Y-49920204D01*
X45254272Y-49920054D01*
X45306920Y-49904083D01*
X45307305Y-49904007D01*
X45368194Y-49898010D01*
X45368390Y-49898000D01*
X45424750Y-49898000D01*
X45426482Y-49899000D01*
G37*
G36*
X43551482Y-49899000D02*
G01*
X43551482Y-49901000D01*
X43549946Y-49901990D01*
X43483083Y-49908575D01*
X43418972Y-49928023D01*
X43359889Y-49959603D01*
X43308103Y-50002103D01*
X43265603Y-50053889D01*
X43234023Y-50112972D01*
X43214575Y-50177083D01*
X43207990Y-50243946D01*
X43206825Y-50245572D01*
X43204835Y-50245376D01*
X43204000Y-50243750D01*
X43204000Y-50187390D01*
X43204010Y-50187194D01*
X43210007Y-50126305D01*
X43210083Y-50125920D01*
X43226054Y-50073272D01*
X43226204Y-50072910D01*
X43252138Y-50024389D01*
X43252356Y-50024063D01*
X43287259Y-49981536D01*
X43287536Y-49981259D01*
X43330063Y-49946356D01*
X43330389Y-49946138D01*
X43378910Y-49920204D01*
X43379272Y-49920054D01*
X43431920Y-49904083D01*
X43432305Y-49904007D01*
X43493194Y-49898010D01*
X43493390Y-49898000D01*
X43549750Y-49898000D01*
X43551482Y-49899000D01*
G37*
G36*
X57364482Y-49899000D02*
G01*
X57364482Y-49901000D01*
X57362946Y-49901990D01*
X57296083Y-49908575D01*
X57231972Y-49928023D01*
X57172889Y-49959603D01*
X57121103Y-50002103D01*
X57078603Y-50053889D01*
X57047023Y-50112972D01*
X57027575Y-50177083D01*
X57020990Y-50243946D01*
X57019825Y-50245572D01*
X57017835Y-50245376D01*
X57017000Y-50243750D01*
X57017000Y-50187390D01*
X57017010Y-50187194D01*
X57023007Y-50126305D01*
X57023083Y-50125920D01*
X57039054Y-50073272D01*
X57039204Y-50072910D01*
X57065138Y-50024389D01*
X57065356Y-50024063D01*
X57100259Y-49981536D01*
X57100536Y-49981259D01*
X57143063Y-49946356D01*
X57143389Y-49946138D01*
X57191910Y-49920204D01*
X57192272Y-49920054D01*
X57244920Y-49904083D01*
X57245305Y-49904007D01*
X57306194Y-49898010D01*
X57306390Y-49898000D01*
X57362750Y-49898000D01*
X57364482Y-49899000D01*
G37*
G36*
X46168806Y-49898010D02*
G01*
X46229695Y-49904007D01*
X46230080Y-49904083D01*
X46282728Y-49920054D01*
X46283090Y-49920204D01*
X46331611Y-49946138D01*
X46331937Y-49946356D01*
X46374464Y-49981259D01*
X46374741Y-49981536D01*
X46409644Y-50024063D01*
X46409862Y-50024389D01*
X46435796Y-50072910D01*
X46435946Y-50073272D01*
X46451917Y-50125920D01*
X46451993Y-50126305D01*
X46457990Y-50187194D01*
X46458000Y-50187390D01*
X46458000Y-50243750D01*
X46457000Y-50245482D01*
X46455000Y-50245482D01*
X46454010Y-50243946D01*
X46447425Y-50177083D01*
X46427977Y-50112972D01*
X46396397Y-50053889D01*
X46353897Y-50002103D01*
X46302111Y-49959603D01*
X46243028Y-49928023D01*
X46178917Y-49908575D01*
X46112054Y-49901990D01*
X46110428Y-49900825D01*
X46110624Y-49898835D01*
X46112250Y-49898000D01*
X46168610Y-49898000D01*
X46168806Y-49898010D01*
G37*
G36*
X56231806Y-49898010D02*
G01*
X56292695Y-49904007D01*
X56293080Y-49904083D01*
X56345728Y-49920054D01*
X56346090Y-49920204D01*
X56394611Y-49946138D01*
X56394937Y-49946356D01*
X56437464Y-49981259D01*
X56437741Y-49981536D01*
X56472644Y-50024063D01*
X56472862Y-50024389D01*
X56498796Y-50072910D01*
X56498946Y-50073272D01*
X56514917Y-50125920D01*
X56514993Y-50126305D01*
X56520990Y-50187194D01*
X56521000Y-50187390D01*
X56521000Y-50243750D01*
X56520000Y-50245482D01*
X56518000Y-50245482D01*
X56517010Y-50243946D01*
X56510425Y-50177083D01*
X56490977Y-50112972D01*
X56459397Y-50053889D01*
X56416897Y-50002103D01*
X56365111Y-49959603D01*
X56306028Y-49928023D01*
X56241917Y-49908575D01*
X56175054Y-49901990D01*
X56173428Y-49900825D01*
X56173624Y-49898835D01*
X56175250Y-49898000D01*
X56231610Y-49898000D01*
X56231806Y-49898010D01*
G37*
G36*
X44293806Y-49898010D02*
G01*
X44354695Y-49904007D01*
X44355080Y-49904083D01*
X44407728Y-49920054D01*
X44408090Y-49920204D01*
X44456611Y-49946138D01*
X44456937Y-49946356D01*
X44499464Y-49981259D01*
X44499741Y-49981536D01*
X44534644Y-50024063D01*
X44534862Y-50024389D01*
X44560796Y-50072910D01*
X44560946Y-50073272D01*
X44576917Y-50125920D01*
X44576993Y-50126305D01*
X44582990Y-50187194D01*
X44583000Y-50187390D01*
X44583000Y-50243750D01*
X44582000Y-50245482D01*
X44580000Y-50245482D01*
X44579010Y-50243946D01*
X44572425Y-50177083D01*
X44552977Y-50112972D01*
X44521397Y-50053889D01*
X44478897Y-50002103D01*
X44427111Y-49959603D01*
X44368028Y-49928023D01*
X44303917Y-49908575D01*
X44237054Y-49901990D01*
X44235428Y-49900825D01*
X44235624Y-49898835D01*
X44237250Y-49898000D01*
X44293610Y-49898000D01*
X44293806Y-49898010D01*
G37*
G36*
X58106806Y-49898010D02*
G01*
X58167695Y-49904007D01*
X58168080Y-49904083D01*
X58220728Y-49920054D01*
X58221090Y-49920204D01*
X58269611Y-49946138D01*
X58269937Y-49946356D01*
X58312464Y-49981259D01*
X58312741Y-49981536D01*
X58347644Y-50024063D01*
X58347862Y-50024389D01*
X58373796Y-50072910D01*
X58373946Y-50073272D01*
X58389917Y-50125920D01*
X58389993Y-50126305D01*
X58395990Y-50187194D01*
X58396000Y-50187390D01*
X58396000Y-50243750D01*
X58395000Y-50245482D01*
X58393000Y-50245482D01*
X58392010Y-50243946D01*
X58385425Y-50177083D01*
X58365977Y-50112972D01*
X58334397Y-50053889D01*
X58291897Y-50002103D01*
X58240111Y-49959603D01*
X58181028Y-49928023D01*
X58116917Y-49908575D01*
X58050054Y-49901990D01*
X58048428Y-49900825D01*
X58048624Y-49898835D01*
X58050250Y-49898000D01*
X58106610Y-49898000D01*
X58106806Y-49898010D01*
G37*
G36*
X60957990Y-49324054D02*
G01*
X60964575Y-49390917D01*
X60984023Y-49455028D01*
X61015603Y-49514111D01*
X61058103Y-49565897D01*
X61109889Y-49608397D01*
X61168972Y-49639977D01*
X61233083Y-49659425D01*
X61299946Y-49666010D01*
X61301572Y-49667175D01*
X61301376Y-49669165D01*
X61299750Y-49670000D01*
X61243390Y-49670000D01*
X61243194Y-49669990D01*
X61182305Y-49663993D01*
X61181920Y-49663917D01*
X61129272Y-49647946D01*
X61128910Y-49647796D01*
X61080389Y-49621862D01*
X61080063Y-49621644D01*
X61037536Y-49586741D01*
X61037259Y-49586464D01*
X61002356Y-49543937D01*
X61002138Y-49543611D01*
X60976204Y-49495090D01*
X60976054Y-49494728D01*
X60960083Y-49442080D01*
X60960007Y-49441695D01*
X60954010Y-49380806D01*
X60954000Y-49380610D01*
X60954000Y-49324250D01*
X60955000Y-49322518D01*
X60957000Y-49322518D01*
X60957990Y-49324054D01*
G37*
G36*
X59082990Y-49324054D02*
G01*
X59089575Y-49390917D01*
X59109023Y-49455028D01*
X59140603Y-49514111D01*
X59183103Y-49565897D01*
X59234889Y-49608397D01*
X59293972Y-49639977D01*
X59358083Y-49659425D01*
X59424946Y-49666010D01*
X59426572Y-49667175D01*
X59426376Y-49669165D01*
X59424750Y-49670000D01*
X59368390Y-49670000D01*
X59368194Y-49669990D01*
X59307305Y-49663993D01*
X59306920Y-49663917D01*
X59254272Y-49647946D01*
X59253910Y-49647796D01*
X59205389Y-49621862D01*
X59205063Y-49621644D01*
X59162536Y-49586741D01*
X59162259Y-49586464D01*
X59127356Y-49543937D01*
X59127138Y-49543611D01*
X59101204Y-49495090D01*
X59101054Y-49494728D01*
X59085083Y-49442080D01*
X59085007Y-49441695D01*
X59079010Y-49380806D01*
X59079000Y-49380610D01*
X59079000Y-49324250D01*
X59080000Y-49322518D01*
X59082000Y-49322518D01*
X59082990Y-49324054D01*
G37*
G36*
X62332165Y-49322624D02*
G01*
X62333000Y-49324250D01*
X62333000Y-49380610D01*
X62332990Y-49380806D01*
X62326993Y-49441695D01*
X62326917Y-49442080D01*
X62310946Y-49494728D01*
X62310796Y-49495090D01*
X62284862Y-49543611D01*
X62284644Y-49543937D01*
X62249741Y-49586464D01*
X62249464Y-49586741D01*
X62206937Y-49621644D01*
X62206611Y-49621862D01*
X62158090Y-49647796D01*
X62157728Y-49647946D01*
X62105080Y-49663917D01*
X62104695Y-49663993D01*
X62043806Y-49669990D01*
X62043610Y-49670000D01*
X61987250Y-49670000D01*
X61985518Y-49669000D01*
X61985518Y-49667000D01*
X61987054Y-49666010D01*
X62053917Y-49659425D01*
X62118028Y-49639977D01*
X62177111Y-49608397D01*
X62228897Y-49565897D01*
X62271397Y-49514111D01*
X62302977Y-49455028D01*
X62322425Y-49390917D01*
X62329010Y-49324054D01*
X62330175Y-49322428D01*
X62332165Y-49322624D01*
G37*
G36*
X60457165Y-49322624D02*
G01*
X60458000Y-49324250D01*
X60458000Y-49380610D01*
X60457990Y-49380806D01*
X60451993Y-49441695D01*
X60451917Y-49442080D01*
X60435946Y-49494728D01*
X60435796Y-49495090D01*
X60409862Y-49543611D01*
X60409644Y-49543937D01*
X60374741Y-49586464D01*
X60374464Y-49586741D01*
X60331937Y-49621644D01*
X60331611Y-49621862D01*
X60283090Y-49647796D01*
X60282728Y-49647946D01*
X60230080Y-49663917D01*
X60229695Y-49663993D01*
X60168806Y-49669990D01*
X60168610Y-49670000D01*
X60112250Y-49670000D01*
X60110518Y-49669000D01*
X60110518Y-49667000D01*
X60112054Y-49666010D01*
X60178917Y-49659425D01*
X60243028Y-49639977D01*
X60302111Y-49608397D01*
X60353897Y-49565897D01*
X60396397Y-49514111D01*
X60427977Y-49455028D01*
X60447425Y-49390917D01*
X60454010Y-49324054D01*
X60455175Y-49322428D01*
X60457165Y-49322624D01*
G37*
G36*
X54798741Y-49034033D02*
G01*
X54841815Y-49108639D01*
X54880897Y-49163178D01*
X54929793Y-49208974D01*
X54986680Y-49244349D01*
X55049382Y-49267948D01*
X55115478Y-49278861D01*
X55182435Y-49276668D01*
X55247680Y-49261456D01*
X55308880Y-49233726D01*
X55310870Y-49233922D01*
X55311695Y-49235744D01*
X55310705Y-49237280D01*
X55261897Y-49265459D01*
X55261722Y-49265549D01*
X55205992Y-49290800D01*
X55205621Y-49290926D01*
X55152036Y-49303420D01*
X55151647Y-49303471D01*
X55096661Y-49305271D01*
X55096270Y-49305245D01*
X55041994Y-49296284D01*
X55041616Y-49296183D01*
X54990120Y-49276802D01*
X54989768Y-49276628D01*
X54943050Y-49247577D01*
X54942739Y-49247339D01*
X54902587Y-49209732D01*
X54902328Y-49209437D01*
X54866687Y-49159701D01*
X54866581Y-49159536D01*
X54795277Y-49036033D01*
X54795277Y-49034033D01*
X54797009Y-49033033D01*
X54798741Y-49034033D01*
G37*
G36*
X47240100Y-47703147D02*
G01*
X47240265Y-47703253D01*
X47290006Y-47738897D01*
X47290301Y-47739156D01*
X47327908Y-47779308D01*
X47328146Y-47779619D01*
X47357197Y-47826337D01*
X47357371Y-47826689D01*
X47376752Y-47878185D01*
X47376853Y-47878563D01*
X47385814Y-47932839D01*
X47385840Y-47933230D01*
X47384040Y-47988216D01*
X47383989Y-47988605D01*
X47371496Y-48042186D01*
X47371370Y-48042557D01*
X47346116Y-48098295D01*
X47346026Y-48098470D01*
X46733419Y-49159536D01*
X46733313Y-49159701D01*
X46697672Y-49209437D01*
X46697413Y-49209732D01*
X46657261Y-49247339D01*
X46656950Y-49247577D01*
X46610232Y-49276628D01*
X46609880Y-49276802D01*
X46558384Y-49296183D01*
X46558006Y-49296284D01*
X46503730Y-49305245D01*
X46503339Y-49305271D01*
X46448352Y-49303471D01*
X46447963Y-49303420D01*
X46394380Y-49290926D01*
X46394009Y-49290800D01*
X46338275Y-49265547D01*
X46338100Y-49265457D01*
X46289299Y-49237282D01*
X46288299Y-49235550D01*
X46289299Y-49233818D01*
X46291124Y-49233728D01*
X46352320Y-49261456D01*
X46417565Y-49276668D01*
X46484522Y-49278861D01*
X46550618Y-49267948D01*
X46613320Y-49244349D01*
X46670207Y-49208974D01*
X46719103Y-49163178D01*
X46758185Y-49108639D01*
X47314334Y-48145359D01*
X47342024Y-48084248D01*
X47357236Y-48019003D01*
X47359429Y-47952046D01*
X47348516Y-47885950D01*
X47324917Y-47823248D01*
X47289542Y-47766361D01*
X47243746Y-47717465D01*
X47189207Y-47678383D01*
X47037855Y-47591000D01*
X47036855Y-47589268D01*
X47037855Y-47587536D01*
X47039855Y-47587536D01*
X47240100Y-47703147D01*
G37*
G36*
X46436846Y-47265029D02*
G01*
X46437235Y-47265080D01*
X46490818Y-47277574D01*
X46491189Y-47277700D01*
X46546923Y-47302953D01*
X46547098Y-47303043D01*
X46595899Y-47331218D01*
X46596899Y-47332950D01*
X46595899Y-47334682D01*
X46594074Y-47334772D01*
X46532878Y-47307044D01*
X46467633Y-47291832D01*
X46400676Y-47289639D01*
X46334580Y-47300552D01*
X46271878Y-47324151D01*
X46214991Y-47359526D01*
X46166095Y-47405322D01*
X46127013Y-47459861D01*
X46112079Y-47485727D01*
X45570864Y-48423141D01*
X45543174Y-48484252D01*
X45527962Y-48549497D01*
X45525769Y-48616454D01*
X45536682Y-48682550D01*
X45560281Y-48745252D01*
X45595656Y-48802139D01*
X45641452Y-48851035D01*
X45695991Y-48890117D01*
X45943993Y-49033301D01*
X45944993Y-49035033D01*
X45943993Y-49036765D01*
X45941993Y-49036765D01*
X45645098Y-48865353D01*
X45644933Y-48865247D01*
X45595192Y-48829603D01*
X45594897Y-48829344D01*
X45557290Y-48789192D01*
X45557052Y-48788881D01*
X45528001Y-48742163D01*
X45527827Y-48741811D01*
X45508446Y-48690315D01*
X45508345Y-48689937D01*
X45499384Y-48635661D01*
X45499358Y-48635270D01*
X45501158Y-48580284D01*
X45501209Y-48579895D01*
X45513702Y-48526314D01*
X45513828Y-48525943D01*
X45539082Y-48470205D01*
X45539172Y-48470030D01*
X46108615Y-47483727D01*
X46151779Y-47408964D01*
X46151885Y-47408799D01*
X46187526Y-47359063D01*
X46187785Y-47358768D01*
X46227937Y-47321161D01*
X46228248Y-47320923D01*
X46274966Y-47291872D01*
X46275318Y-47291698D01*
X46326814Y-47272317D01*
X46327192Y-47272216D01*
X46381468Y-47263255D01*
X46381859Y-47263229D01*
X46436846Y-47265029D01*
G37*
G36*
X55888313Y-48171227D02*
G01*
X56060832Y-48470038D01*
X56060922Y-48470213D01*
X56086171Y-48525938D01*
X56086297Y-48526309D01*
X56098791Y-48579894D01*
X56098842Y-48580283D01*
X56100642Y-48635270D01*
X56100616Y-48635661D01*
X56091655Y-48689937D01*
X56091554Y-48690315D01*
X56072173Y-48741811D01*
X56071999Y-48742163D01*
X56042948Y-48788881D01*
X56042710Y-48789192D01*
X56005103Y-48829344D01*
X56004808Y-48829603D01*
X55955067Y-48865247D01*
X55954902Y-48865353D01*
X55658007Y-49036765D01*
X55656007Y-49036765D01*
X55655007Y-49035033D01*
X55656007Y-49033301D01*
X55904009Y-48890117D01*
X55958548Y-48851035D01*
X56004344Y-48802139D01*
X56039719Y-48745252D01*
X56063318Y-48682550D01*
X56074231Y-48616454D01*
X56072038Y-48549497D01*
X56056826Y-48484252D01*
X56029136Y-48423141D01*
X55884849Y-48173227D01*
X55884849Y-48171227D01*
X55886581Y-48170227D01*
X55888313Y-48171227D01*
G37*
G36*
X45616302Y-46765647D02*
G01*
X45616467Y-46765753D01*
X45666208Y-46801397D01*
X45666503Y-46801656D01*
X45704110Y-46841808D01*
X45704348Y-46842119D01*
X45733399Y-46888837D01*
X45733573Y-46889189D01*
X45752954Y-46940685D01*
X45753055Y-46941063D01*
X45762016Y-46995339D01*
X45762042Y-46995730D01*
X45760242Y-47050716D01*
X45760191Y-47051105D01*
X45747698Y-47104686D01*
X45747572Y-47105057D01*
X45722318Y-47160795D01*
X45722228Y-47160970D01*
X45152785Y-48147273D01*
X45109621Y-48222036D01*
X45109515Y-48222201D01*
X45073874Y-48271937D01*
X45073615Y-48272232D01*
X45033463Y-48309839D01*
X45033152Y-48310077D01*
X44986434Y-48339128D01*
X44986082Y-48339302D01*
X44934586Y-48358683D01*
X44934208Y-48358784D01*
X44879932Y-48367745D01*
X44879541Y-48367771D01*
X44824554Y-48365971D01*
X44824165Y-48365920D01*
X44770582Y-48353426D01*
X44770211Y-48353300D01*
X44714477Y-48328047D01*
X44714302Y-48327957D01*
X44665501Y-48299782D01*
X44664501Y-48298050D01*
X44665501Y-48296318D01*
X44667326Y-48296228D01*
X44728522Y-48323956D01*
X44793767Y-48339168D01*
X44860724Y-48341361D01*
X44926820Y-48330448D01*
X44989522Y-48306849D01*
X45046409Y-48271474D01*
X45095305Y-48225678D01*
X45134387Y-48171139D01*
X45149321Y-48145273D01*
X45690536Y-47207859D01*
X45718226Y-47146748D01*
X45733438Y-47081503D01*
X45735631Y-47014546D01*
X45724718Y-46948450D01*
X45701119Y-46885748D01*
X45665744Y-46828861D01*
X45619948Y-46779965D01*
X45565409Y-46740883D01*
X45490749Y-46697778D01*
X45489749Y-46696046D01*
X45490749Y-46694314D01*
X45492749Y-46694314D01*
X45616302Y-46765647D01*
G37*
G36*
X56450679Y-48145273D02*
G01*
X56465613Y-48171139D01*
X56504695Y-48225678D01*
X56553591Y-48271474D01*
X56610478Y-48306849D01*
X56673180Y-48330448D01*
X56739276Y-48341361D01*
X56806233Y-48339168D01*
X56871478Y-48323956D01*
X56932678Y-48296226D01*
X56934668Y-48296422D01*
X56935493Y-48298244D01*
X56934503Y-48299780D01*
X56885695Y-48327959D01*
X56885520Y-48328049D01*
X56829790Y-48353300D01*
X56829419Y-48353426D01*
X56775834Y-48365920D01*
X56775445Y-48365971D01*
X56720459Y-48367771D01*
X56720068Y-48367745D01*
X56665792Y-48358784D01*
X56665414Y-48358683D01*
X56613918Y-48339302D01*
X56613566Y-48339128D01*
X56566848Y-48310077D01*
X56566537Y-48309839D01*
X56526385Y-48272232D01*
X56526126Y-48271937D01*
X56490485Y-48222201D01*
X56490379Y-48222036D01*
X56447215Y-48147273D01*
X56447215Y-48145273D01*
X56448947Y-48144273D01*
X56450679Y-48145273D01*
G37*
G36*
X54637902Y-47546107D02*
G01*
X54636902Y-47547839D01*
X54410793Y-47678383D01*
X54356254Y-47717465D01*
X54310458Y-47766361D01*
X54275083Y-47823248D01*
X54251484Y-47885950D01*
X54240571Y-47952046D01*
X54242764Y-48019003D01*
X54257976Y-48084248D01*
X54285666Y-48145359D01*
X54357495Y-48269772D01*
X54357495Y-48271772D01*
X54355763Y-48272772D01*
X54354031Y-48271772D01*
X54253970Y-48098462D01*
X54253880Y-48098287D01*
X54228631Y-48042562D01*
X54228505Y-48042191D01*
X54216011Y-47988606D01*
X54215960Y-47988217D01*
X54214160Y-47933230D01*
X54214186Y-47932839D01*
X54223147Y-47878563D01*
X54223248Y-47878185D01*
X54242629Y-47826689D01*
X54242803Y-47826337D01*
X54271854Y-47779619D01*
X54272092Y-47779308D01*
X54309699Y-47739156D01*
X54309994Y-47738897D01*
X54359735Y-47703253D01*
X54359900Y-47703147D01*
X54634902Y-47544375D01*
X54636902Y-47544375D01*
X54637902Y-47546107D01*
G37*
G36*
X61301482Y-47867000D02*
G01*
X61301482Y-47869000D01*
X61299946Y-47869990D01*
X61233083Y-47876575D01*
X61168972Y-47896023D01*
X61109889Y-47927603D01*
X61058103Y-47970103D01*
X61015603Y-48021889D01*
X60984023Y-48080972D01*
X60964575Y-48145083D01*
X60957990Y-48211946D01*
X60956825Y-48213572D01*
X60954835Y-48213376D01*
X60954000Y-48211750D01*
X60954000Y-48155390D01*
X60954010Y-48155194D01*
X60960007Y-48094305D01*
X60960083Y-48093920D01*
X60976054Y-48041272D01*
X60976204Y-48040910D01*
X61002138Y-47992389D01*
X61002356Y-47992063D01*
X61037259Y-47949536D01*
X61037536Y-47949259D01*
X61080063Y-47914356D01*
X61080389Y-47914138D01*
X61128910Y-47888204D01*
X61129272Y-47888054D01*
X61181920Y-47872083D01*
X61182305Y-47872007D01*
X61243194Y-47866010D01*
X61243390Y-47866000D01*
X61299750Y-47866000D01*
X61301482Y-47867000D01*
G37*
G36*
X59426482Y-47867000D02*
G01*
X59426482Y-47869000D01*
X59424946Y-47869990D01*
X59358083Y-47876575D01*
X59293972Y-47896023D01*
X59234889Y-47927603D01*
X59183103Y-47970103D01*
X59140603Y-48021889D01*
X59109023Y-48080972D01*
X59089575Y-48145083D01*
X59082990Y-48211946D01*
X59081825Y-48213572D01*
X59079835Y-48213376D01*
X59079000Y-48211750D01*
X59079000Y-48155390D01*
X59079010Y-48155194D01*
X59085007Y-48094305D01*
X59085083Y-48093920D01*
X59101054Y-48041272D01*
X59101204Y-48040910D01*
X59127138Y-47992389D01*
X59127356Y-47992063D01*
X59162259Y-47949536D01*
X59162536Y-47949259D01*
X59205063Y-47914356D01*
X59205389Y-47914138D01*
X59253910Y-47888204D01*
X59254272Y-47888054D01*
X59306920Y-47872083D01*
X59307305Y-47872007D01*
X59368194Y-47866010D01*
X59368390Y-47866000D01*
X59424750Y-47866000D01*
X59426482Y-47867000D01*
G37*
G36*
X60168806Y-47866010D02*
G01*
X60229695Y-47872007D01*
X60230080Y-47872083D01*
X60282728Y-47888054D01*
X60283090Y-47888204D01*
X60331611Y-47914138D01*
X60331937Y-47914356D01*
X60374464Y-47949259D01*
X60374741Y-47949536D01*
X60409644Y-47992063D01*
X60409862Y-47992389D01*
X60435796Y-48040910D01*
X60435946Y-48041272D01*
X60451917Y-48093920D01*
X60451993Y-48094305D01*
X60457990Y-48155194D01*
X60458000Y-48155390D01*
X60458000Y-48211750D01*
X60457000Y-48213482D01*
X60455000Y-48213482D01*
X60454010Y-48211946D01*
X60447425Y-48145083D01*
X60427977Y-48080972D01*
X60396397Y-48021889D01*
X60353897Y-47970103D01*
X60302111Y-47927603D01*
X60243028Y-47896023D01*
X60178917Y-47876575D01*
X60112054Y-47869990D01*
X60110428Y-47868825D01*
X60110624Y-47866835D01*
X60112250Y-47866000D01*
X60168610Y-47866000D01*
X60168806Y-47866010D01*
G37*
G36*
X62043806Y-47866010D02*
G01*
X62104695Y-47872007D01*
X62105080Y-47872083D01*
X62157728Y-47888054D01*
X62158090Y-47888204D01*
X62206611Y-47914138D01*
X62206937Y-47914356D01*
X62249464Y-47949259D01*
X62249741Y-47949536D01*
X62284644Y-47992063D01*
X62284862Y-47992389D01*
X62310796Y-48040910D01*
X62310946Y-48041272D01*
X62326917Y-48093920D01*
X62326993Y-48094305D01*
X62332990Y-48155194D01*
X62333000Y-48155390D01*
X62333000Y-48211750D01*
X62332000Y-48213482D01*
X62330000Y-48213482D01*
X62329010Y-48211946D01*
X62322425Y-48145083D01*
X62302977Y-48080972D01*
X62271397Y-48021889D01*
X62228897Y-47970103D01*
X62177111Y-47927603D01*
X62118028Y-47896023D01*
X62053917Y-47876575D01*
X61987054Y-47869990D01*
X61985428Y-47868825D01*
X61985624Y-47866835D01*
X61987250Y-47866000D01*
X62043610Y-47866000D01*
X62043806Y-47866010D01*
G37*
G36*
X57584569Y-47359228D02*
G01*
X57684630Y-47532538D01*
X57684720Y-47532713D01*
X57709969Y-47588438D01*
X57710095Y-47588809D01*
X57722589Y-47642394D01*
X57722640Y-47642783D01*
X57724440Y-47697770D01*
X57724414Y-47698161D01*
X57715453Y-47752437D01*
X57715352Y-47752815D01*
X57695971Y-47804311D01*
X57695797Y-47804663D01*
X57666746Y-47851381D01*
X57666508Y-47851692D01*
X57628901Y-47891844D01*
X57628606Y-47892103D01*
X57578865Y-47927747D01*
X57578700Y-47927853D01*
X57303698Y-48086625D01*
X57301698Y-48086625D01*
X57300698Y-48084893D01*
X57301698Y-48083161D01*
X57527807Y-47952617D01*
X57582346Y-47913535D01*
X57628142Y-47864639D01*
X57663517Y-47807752D01*
X57687116Y-47745050D01*
X57698029Y-47678954D01*
X57695836Y-47611997D01*
X57680624Y-47546752D01*
X57652934Y-47485641D01*
X57581105Y-47361228D01*
X57581105Y-47359228D01*
X57582837Y-47358228D01*
X57584569Y-47359228D01*
G37*
G36*
X44813048Y-46327529D02*
G01*
X44813437Y-46327580D01*
X44867020Y-46340074D01*
X44867391Y-46340200D01*
X44923125Y-46365453D01*
X44923300Y-46365543D01*
X44972101Y-46393718D01*
X44973101Y-46395450D01*
X44972101Y-46397182D01*
X44970276Y-46397272D01*
X44909080Y-46369544D01*
X44843835Y-46354332D01*
X44776878Y-46352139D01*
X44710782Y-46363052D01*
X44648080Y-46386651D01*
X44591193Y-46422026D01*
X44542297Y-46467822D01*
X44503215Y-46522361D01*
X44496193Y-46534523D01*
X43947066Y-47485641D01*
X43919376Y-47546752D01*
X43904164Y-47611997D01*
X43901971Y-47678954D01*
X43912884Y-47745050D01*
X43936483Y-47807752D01*
X43971858Y-47864639D01*
X44017654Y-47913535D01*
X44072193Y-47952617D01*
X44223545Y-48040000D01*
X44224545Y-48041732D01*
X44223545Y-48043464D01*
X44221545Y-48043464D01*
X44021300Y-47927853D01*
X44021135Y-47927747D01*
X43971394Y-47892103D01*
X43971099Y-47891844D01*
X43933492Y-47851692D01*
X43933254Y-47851381D01*
X43904203Y-47804663D01*
X43904029Y-47804311D01*
X43884648Y-47752815D01*
X43884547Y-47752437D01*
X43875586Y-47698161D01*
X43875560Y-47697770D01*
X43877360Y-47642784D01*
X43877411Y-47642395D01*
X43889904Y-47588814D01*
X43890030Y-47588443D01*
X43915284Y-47532705D01*
X43915374Y-47532530D01*
X44492729Y-46532523D01*
X44527981Y-46471464D01*
X44528087Y-46471299D01*
X44563728Y-46421563D01*
X44563987Y-46421268D01*
X44604139Y-46383661D01*
X44604450Y-46383423D01*
X44651168Y-46354372D01*
X44651520Y-46354198D01*
X44703016Y-46334817D01*
X44703394Y-46334716D01*
X44757670Y-46325755D01*
X44758061Y-46325729D01*
X44813048Y-46327529D01*
G37*
G36*
X55218532Y-47263255D02*
G01*
X55272808Y-47272216D01*
X55273186Y-47272317D01*
X55324682Y-47291698D01*
X55325034Y-47291872D01*
X55371752Y-47320923D01*
X55372063Y-47321161D01*
X55412215Y-47358768D01*
X55412474Y-47359063D01*
X55448115Y-47408799D01*
X55448221Y-47408964D01*
X55491385Y-47483727D01*
X55491385Y-47485727D01*
X55489653Y-47486727D01*
X55487921Y-47485727D01*
X55472987Y-47459861D01*
X55433905Y-47405322D01*
X55385009Y-47359526D01*
X55328122Y-47324151D01*
X55265420Y-47300552D01*
X55199324Y-47289639D01*
X55132367Y-47291832D01*
X55067122Y-47307044D01*
X55005924Y-47334773D01*
X55003934Y-47334577D01*
X55003109Y-47332755D01*
X55004099Y-47331219D01*
X55052905Y-47303041D01*
X55053080Y-47302951D01*
X55108810Y-47277700D01*
X55109181Y-47277574D01*
X55162766Y-47265080D01*
X55163155Y-47265029D01*
X55218141Y-47263229D01*
X55218532Y-47263255D01*
G37*
G36*
X49237280Y-46289295D02*
G01*
X49265459Y-46338103D01*
X49265549Y-46338278D01*
X49290800Y-46394008D01*
X49290926Y-46394379D01*
X49303420Y-46447964D01*
X49303471Y-46448353D01*
X49305271Y-46503339D01*
X49305245Y-46503730D01*
X49296284Y-46558006D01*
X49296183Y-46558384D01*
X49276802Y-46609880D01*
X49276628Y-46610232D01*
X49247577Y-46656950D01*
X49247339Y-46657261D01*
X49209732Y-46697413D01*
X49209437Y-46697672D01*
X49159701Y-46733313D01*
X49159536Y-46733419D01*
X48098462Y-47346030D01*
X48098287Y-47346120D01*
X48042562Y-47371369D01*
X48042191Y-47371495D01*
X47988606Y-47383989D01*
X47988217Y-47384040D01*
X47933230Y-47385840D01*
X47932839Y-47385814D01*
X47878563Y-47376853D01*
X47878185Y-47376752D01*
X47826689Y-47357371D01*
X47826337Y-47357197D01*
X47779619Y-47328146D01*
X47779308Y-47327908D01*
X47739156Y-47290301D01*
X47738897Y-47290006D01*
X47703253Y-47240265D01*
X47703147Y-47240100D01*
X47657457Y-47160962D01*
X47657457Y-47158962D01*
X47659189Y-47157962D01*
X47660921Y-47158962D01*
X47678383Y-47189207D01*
X47717465Y-47243746D01*
X47766361Y-47289542D01*
X47823248Y-47324917D01*
X47885950Y-47348516D01*
X47952046Y-47359429D01*
X48019003Y-47357236D01*
X48084248Y-47342024D01*
X48145359Y-47314334D01*
X49108639Y-46758185D01*
X49163178Y-46719103D01*
X49208974Y-46670207D01*
X49244349Y-46613320D01*
X49267948Y-46550618D01*
X49278861Y-46484522D01*
X49276668Y-46417565D01*
X49261456Y-46352320D01*
X49233726Y-46291120D01*
X49233922Y-46289130D01*
X49235744Y-46288305D01*
X49237280Y-46289295D01*
G37*
G36*
X52366182Y-46289299D02*
G01*
X52366272Y-46291124D01*
X52338544Y-46352320D01*
X52323332Y-46417565D01*
X52321139Y-46484522D01*
X52332052Y-46550618D01*
X52355651Y-46613320D01*
X52391026Y-46670207D01*
X52436822Y-46719103D01*
X52491361Y-46758185D01*
X53454641Y-47314334D01*
X53515752Y-47342024D01*
X53580997Y-47357236D01*
X53647954Y-47359429D01*
X53714050Y-47348516D01*
X53776752Y-47324917D01*
X53833639Y-47289542D01*
X53882535Y-47243746D01*
X53921617Y-47189207D01*
X53939079Y-47158962D01*
X53940811Y-47157962D01*
X53942543Y-47158962D01*
X53942543Y-47160962D01*
X53896853Y-47240100D01*
X53896747Y-47240265D01*
X53861103Y-47290006D01*
X53860844Y-47290301D01*
X53820692Y-47327908D01*
X53820381Y-47328146D01*
X53773663Y-47357197D01*
X53773311Y-47357371D01*
X53721815Y-47376752D01*
X53721437Y-47376853D01*
X53667161Y-47385814D01*
X53666770Y-47385840D01*
X53611784Y-47384040D01*
X53611395Y-47383989D01*
X53557814Y-47371496D01*
X53557443Y-47371370D01*
X53501705Y-47346116D01*
X53501530Y-47346026D01*
X52440464Y-46733419D01*
X52440299Y-46733313D01*
X52390563Y-46697672D01*
X52390268Y-46697413D01*
X52352661Y-46657261D01*
X52352423Y-46656950D01*
X52323372Y-46610232D01*
X52323198Y-46609880D01*
X52303817Y-46558384D01*
X52303716Y-46558006D01*
X52294755Y-46503730D01*
X52294729Y-46503339D01*
X52296529Y-46448352D01*
X52296580Y-46447963D01*
X52309074Y-46394380D01*
X52309200Y-46394009D01*
X52334453Y-46338275D01*
X52334543Y-46338100D01*
X52362718Y-46289299D01*
X52364450Y-46288299D01*
X52366182Y-46289299D01*
G37*
G36*
X56110251Y-46696046D02*
G01*
X56109251Y-46697778D01*
X56034591Y-46740883D01*
X55980052Y-46779965D01*
X55934256Y-46828861D01*
X55898881Y-46885748D01*
X55875282Y-46948450D01*
X55864369Y-47014546D01*
X55866562Y-47081503D01*
X55881774Y-47146748D01*
X55909464Y-47207859D01*
X55971388Y-47315116D01*
X55971388Y-47317116D01*
X55969656Y-47318116D01*
X55967924Y-47317116D01*
X55877768Y-47160962D01*
X55877678Y-47160787D01*
X55852429Y-47105062D01*
X55852303Y-47104691D01*
X55839809Y-47051106D01*
X55839758Y-47050717D01*
X55837958Y-46995730D01*
X55837984Y-46995339D01*
X55846945Y-46941063D01*
X55847046Y-46940685D01*
X55866427Y-46889189D01*
X55866601Y-46888837D01*
X55895652Y-46842119D01*
X55895890Y-46841808D01*
X55933497Y-46801656D01*
X55933792Y-46801397D01*
X55983533Y-46765753D01*
X55983698Y-46765647D01*
X56107251Y-46694314D01*
X56109251Y-46694314D01*
X56110251Y-46696046D01*
G37*
G36*
X53019716Y-45501158D02*
G01*
X53020105Y-45501209D01*
X53073686Y-45513702D01*
X53074057Y-45513828D01*
X53129795Y-45539082D01*
X53129970Y-45539172D01*
X54191036Y-46151779D01*
X54191201Y-46151885D01*
X54240937Y-46187526D01*
X54241232Y-46187785D01*
X54278839Y-46227937D01*
X54279077Y-46228248D01*
X54308128Y-46274966D01*
X54308302Y-46275318D01*
X54327683Y-46326814D01*
X54327784Y-46327192D01*
X54336745Y-46381468D01*
X54336771Y-46381859D01*
X54334971Y-46436846D01*
X54334920Y-46437235D01*
X54322426Y-46490818D01*
X54322300Y-46491189D01*
X54297047Y-46546923D01*
X54296957Y-46547098D01*
X54268782Y-46595899D01*
X54267050Y-46596899D01*
X54265318Y-46595899D01*
X54265228Y-46594074D01*
X54292956Y-46532878D01*
X54308168Y-46467633D01*
X54310361Y-46400676D01*
X54299448Y-46334580D01*
X54275849Y-46271878D01*
X54240474Y-46214991D01*
X54194678Y-46166095D01*
X54140139Y-46127013D01*
X53176859Y-45570864D01*
X53115748Y-45543174D01*
X53050503Y-45527962D01*
X52983546Y-45525769D01*
X52917450Y-45536682D01*
X52854748Y-45560281D01*
X52797861Y-45595656D01*
X52748965Y-45641452D01*
X52709883Y-45695991D01*
X52705461Y-45703650D01*
X52703729Y-45704650D01*
X52701997Y-45703650D01*
X52701997Y-45701650D01*
X52734647Y-45645098D01*
X52734753Y-45644933D01*
X52770397Y-45595192D01*
X52770656Y-45594897D01*
X52810808Y-45557290D01*
X52811119Y-45557052D01*
X52857837Y-45528001D01*
X52858189Y-45527827D01*
X52909685Y-45508446D01*
X52910063Y-45508345D01*
X52964339Y-45499384D01*
X52964730Y-45499358D01*
X53019716Y-45501158D01*
G37*
G36*
X48635661Y-45499384D02*
G01*
X48689937Y-45508345D01*
X48690315Y-45508446D01*
X48741811Y-45527827D01*
X48742163Y-45528001D01*
X48788881Y-45557052D01*
X48789192Y-45557290D01*
X48829344Y-45594897D01*
X48829603Y-45595192D01*
X48865247Y-45644933D01*
X48865353Y-45645098D01*
X48898003Y-45701650D01*
X48898003Y-45703650D01*
X48896271Y-45704650D01*
X48894539Y-45703650D01*
X48890117Y-45695991D01*
X48851035Y-45641452D01*
X48802139Y-45595656D01*
X48745252Y-45560281D01*
X48682550Y-45536682D01*
X48616454Y-45525769D01*
X48549497Y-45527962D01*
X48484252Y-45543174D01*
X48423141Y-45570864D01*
X47459861Y-46127013D01*
X47405322Y-46166095D01*
X47359526Y-46214991D01*
X47324151Y-46271878D01*
X47300552Y-46334580D01*
X47289639Y-46400676D01*
X47291832Y-46467633D01*
X47307044Y-46532878D01*
X47334774Y-46594078D01*
X47334578Y-46596068D01*
X47332756Y-46596893D01*
X47331220Y-46595903D01*
X47303041Y-46547095D01*
X47302951Y-46546920D01*
X47277700Y-46491190D01*
X47277574Y-46490819D01*
X47265080Y-46437234D01*
X47265029Y-46436845D01*
X47263229Y-46381859D01*
X47263255Y-46381468D01*
X47272216Y-46327192D01*
X47272317Y-46326814D01*
X47291698Y-46275318D01*
X47291872Y-46274966D01*
X47320923Y-46228248D01*
X47321161Y-46227937D01*
X47358768Y-46187785D01*
X47359063Y-46187526D01*
X47408799Y-46151885D01*
X47408964Y-46151779D01*
X48470038Y-45539168D01*
X48470213Y-45539078D01*
X48525938Y-45513829D01*
X48526309Y-45513703D01*
X48579894Y-45501209D01*
X48580283Y-45501158D01*
X48635270Y-45499358D01*
X48635661Y-45499384D01*
G37*
G36*
X56842330Y-46325755D02*
G01*
X56896606Y-46334716D01*
X56896984Y-46334817D01*
X56948480Y-46354198D01*
X56948832Y-46354372D01*
X56995550Y-46383423D01*
X56995861Y-46383661D01*
X57036013Y-46421268D01*
X57036272Y-46421563D01*
X57071913Y-46471299D01*
X57072019Y-46471464D01*
X57107271Y-46532523D01*
X57107271Y-46534523D01*
X57105539Y-46535523D01*
X57103807Y-46534523D01*
X57096785Y-46522361D01*
X57057703Y-46467822D01*
X57008807Y-46422026D01*
X56951920Y-46386651D01*
X56889218Y-46363052D01*
X56823122Y-46352139D01*
X56756165Y-46354332D01*
X56690920Y-46369544D01*
X56629722Y-46397273D01*
X56627732Y-46397077D01*
X56626907Y-46395255D01*
X56627897Y-46393719D01*
X56676703Y-46365541D01*
X56676878Y-46365451D01*
X56732608Y-46340200D01*
X56732979Y-46340074D01*
X56786564Y-46327580D01*
X56786953Y-46327529D01*
X56841939Y-46325729D01*
X56842330Y-46325755D01*
G37*
G36*
X51701165Y-46110624D02*
G01*
X51702000Y-46112250D01*
X51702000Y-46168610D01*
X51701990Y-46168806D01*
X51695993Y-46229695D01*
X51695917Y-46230080D01*
X51679946Y-46282728D01*
X51679796Y-46283090D01*
X51653862Y-46331611D01*
X51653644Y-46331937D01*
X51618741Y-46374464D01*
X51618464Y-46374741D01*
X51575937Y-46409644D01*
X51575611Y-46409862D01*
X51527090Y-46435796D01*
X51526728Y-46435946D01*
X51474080Y-46451917D01*
X51473695Y-46451993D01*
X51412806Y-46457990D01*
X51412610Y-46458000D01*
X51356250Y-46458000D01*
X51354518Y-46457000D01*
X51354518Y-46455000D01*
X51356054Y-46454010D01*
X51422917Y-46447425D01*
X51487028Y-46427977D01*
X51546111Y-46396397D01*
X51597897Y-46353897D01*
X51640397Y-46302111D01*
X51671977Y-46243028D01*
X51691425Y-46178917D01*
X51698010Y-46112054D01*
X51699175Y-46110428D01*
X51701165Y-46110624D01*
G37*
G36*
X49901990Y-46112054D02*
G01*
X49908575Y-46178917D01*
X49928023Y-46243028D01*
X49959603Y-46302111D01*
X50002103Y-46353897D01*
X50053889Y-46396397D01*
X50112972Y-46427977D01*
X50177083Y-46447425D01*
X50243946Y-46454010D01*
X50245572Y-46455175D01*
X50245376Y-46457165D01*
X50243750Y-46458000D01*
X50187390Y-46458000D01*
X50187194Y-46457990D01*
X50126305Y-46451993D01*
X50125920Y-46451917D01*
X50073272Y-46435946D01*
X50072910Y-46435796D01*
X50024389Y-46409862D01*
X50024063Y-46409644D01*
X49981536Y-46374741D01*
X49981259Y-46374464D01*
X49946356Y-46331937D01*
X49946138Y-46331611D01*
X49920204Y-46283090D01*
X49920054Y-46282728D01*
X49904083Y-46230080D01*
X49904007Y-46229695D01*
X49898010Y-46168806D01*
X49898000Y-46168610D01*
X49898000Y-46112250D01*
X49899000Y-46110518D01*
X49901000Y-46110518D01*
X49901990Y-46112054D01*
G37*
G36*
X47698161Y-43875586D02*
G01*
X47752437Y-43884547D01*
X47752815Y-43884648D01*
X47804311Y-43904029D01*
X47804663Y-43904203D01*
X47851381Y-43933254D01*
X47851692Y-43933492D01*
X47891844Y-43971099D01*
X47892103Y-43971394D01*
X47927747Y-44021135D01*
X47927853Y-44021300D01*
X48051954Y-44236250D01*
X48090672Y-44303312D01*
X48119648Y-44353499D01*
X48127903Y-44367797D01*
X48150044Y-44406147D01*
X48162215Y-44427227D01*
X48178058Y-44454668D01*
X48192289Y-44479318D01*
X48202611Y-44497195D01*
X48204538Y-44500534D01*
X48216971Y-44522068D01*
X48220808Y-44528713D01*
X48222762Y-44532098D01*
X48227200Y-44539785D01*
X48235311Y-44553834D01*
X48237735Y-44558032D01*
X48241385Y-44564354D01*
X48246605Y-44573395D01*
X48246956Y-44574003D01*
X48250418Y-44580000D01*
X48255596Y-44588968D01*
X48264567Y-44604506D01*
X48288635Y-44646193D01*
X48291539Y-44651224D01*
X48299780Y-44665497D01*
X48327959Y-44714305D01*
X48328049Y-44714480D01*
X48353300Y-44770210D01*
X48353426Y-44770581D01*
X48365920Y-44824166D01*
X48365971Y-44824555D01*
X48367771Y-44879541D01*
X48367745Y-44879932D01*
X48358784Y-44934208D01*
X48358683Y-44934586D01*
X48339302Y-44986082D01*
X48339128Y-44986434D01*
X48310077Y-45033152D01*
X48309839Y-45033463D01*
X48272232Y-45073615D01*
X48271937Y-45073874D01*
X48222201Y-45109515D01*
X48222036Y-45109621D01*
X47160962Y-45722232D01*
X47160787Y-45722322D01*
X47105062Y-45747571D01*
X47104691Y-45747697D01*
X47051106Y-45760191D01*
X47050717Y-45760242D01*
X46995730Y-45762042D01*
X46995339Y-45762016D01*
X46941063Y-45753055D01*
X46940685Y-45752954D01*
X46889189Y-45733573D01*
X46888837Y-45733399D01*
X46842119Y-45704348D01*
X46841808Y-45704110D01*
X46801656Y-45666503D01*
X46801397Y-45666208D01*
X46765753Y-45616467D01*
X46765647Y-45616302D01*
X46732997Y-45559750D01*
X46732840Y-45559478D01*
X46714071Y-45526969D01*
X46712798Y-45524764D01*
X46708114Y-45516651D01*
X46708113Y-45516650D01*
X46705035Y-45511318D01*
X46699861Y-45502357D01*
X46655632Y-45425750D01*
X46623093Y-45369390D01*
X46616914Y-45358688D01*
X46587938Y-45308501D01*
X46557542Y-45255853D01*
X46529528Y-45207332D01*
X46515297Y-45182682D01*
X46504975Y-45164805D01*
X46490615Y-45139932D01*
X46488962Y-45137068D01*
X46484824Y-45129902D01*
X46472692Y-45108889D01*
X46472275Y-45108166D01*
X46469851Y-45103968D01*
X46466300Y-45097817D01*
X46460981Y-45088605D01*
X46460630Y-45087997D01*
X46457168Y-45082000D01*
X46452115Y-45073248D01*
X46437904Y-45048634D01*
X46428933Y-45033096D01*
X46404865Y-44991409D01*
X46401961Y-44986378D01*
X46393720Y-44972105D01*
X46365541Y-44923297D01*
X46365451Y-44923122D01*
X46340200Y-44867392D01*
X46340074Y-44867021D01*
X46327580Y-44813436D01*
X46327529Y-44813047D01*
X46326345Y-44776878D01*
X46352139Y-44776878D01*
X46354332Y-44843835D01*
X46369544Y-44909080D01*
X46397234Y-44970191D01*
X46405425Y-44984378D01*
X46408329Y-44989409D01*
X46432397Y-45031096D01*
X46441368Y-45046634D01*
X46455579Y-45071248D01*
X46460632Y-45080000D01*
X46464094Y-45085997D01*
X46464445Y-45086605D01*
X46469764Y-45095817D01*
X46473315Y-45101968D01*
X46475739Y-45106166D01*
X46476156Y-45106889D01*
X46488288Y-45127902D01*
X46492426Y-45135068D01*
X46494079Y-45137932D01*
X46508439Y-45162805D01*
X46518761Y-45180682D01*
X46532992Y-45205332D01*
X46561006Y-45253853D01*
X46591402Y-45306501D01*
X46620378Y-45356688D01*
X46626557Y-45367390D01*
X46659096Y-45423750D01*
X46703325Y-45500357D01*
X46708499Y-45509318D01*
X46711576Y-45514649D01*
X46711578Y-45514651D01*
X46716262Y-45522764D01*
X46717535Y-45524969D01*
X46736304Y-45557478D01*
X46736461Y-45557750D01*
X46740883Y-45565409D01*
X46779965Y-45619948D01*
X46828861Y-45665744D01*
X46885748Y-45701119D01*
X46948450Y-45724718D01*
X47014546Y-45735631D01*
X47081503Y-45733438D01*
X47146748Y-45718226D01*
X47207859Y-45690536D01*
X48171139Y-45134387D01*
X48225678Y-45095305D01*
X48271474Y-45046409D01*
X48306849Y-44989522D01*
X48330448Y-44926820D01*
X48341361Y-44860724D01*
X48339168Y-44793767D01*
X48323956Y-44728522D01*
X48296266Y-44667411D01*
X48288075Y-44653224D01*
X48285171Y-44648193D01*
X48261103Y-44606506D01*
X48252132Y-44590968D01*
X48246954Y-44582000D01*
X48243492Y-44576003D01*
X48243141Y-44575395D01*
X48237921Y-44566354D01*
X48234271Y-44560032D01*
X48231847Y-44555834D01*
X48223736Y-44541785D01*
X48219298Y-44534098D01*
X48217344Y-44530713D01*
X48213507Y-44524068D01*
X48201074Y-44502534D01*
X48199147Y-44499195D01*
X48188825Y-44481318D01*
X48174594Y-44456668D01*
X48158751Y-44429227D01*
X48146580Y-44408147D01*
X48124439Y-44369797D01*
X48116184Y-44355499D01*
X48087208Y-44305312D01*
X48048490Y-44238250D01*
X47952617Y-44072193D01*
X47913535Y-44017654D01*
X47864639Y-43971858D01*
X47807752Y-43936483D01*
X47745050Y-43912884D01*
X47678954Y-43901971D01*
X47611997Y-43904164D01*
X47546752Y-43919376D01*
X47485641Y-43947066D01*
X46522361Y-44503215D01*
X46467822Y-44542297D01*
X46422026Y-44591193D01*
X46386651Y-44648080D01*
X46363052Y-44710782D01*
X46352139Y-44776878D01*
X46326345Y-44776878D01*
X46325729Y-44758061D01*
X46325755Y-44757670D01*
X46334716Y-44703394D01*
X46334817Y-44703016D01*
X46354198Y-44651520D01*
X46354372Y-44651168D01*
X46383423Y-44604450D01*
X46383661Y-44604139D01*
X46421268Y-44563987D01*
X46421563Y-44563728D01*
X46471299Y-44528087D01*
X46471464Y-44527981D01*
X47532538Y-43915370D01*
X47532713Y-43915280D01*
X47588438Y-43890031D01*
X47588809Y-43889905D01*
X47642394Y-43877411D01*
X47642783Y-43877360D01*
X47697770Y-43875560D01*
X47698161Y-43875586D01*
G37*
G36*
X53303682Y-44665501D02*
G01*
X53303772Y-44667326D01*
X53276044Y-44728522D01*
X53260832Y-44793767D01*
X53258639Y-44860724D01*
X53269552Y-44926820D01*
X53293151Y-44989522D01*
X53328526Y-45046409D01*
X53374322Y-45095305D01*
X53428861Y-45134387D01*
X54392141Y-45690536D01*
X54453252Y-45718226D01*
X54518497Y-45733438D01*
X54585454Y-45735631D01*
X54651550Y-45724718D01*
X54714252Y-45701119D01*
X54771139Y-45665744D01*
X54820035Y-45619948D01*
X54859117Y-45565409D01*
X54863539Y-45557750D01*
X54865271Y-45556750D01*
X54867003Y-45557750D01*
X54867003Y-45559750D01*
X54834353Y-45616302D01*
X54834247Y-45616467D01*
X54798603Y-45666208D01*
X54798344Y-45666503D01*
X54758192Y-45704110D01*
X54757881Y-45704348D01*
X54711163Y-45733399D01*
X54710811Y-45733573D01*
X54659315Y-45752954D01*
X54658937Y-45753055D01*
X54604661Y-45762016D01*
X54604270Y-45762042D01*
X54549284Y-45760242D01*
X54548895Y-45760191D01*
X54495314Y-45747698D01*
X54494943Y-45747572D01*
X54439205Y-45722318D01*
X54439030Y-45722228D01*
X53377964Y-45109621D01*
X53377799Y-45109515D01*
X53328063Y-45073874D01*
X53327768Y-45073615D01*
X53290161Y-45033463D01*
X53289923Y-45033152D01*
X53260872Y-44986434D01*
X53260698Y-44986082D01*
X53241317Y-44934586D01*
X53241216Y-44934208D01*
X53232255Y-44879932D01*
X53232229Y-44879541D01*
X53234029Y-44824554D01*
X53234080Y-44824165D01*
X53246574Y-44770582D01*
X53246700Y-44770211D01*
X53271953Y-44714477D01*
X53272043Y-44714302D01*
X53300218Y-44665501D01*
X53301950Y-44664501D01*
X53303682Y-44665501D01*
G37*
G36*
X50245482Y-45080000D02*
G01*
X50245482Y-45082000D01*
X50243946Y-45082990D01*
X50177083Y-45089575D01*
X50112972Y-45109023D01*
X50053889Y-45140603D01*
X50002103Y-45183103D01*
X49959603Y-45234889D01*
X49928023Y-45293972D01*
X49908575Y-45358083D01*
X49901990Y-45424946D01*
X49900825Y-45426572D01*
X49898835Y-45426376D01*
X49898000Y-45424750D01*
X49898000Y-45368390D01*
X49898010Y-45368194D01*
X49904007Y-45307305D01*
X49904083Y-45306920D01*
X49920054Y-45254272D01*
X49920204Y-45253910D01*
X49946138Y-45205389D01*
X49946356Y-45205063D01*
X49981259Y-45162536D01*
X49981536Y-45162259D01*
X50024063Y-45127356D01*
X50024389Y-45127138D01*
X50072910Y-45101204D01*
X50073272Y-45101054D01*
X50125920Y-45085083D01*
X50126305Y-45085007D01*
X50187194Y-45079010D01*
X50187390Y-45079000D01*
X50243750Y-45079000D01*
X50245482Y-45080000D01*
G37*
G36*
X51412806Y-45079010D02*
G01*
X51473695Y-45085007D01*
X51474080Y-45085083D01*
X51526728Y-45101054D01*
X51527090Y-45101204D01*
X51575611Y-45127138D01*
X51575937Y-45127356D01*
X51618464Y-45162259D01*
X51618741Y-45162536D01*
X51653644Y-45205063D01*
X51653862Y-45205389D01*
X51679796Y-45253910D01*
X51679946Y-45254272D01*
X51695917Y-45306920D01*
X51695993Y-45307305D01*
X51701990Y-45368194D01*
X51702000Y-45368390D01*
X51702000Y-45424750D01*
X51701000Y-45426482D01*
X51699000Y-45426482D01*
X51698010Y-45424946D01*
X51691425Y-45358083D01*
X51671977Y-45293972D01*
X51640397Y-45234889D01*
X51597897Y-45183103D01*
X51546111Y-45140603D01*
X51487028Y-45109023D01*
X51422917Y-45089575D01*
X51356054Y-45082990D01*
X51354428Y-45081825D01*
X51354624Y-45079835D01*
X51356250Y-45079000D01*
X51412610Y-45079000D01*
X51412806Y-45079010D01*
G37*
G36*
X53957216Y-43877360D02*
G01*
X53957605Y-43877411D01*
X54011186Y-43889904D01*
X54011557Y-43890030D01*
X54067295Y-43915284D01*
X54067470Y-43915374D01*
X55128536Y-44527981D01*
X55128701Y-44528087D01*
X55178437Y-44563728D01*
X55178732Y-44563987D01*
X55216339Y-44604139D01*
X55216577Y-44604450D01*
X55245628Y-44651168D01*
X55245802Y-44651520D01*
X55265183Y-44703016D01*
X55265284Y-44703394D01*
X55274245Y-44757670D01*
X55274271Y-44758061D01*
X55272471Y-44813048D01*
X55272420Y-44813437D01*
X55259926Y-44867020D01*
X55259800Y-44867391D01*
X55234547Y-44923125D01*
X55234457Y-44923300D01*
X55206282Y-44972101D01*
X55204550Y-44973101D01*
X55202818Y-44972101D01*
X55202728Y-44970276D01*
X55230456Y-44909080D01*
X55245668Y-44843835D01*
X55247861Y-44776878D01*
X55236948Y-44710782D01*
X55213349Y-44648080D01*
X55177974Y-44591193D01*
X55132178Y-44542297D01*
X55077639Y-44503215D01*
X54114359Y-43947066D01*
X54053248Y-43919376D01*
X53988003Y-43904164D01*
X53921046Y-43901971D01*
X53854950Y-43912884D01*
X53792248Y-43936483D01*
X53735361Y-43971858D01*
X53686465Y-44017654D01*
X53647383Y-44072193D01*
X53551510Y-44238250D01*
X53549778Y-44239250D01*
X53548046Y-44238250D01*
X53548046Y-44236250D01*
X53672147Y-44021300D01*
X53672253Y-44021135D01*
X53707897Y-43971394D01*
X53708156Y-43971099D01*
X53748308Y-43933492D01*
X53748619Y-43933254D01*
X53795337Y-43904203D01*
X53795689Y-43904029D01*
X53847185Y-43884648D01*
X53847563Y-43884547D01*
X53901839Y-43875586D01*
X53902230Y-43875560D01*
X53957216Y-43877360D01*
G37*
G36*
X51701165Y-44235624D02*
G01*
X51702000Y-44237250D01*
X51702000Y-44293610D01*
X51701990Y-44293806D01*
X51695993Y-44354695D01*
X51695917Y-44355080D01*
X51679946Y-44407728D01*
X51679796Y-44408090D01*
X51653862Y-44456611D01*
X51653644Y-44456937D01*
X51618741Y-44499464D01*
X51618464Y-44499741D01*
X51575937Y-44534644D01*
X51575611Y-44534862D01*
X51527090Y-44560796D01*
X51526728Y-44560946D01*
X51474080Y-44576917D01*
X51473695Y-44576993D01*
X51412806Y-44582990D01*
X51412610Y-44583000D01*
X51356250Y-44583000D01*
X51354518Y-44582000D01*
X51354518Y-44580000D01*
X51356054Y-44579010D01*
X51422917Y-44572425D01*
X51487028Y-44552977D01*
X51546111Y-44521397D01*
X51597897Y-44478897D01*
X51640397Y-44427111D01*
X51671977Y-44368028D01*
X51691425Y-44303917D01*
X51698010Y-44237054D01*
X51699175Y-44235428D01*
X51701165Y-44235624D01*
G37*
G36*
X49901990Y-44237054D02*
G01*
X49908575Y-44303917D01*
X49928023Y-44368028D01*
X49959603Y-44427111D01*
X50002103Y-44478897D01*
X50053889Y-44521397D01*
X50112972Y-44552977D01*
X50177083Y-44572425D01*
X50243946Y-44579010D01*
X50245572Y-44580175D01*
X50245376Y-44582165D01*
X50243750Y-44583000D01*
X50187390Y-44583000D01*
X50187194Y-44582990D01*
X50126305Y-44576993D01*
X50125920Y-44576917D01*
X50073272Y-44560946D01*
X50072910Y-44560796D01*
X50024389Y-44534862D01*
X50024063Y-44534644D01*
X49981536Y-44499741D01*
X49981259Y-44499464D01*
X49946356Y-44456937D01*
X49946138Y-44456611D01*
X49920204Y-44408090D01*
X49920054Y-44407728D01*
X49904083Y-44355080D01*
X49904007Y-44354695D01*
X49898010Y-44293806D01*
X49898000Y-44293610D01*
X49898000Y-44237250D01*
X49899000Y-44235518D01*
X49901000Y-44235518D01*
X49901990Y-44237054D01*
G37*
G36*
X50245482Y-43205000D02*
G01*
X50245482Y-43207000D01*
X50243946Y-43207990D01*
X50177083Y-43214575D01*
X50112972Y-43234023D01*
X50053889Y-43265603D01*
X50002103Y-43308103D01*
X49959603Y-43359889D01*
X49928023Y-43418972D01*
X49908575Y-43483083D01*
X49901990Y-43549946D01*
X49900825Y-43551572D01*
X49898835Y-43551376D01*
X49898000Y-43549750D01*
X49898000Y-43493390D01*
X49898010Y-43493194D01*
X49904007Y-43432305D01*
X49904083Y-43431920D01*
X49920054Y-43379272D01*
X49920204Y-43378910D01*
X49946138Y-43330389D01*
X49946356Y-43330063D01*
X49981259Y-43287536D01*
X49981536Y-43287259D01*
X50024063Y-43252356D01*
X50024389Y-43252138D01*
X50072910Y-43226204D01*
X50073272Y-43226054D01*
X50125920Y-43210083D01*
X50126305Y-43210007D01*
X50187194Y-43204010D01*
X50187390Y-43204000D01*
X50243750Y-43204000D01*
X50245482Y-43205000D01*
G37*
G36*
X51412806Y-43204010D02*
G01*
X51473695Y-43210007D01*
X51474080Y-43210083D01*
X51526728Y-43226054D01*
X51527090Y-43226204D01*
X51575611Y-43252138D01*
X51575937Y-43252356D01*
X51618464Y-43287259D01*
X51618741Y-43287536D01*
X51653644Y-43330063D01*
X51653862Y-43330389D01*
X51679796Y-43378910D01*
X51679946Y-43379272D01*
X51695917Y-43431920D01*
X51695993Y-43432305D01*
X51701990Y-43493194D01*
X51702000Y-43493390D01*
X51702000Y-43549750D01*
X51701000Y-43551482D01*
X51699000Y-43551482D01*
X51698010Y-43549946D01*
X51691425Y-43483083D01*
X51671977Y-43418972D01*
X51640397Y-43359889D01*
X51597897Y-43308103D01*
X51546111Y-43265603D01*
X51487028Y-43234023D01*
X51422917Y-43214575D01*
X51356054Y-43207990D01*
X51354428Y-43206825D01*
X51354624Y-43204835D01*
X51356250Y-43204000D01*
X51412610Y-43204000D01*
X51412806Y-43204010D01*
G37*
M02*
