G04 #@! TF.GenerationSoftware,KiCad,Pcbnew,5.0.2-bee76a0~70~ubuntu18.04.1*
G04 #@! TF.CreationDate,2020-10-21T16:40:24-07:00*
G04 #@! TF.ProjectId,led_ring,6c65645f-7269-46e6-972e-6b696361645f,rev?*
G04 #@! TF.SameCoordinates,Original*
G04 #@! TF.FileFunction,Copper,L1,Top*
G04 #@! TF.FilePolarity,Positive*
%FSLAX46Y46*%
G04 Gerber Fmt 4.6, Leading zero omitted, Abs format (unit mm)*
G04 Created by KiCad (PCBNEW 5.0.2-bee76a0~70~ubuntu18.04.1) date Wed 21 Oct 2020 04:40:24 PM PDT*
%MOMM*%
%LPD*%
G01*
G04 APERTURE LIST*
G04 #@! TA.AperFunction,ComponentPad*
%ADD10R,1.700000X1.700000*%
G04 #@! TD*
G04 #@! TA.AperFunction,ComponentPad*
%ADD11O,1.700000X1.700000*%
G04 #@! TD*
G04 #@! TA.AperFunction,ComponentPad*
%ADD12C,3.175000*%
G04 #@! TD*
G04 #@! TA.AperFunction,Conductor*
%ADD13C,0.100000*%
G04 #@! TD*
G04 #@! TA.AperFunction,SMDPad,CuDef*
%ADD14C,0.975000*%
G04 #@! TD*
G04 #@! TA.AperFunction,ViaPad*
%ADD15C,0.685800*%
G04 #@! TD*
G04 #@! TA.AperFunction,Conductor*
%ADD16C,0.381000*%
G04 #@! TD*
G04 APERTURE END LIST*
D10*
G04 #@! TO.P,J1,1*
G04 #@! TO.N,GND*
X64770000Y-52070000D03*
D11*
G04 #@! TO.P,J1,2*
G04 #@! TO.N,Net-(D1-Pad2)*
X64770000Y-49530000D03*
G04 #@! TD*
D12*
G04 #@! TO.P,M1,1*
G04 #@! TO.N,N/C*
X50800000Y-38100000D03*
G04 #@! TD*
G04 #@! TO.P,M2,1*
G04 #@! TO.N,N/C*
X50800000Y-63500000D03*
G04 #@! TD*
D13*
G04 #@! TO.N,GND*
G04 #@! TO.C,R1*
G36*
X61911142Y-52260174D02*
X61934803Y-52263684D01*
X61958007Y-52269496D01*
X61980529Y-52277554D01*
X62002153Y-52287782D01*
X62022670Y-52300079D01*
X62041883Y-52314329D01*
X62059607Y-52330393D01*
X62075671Y-52348117D01*
X62089921Y-52367330D01*
X62102218Y-52387847D01*
X62112446Y-52409471D01*
X62120504Y-52431993D01*
X62126316Y-52455197D01*
X62129826Y-52478858D01*
X62131000Y-52502750D01*
X62131000Y-53415250D01*
X62129826Y-53439142D01*
X62126316Y-53462803D01*
X62120504Y-53486007D01*
X62112446Y-53508529D01*
X62102218Y-53530153D01*
X62089921Y-53550670D01*
X62075671Y-53569883D01*
X62059607Y-53587607D01*
X62041883Y-53603671D01*
X62022670Y-53617921D01*
X62002153Y-53630218D01*
X61980529Y-53640446D01*
X61958007Y-53648504D01*
X61934803Y-53654316D01*
X61911142Y-53657826D01*
X61887250Y-53659000D01*
X61399750Y-53659000D01*
X61375858Y-53657826D01*
X61352197Y-53654316D01*
X61328993Y-53648504D01*
X61306471Y-53640446D01*
X61284847Y-53630218D01*
X61264330Y-53617921D01*
X61245117Y-53603671D01*
X61227393Y-53587607D01*
X61211329Y-53569883D01*
X61197079Y-53550670D01*
X61184782Y-53530153D01*
X61174554Y-53508529D01*
X61166496Y-53486007D01*
X61160684Y-53462803D01*
X61157174Y-53439142D01*
X61156000Y-53415250D01*
X61156000Y-52502750D01*
X61157174Y-52478858D01*
X61160684Y-52455197D01*
X61166496Y-52431993D01*
X61174554Y-52409471D01*
X61184782Y-52387847D01*
X61197079Y-52367330D01*
X61211329Y-52348117D01*
X61227393Y-52330393D01*
X61245117Y-52314329D01*
X61264330Y-52300079D01*
X61284847Y-52287782D01*
X61306471Y-52277554D01*
X61328993Y-52269496D01*
X61352197Y-52263684D01*
X61375858Y-52260174D01*
X61399750Y-52259000D01*
X61887250Y-52259000D01*
X61911142Y-52260174D01*
X61911142Y-52260174D01*
G37*
D14*
G04 #@! TD*
G04 #@! TO.P,R1,1*
G04 #@! TO.N,GND*
X61643500Y-52959000D03*
D13*
G04 #@! TO.N,Net-(D12-Pad1)*
G04 #@! TO.C,R1*
G36*
X60036142Y-52260174D02*
X60059803Y-52263684D01*
X60083007Y-52269496D01*
X60105529Y-52277554D01*
X60127153Y-52287782D01*
X60147670Y-52300079D01*
X60166883Y-52314329D01*
X60184607Y-52330393D01*
X60200671Y-52348117D01*
X60214921Y-52367330D01*
X60227218Y-52387847D01*
X60237446Y-52409471D01*
X60245504Y-52431993D01*
X60251316Y-52455197D01*
X60254826Y-52478858D01*
X60256000Y-52502750D01*
X60256000Y-53415250D01*
X60254826Y-53439142D01*
X60251316Y-53462803D01*
X60245504Y-53486007D01*
X60237446Y-53508529D01*
X60227218Y-53530153D01*
X60214921Y-53550670D01*
X60200671Y-53569883D01*
X60184607Y-53587607D01*
X60166883Y-53603671D01*
X60147670Y-53617921D01*
X60127153Y-53630218D01*
X60105529Y-53640446D01*
X60083007Y-53648504D01*
X60059803Y-53654316D01*
X60036142Y-53657826D01*
X60012250Y-53659000D01*
X59524750Y-53659000D01*
X59500858Y-53657826D01*
X59477197Y-53654316D01*
X59453993Y-53648504D01*
X59431471Y-53640446D01*
X59409847Y-53630218D01*
X59389330Y-53617921D01*
X59370117Y-53603671D01*
X59352393Y-53587607D01*
X59336329Y-53569883D01*
X59322079Y-53550670D01*
X59309782Y-53530153D01*
X59299554Y-53508529D01*
X59291496Y-53486007D01*
X59285684Y-53462803D01*
X59282174Y-53439142D01*
X59281000Y-53415250D01*
X59281000Y-52502750D01*
X59282174Y-52478858D01*
X59285684Y-52455197D01*
X59291496Y-52431993D01*
X59299554Y-52409471D01*
X59309782Y-52387847D01*
X59322079Y-52367330D01*
X59336329Y-52348117D01*
X59352393Y-52330393D01*
X59370117Y-52314329D01*
X59389330Y-52300079D01*
X59409847Y-52287782D01*
X59431471Y-52277554D01*
X59453993Y-52269496D01*
X59477197Y-52263684D01*
X59500858Y-52260174D01*
X59524750Y-52259000D01*
X60012250Y-52259000D01*
X60036142Y-52260174D01*
X60036142Y-52260174D01*
G37*
D14*
G04 #@! TD*
G04 #@! TO.P,R1,2*
G04 #@! TO.N,Net-(D12-Pad1)*
X59768500Y-52959000D03*
D13*
G04 #@! TO.N,Net-(D6-Pad1)*
G04 #@! TO.C,R2*
G36*
X60036142Y-48069174D02*
X60059803Y-48072684D01*
X60083007Y-48078496D01*
X60105529Y-48086554D01*
X60127153Y-48096782D01*
X60147670Y-48109079D01*
X60166883Y-48123329D01*
X60184607Y-48139393D01*
X60200671Y-48157117D01*
X60214921Y-48176330D01*
X60227218Y-48196847D01*
X60237446Y-48218471D01*
X60245504Y-48240993D01*
X60251316Y-48264197D01*
X60254826Y-48287858D01*
X60256000Y-48311750D01*
X60256000Y-49224250D01*
X60254826Y-49248142D01*
X60251316Y-49271803D01*
X60245504Y-49295007D01*
X60237446Y-49317529D01*
X60227218Y-49339153D01*
X60214921Y-49359670D01*
X60200671Y-49378883D01*
X60184607Y-49396607D01*
X60166883Y-49412671D01*
X60147670Y-49426921D01*
X60127153Y-49439218D01*
X60105529Y-49449446D01*
X60083007Y-49457504D01*
X60059803Y-49463316D01*
X60036142Y-49466826D01*
X60012250Y-49468000D01*
X59524750Y-49468000D01*
X59500858Y-49466826D01*
X59477197Y-49463316D01*
X59453993Y-49457504D01*
X59431471Y-49449446D01*
X59409847Y-49439218D01*
X59389330Y-49426921D01*
X59370117Y-49412671D01*
X59352393Y-49396607D01*
X59336329Y-49378883D01*
X59322079Y-49359670D01*
X59309782Y-49339153D01*
X59299554Y-49317529D01*
X59291496Y-49295007D01*
X59285684Y-49271803D01*
X59282174Y-49248142D01*
X59281000Y-49224250D01*
X59281000Y-48311750D01*
X59282174Y-48287858D01*
X59285684Y-48264197D01*
X59291496Y-48240993D01*
X59299554Y-48218471D01*
X59309782Y-48196847D01*
X59322079Y-48176330D01*
X59336329Y-48157117D01*
X59352393Y-48139393D01*
X59370117Y-48123329D01*
X59389330Y-48109079D01*
X59409847Y-48096782D01*
X59431471Y-48086554D01*
X59453993Y-48078496D01*
X59477197Y-48072684D01*
X59500858Y-48069174D01*
X59524750Y-48068000D01*
X60012250Y-48068000D01*
X60036142Y-48069174D01*
X60036142Y-48069174D01*
G37*
D14*
G04 #@! TD*
G04 #@! TO.P,R2,2*
G04 #@! TO.N,Net-(D6-Pad1)*
X59768500Y-48768000D03*
D13*
G04 #@! TO.N,GND*
G04 #@! TO.C,R2*
G36*
X61911142Y-48069174D02*
X61934803Y-48072684D01*
X61958007Y-48078496D01*
X61980529Y-48086554D01*
X62002153Y-48096782D01*
X62022670Y-48109079D01*
X62041883Y-48123329D01*
X62059607Y-48139393D01*
X62075671Y-48157117D01*
X62089921Y-48176330D01*
X62102218Y-48196847D01*
X62112446Y-48218471D01*
X62120504Y-48240993D01*
X62126316Y-48264197D01*
X62129826Y-48287858D01*
X62131000Y-48311750D01*
X62131000Y-49224250D01*
X62129826Y-49248142D01*
X62126316Y-49271803D01*
X62120504Y-49295007D01*
X62112446Y-49317529D01*
X62102218Y-49339153D01*
X62089921Y-49359670D01*
X62075671Y-49378883D01*
X62059607Y-49396607D01*
X62041883Y-49412671D01*
X62022670Y-49426921D01*
X62002153Y-49439218D01*
X61980529Y-49449446D01*
X61958007Y-49457504D01*
X61934803Y-49463316D01*
X61911142Y-49466826D01*
X61887250Y-49468000D01*
X61399750Y-49468000D01*
X61375858Y-49466826D01*
X61352197Y-49463316D01*
X61328993Y-49457504D01*
X61306471Y-49449446D01*
X61284847Y-49439218D01*
X61264330Y-49426921D01*
X61245117Y-49412671D01*
X61227393Y-49396607D01*
X61211329Y-49378883D01*
X61197079Y-49359670D01*
X61184782Y-49339153D01*
X61174554Y-49317529D01*
X61166496Y-49295007D01*
X61160684Y-49271803D01*
X61157174Y-49248142D01*
X61156000Y-49224250D01*
X61156000Y-48311750D01*
X61157174Y-48287858D01*
X61160684Y-48264197D01*
X61166496Y-48240993D01*
X61174554Y-48218471D01*
X61184782Y-48196847D01*
X61197079Y-48176330D01*
X61211329Y-48157117D01*
X61227393Y-48139393D01*
X61245117Y-48123329D01*
X61264330Y-48109079D01*
X61284847Y-48096782D01*
X61306471Y-48086554D01*
X61328993Y-48078496D01*
X61352197Y-48072684D01*
X61375858Y-48069174D01*
X61399750Y-48068000D01*
X61887250Y-48068000D01*
X61911142Y-48069174D01*
X61911142Y-48069174D01*
G37*
D14*
G04 #@! TD*
G04 #@! TO.P,R2,1*
G04 #@! TO.N,GND*
X61643500Y-48768000D03*
D13*
G04 #@! TO.N,Net-(D1-Pad1)*
G04 #@! TO.C,D1*
G36*
X56099142Y-50101174D02*
X56122803Y-50104684D01*
X56146007Y-50110496D01*
X56168529Y-50118554D01*
X56190153Y-50128782D01*
X56210670Y-50141079D01*
X56229883Y-50155329D01*
X56247607Y-50171393D01*
X56263671Y-50189117D01*
X56277921Y-50208330D01*
X56290218Y-50228847D01*
X56300446Y-50250471D01*
X56308504Y-50272993D01*
X56314316Y-50296197D01*
X56317826Y-50319858D01*
X56319000Y-50343750D01*
X56319000Y-51256250D01*
X56317826Y-51280142D01*
X56314316Y-51303803D01*
X56308504Y-51327007D01*
X56300446Y-51349529D01*
X56290218Y-51371153D01*
X56277921Y-51391670D01*
X56263671Y-51410883D01*
X56247607Y-51428607D01*
X56229883Y-51444671D01*
X56210670Y-51458921D01*
X56190153Y-51471218D01*
X56168529Y-51481446D01*
X56146007Y-51489504D01*
X56122803Y-51495316D01*
X56099142Y-51498826D01*
X56075250Y-51500000D01*
X55587750Y-51500000D01*
X55563858Y-51498826D01*
X55540197Y-51495316D01*
X55516993Y-51489504D01*
X55494471Y-51481446D01*
X55472847Y-51471218D01*
X55452330Y-51458921D01*
X55433117Y-51444671D01*
X55415393Y-51428607D01*
X55399329Y-51410883D01*
X55385079Y-51391670D01*
X55372782Y-51371153D01*
X55362554Y-51349529D01*
X55354496Y-51327007D01*
X55348684Y-51303803D01*
X55345174Y-51280142D01*
X55344000Y-51256250D01*
X55344000Y-50343750D01*
X55345174Y-50319858D01*
X55348684Y-50296197D01*
X55354496Y-50272993D01*
X55362554Y-50250471D01*
X55372782Y-50228847D01*
X55385079Y-50208330D01*
X55399329Y-50189117D01*
X55415393Y-50171393D01*
X55433117Y-50155329D01*
X55452330Y-50141079D01*
X55472847Y-50128782D01*
X55494471Y-50118554D01*
X55516993Y-50110496D01*
X55540197Y-50104684D01*
X55563858Y-50101174D01*
X55587750Y-50100000D01*
X56075250Y-50100000D01*
X56099142Y-50101174D01*
X56099142Y-50101174D01*
G37*
D14*
G04 #@! TD*
G04 #@! TO.P,D1,1*
G04 #@! TO.N,Net-(D1-Pad1)*
X55831500Y-50800000D03*
D13*
G04 #@! TO.N,Net-(D1-Pad2)*
G04 #@! TO.C,D1*
G36*
X57974142Y-50101174D02*
X57997803Y-50104684D01*
X58021007Y-50110496D01*
X58043529Y-50118554D01*
X58065153Y-50128782D01*
X58085670Y-50141079D01*
X58104883Y-50155329D01*
X58122607Y-50171393D01*
X58138671Y-50189117D01*
X58152921Y-50208330D01*
X58165218Y-50228847D01*
X58175446Y-50250471D01*
X58183504Y-50272993D01*
X58189316Y-50296197D01*
X58192826Y-50319858D01*
X58194000Y-50343750D01*
X58194000Y-51256250D01*
X58192826Y-51280142D01*
X58189316Y-51303803D01*
X58183504Y-51327007D01*
X58175446Y-51349529D01*
X58165218Y-51371153D01*
X58152921Y-51391670D01*
X58138671Y-51410883D01*
X58122607Y-51428607D01*
X58104883Y-51444671D01*
X58085670Y-51458921D01*
X58065153Y-51471218D01*
X58043529Y-51481446D01*
X58021007Y-51489504D01*
X57997803Y-51495316D01*
X57974142Y-51498826D01*
X57950250Y-51500000D01*
X57462750Y-51500000D01*
X57438858Y-51498826D01*
X57415197Y-51495316D01*
X57391993Y-51489504D01*
X57369471Y-51481446D01*
X57347847Y-51471218D01*
X57327330Y-51458921D01*
X57308117Y-51444671D01*
X57290393Y-51428607D01*
X57274329Y-51410883D01*
X57260079Y-51391670D01*
X57247782Y-51371153D01*
X57237554Y-51349529D01*
X57229496Y-51327007D01*
X57223684Y-51303803D01*
X57220174Y-51280142D01*
X57219000Y-51256250D01*
X57219000Y-50343750D01*
X57220174Y-50319858D01*
X57223684Y-50296197D01*
X57229496Y-50272993D01*
X57237554Y-50250471D01*
X57247782Y-50228847D01*
X57260079Y-50208330D01*
X57274329Y-50189117D01*
X57290393Y-50171393D01*
X57308117Y-50155329D01*
X57327330Y-50141079D01*
X57347847Y-50128782D01*
X57369471Y-50118554D01*
X57391993Y-50110496D01*
X57415197Y-50104684D01*
X57438858Y-50101174D01*
X57462750Y-50100000D01*
X57950250Y-50100000D01*
X57974142Y-50101174D01*
X57974142Y-50101174D01*
G37*
D14*
G04 #@! TD*
G04 #@! TO.P,D1,2*
G04 #@! TO.N,Net-(D1-Pad2)*
X57706500Y-50800000D03*
D13*
G04 #@! TO.N,Net-(D1-Pad1)*
G04 #@! TO.C,D2*
G36*
X56780110Y-46586523D02*
X56803874Y-46589257D01*
X56827255Y-46594307D01*
X56850029Y-46601624D01*
X56871976Y-46611138D01*
X56892885Y-46622758D01*
X56912554Y-46636371D01*
X56930794Y-46651847D01*
X56947429Y-46669036D01*
X56962299Y-46687772D01*
X56975262Y-46707876D01*
X57431512Y-47498124D01*
X57442441Y-47519402D01*
X57451232Y-47541648D01*
X57457801Y-47564649D01*
X57462083Y-47588183D01*
X57464037Y-47612024D01*
X57463646Y-47635941D01*
X57460912Y-47659705D01*
X57455862Y-47683086D01*
X57448545Y-47705860D01*
X57439031Y-47727807D01*
X57427411Y-47748716D01*
X57413798Y-47768385D01*
X57398322Y-47786625D01*
X57381134Y-47803260D01*
X57362397Y-47818130D01*
X57342293Y-47831093D01*
X56920105Y-48074843D01*
X56898827Y-48085772D01*
X56876581Y-48094563D01*
X56853580Y-48101132D01*
X56830046Y-48105414D01*
X56806205Y-48107368D01*
X56782288Y-48106977D01*
X56758524Y-48104243D01*
X56735143Y-48099193D01*
X56712369Y-48091876D01*
X56690422Y-48082362D01*
X56669513Y-48070742D01*
X56649844Y-48057129D01*
X56631604Y-48041653D01*
X56614969Y-48024464D01*
X56600099Y-48005728D01*
X56587136Y-47985624D01*
X56130886Y-47195376D01*
X56119957Y-47174098D01*
X56111166Y-47151852D01*
X56104597Y-47128851D01*
X56100315Y-47105317D01*
X56098361Y-47081476D01*
X56098752Y-47057559D01*
X56101486Y-47033795D01*
X56106536Y-47010414D01*
X56113853Y-46987640D01*
X56123367Y-46965693D01*
X56134987Y-46944784D01*
X56148600Y-46925115D01*
X56164076Y-46906875D01*
X56181264Y-46890240D01*
X56200001Y-46875370D01*
X56220105Y-46862407D01*
X56642293Y-46618657D01*
X56663571Y-46607728D01*
X56685817Y-46598937D01*
X56708818Y-46592368D01*
X56732352Y-46588086D01*
X56756193Y-46586132D01*
X56780110Y-46586523D01*
X56780110Y-46586523D01*
G37*
D14*
G04 #@! TD*
G04 #@! TO.P,D2,2*
G04 #@! TO.N,Net-(D1-Pad1)*
X56781199Y-47346750D03*
D13*
G04 #@! TO.N,Net-(D2-Pad1)*
G04 #@! TO.C,D2*
G36*
X55156312Y-47524023D02*
X55180076Y-47526757D01*
X55203457Y-47531807D01*
X55226231Y-47539124D01*
X55248178Y-47548638D01*
X55269087Y-47560258D01*
X55288756Y-47573871D01*
X55306996Y-47589347D01*
X55323631Y-47606536D01*
X55338501Y-47625272D01*
X55351464Y-47645376D01*
X55807714Y-48435624D01*
X55818643Y-48456902D01*
X55827434Y-48479148D01*
X55834003Y-48502149D01*
X55838285Y-48525683D01*
X55840239Y-48549524D01*
X55839848Y-48573441D01*
X55837114Y-48597205D01*
X55832064Y-48620586D01*
X55824747Y-48643360D01*
X55815233Y-48665307D01*
X55803613Y-48686216D01*
X55790000Y-48705885D01*
X55774524Y-48724125D01*
X55757336Y-48740760D01*
X55738599Y-48755630D01*
X55718495Y-48768593D01*
X55296307Y-49012343D01*
X55275029Y-49023272D01*
X55252783Y-49032063D01*
X55229782Y-49038632D01*
X55206248Y-49042914D01*
X55182407Y-49044868D01*
X55158490Y-49044477D01*
X55134726Y-49041743D01*
X55111345Y-49036693D01*
X55088571Y-49029376D01*
X55066624Y-49019862D01*
X55045715Y-49008242D01*
X55026046Y-48994629D01*
X55007806Y-48979153D01*
X54991171Y-48961964D01*
X54976301Y-48943228D01*
X54963338Y-48923124D01*
X54507088Y-48132876D01*
X54496159Y-48111598D01*
X54487368Y-48089352D01*
X54480799Y-48066351D01*
X54476517Y-48042817D01*
X54474563Y-48018976D01*
X54474954Y-47995059D01*
X54477688Y-47971295D01*
X54482738Y-47947914D01*
X54490055Y-47925140D01*
X54499569Y-47903193D01*
X54511189Y-47882284D01*
X54524802Y-47862615D01*
X54540278Y-47844375D01*
X54557466Y-47827740D01*
X54576203Y-47812870D01*
X54596307Y-47799907D01*
X55018495Y-47556157D01*
X55039773Y-47545228D01*
X55062019Y-47536437D01*
X55085020Y-47529868D01*
X55108554Y-47525586D01*
X55132395Y-47523632D01*
X55156312Y-47524023D01*
X55156312Y-47524023D01*
G37*
D14*
G04 #@! TD*
G04 #@! TO.P,D2,1*
G04 #@! TO.N,Net-(D2-Pad1)*
X55157401Y-48284250D03*
D13*
G04 #@! TO.N,Net-(D3-Pad1)*
G04 #@! TO.C,D3*
G36*
X53074317Y-45761715D02*
X53097851Y-45765997D01*
X53120852Y-45772566D01*
X53143098Y-45781357D01*
X53164376Y-45792286D01*
X53954624Y-46248536D01*
X53974728Y-46261499D01*
X53993465Y-46276369D01*
X54010653Y-46293004D01*
X54026129Y-46311244D01*
X54039742Y-46330913D01*
X54051362Y-46351822D01*
X54060876Y-46373769D01*
X54068193Y-46396543D01*
X54073243Y-46419924D01*
X54075977Y-46443688D01*
X54076368Y-46467605D01*
X54074414Y-46491446D01*
X54070132Y-46514980D01*
X54063563Y-46537981D01*
X54054772Y-46560227D01*
X54043843Y-46581505D01*
X53800093Y-47003693D01*
X53787130Y-47023797D01*
X53772260Y-47042533D01*
X53755625Y-47059722D01*
X53737385Y-47075198D01*
X53717716Y-47088811D01*
X53696807Y-47100431D01*
X53674860Y-47109945D01*
X53652086Y-47117262D01*
X53628705Y-47122312D01*
X53604941Y-47125046D01*
X53581024Y-47125437D01*
X53557183Y-47123483D01*
X53533649Y-47119201D01*
X53510648Y-47112632D01*
X53488402Y-47103841D01*
X53467124Y-47092912D01*
X52676876Y-46636662D01*
X52656772Y-46623699D01*
X52638035Y-46608829D01*
X52620847Y-46592194D01*
X52605371Y-46573954D01*
X52591758Y-46554285D01*
X52580138Y-46533376D01*
X52570624Y-46511429D01*
X52563307Y-46488655D01*
X52558257Y-46465274D01*
X52555523Y-46441510D01*
X52555132Y-46417593D01*
X52557086Y-46393752D01*
X52561368Y-46370218D01*
X52567937Y-46347217D01*
X52576728Y-46324971D01*
X52587657Y-46303693D01*
X52831407Y-45881505D01*
X52844370Y-45861401D01*
X52859240Y-45842665D01*
X52875875Y-45825476D01*
X52894115Y-45810000D01*
X52913784Y-45796387D01*
X52934693Y-45784767D01*
X52956640Y-45775253D01*
X52979414Y-45767936D01*
X53002795Y-45762886D01*
X53026559Y-45760152D01*
X53050476Y-45759761D01*
X53074317Y-45761715D01*
X53074317Y-45761715D01*
G37*
D14*
G04 #@! TD*
G04 #@! TO.P,D3,1*
G04 #@! TO.N,Net-(D3-Pad1)*
X53315750Y-46442599D03*
D13*
G04 #@! TO.N,Net-(D2-Pad1)*
G04 #@! TO.C,D3*
G36*
X54011817Y-44137917D02*
X54035351Y-44142199D01*
X54058352Y-44148768D01*
X54080598Y-44157559D01*
X54101876Y-44168488D01*
X54892124Y-44624738D01*
X54912228Y-44637701D01*
X54930965Y-44652571D01*
X54948153Y-44669206D01*
X54963629Y-44687446D01*
X54977242Y-44707115D01*
X54988862Y-44728024D01*
X54998376Y-44749971D01*
X55005693Y-44772745D01*
X55010743Y-44796126D01*
X55013477Y-44819890D01*
X55013868Y-44843807D01*
X55011914Y-44867648D01*
X55007632Y-44891182D01*
X55001063Y-44914183D01*
X54992272Y-44936429D01*
X54981343Y-44957707D01*
X54737593Y-45379895D01*
X54724630Y-45399999D01*
X54709760Y-45418735D01*
X54693125Y-45435924D01*
X54674885Y-45451400D01*
X54655216Y-45465013D01*
X54634307Y-45476633D01*
X54612360Y-45486147D01*
X54589586Y-45493464D01*
X54566205Y-45498514D01*
X54542441Y-45501248D01*
X54518524Y-45501639D01*
X54494683Y-45499685D01*
X54471149Y-45495403D01*
X54448148Y-45488834D01*
X54425902Y-45480043D01*
X54404624Y-45469114D01*
X53614376Y-45012864D01*
X53594272Y-44999901D01*
X53575535Y-44985031D01*
X53558347Y-44968396D01*
X53542871Y-44950156D01*
X53529258Y-44930487D01*
X53517638Y-44909578D01*
X53508124Y-44887631D01*
X53500807Y-44864857D01*
X53495757Y-44841476D01*
X53493023Y-44817712D01*
X53492632Y-44793795D01*
X53494586Y-44769954D01*
X53498868Y-44746420D01*
X53505437Y-44723419D01*
X53514228Y-44701173D01*
X53525157Y-44679895D01*
X53768907Y-44257707D01*
X53781870Y-44237603D01*
X53796740Y-44218867D01*
X53813375Y-44201678D01*
X53831615Y-44186202D01*
X53851284Y-44172589D01*
X53872193Y-44160969D01*
X53894140Y-44151455D01*
X53916914Y-44144138D01*
X53940295Y-44139088D01*
X53964059Y-44136354D01*
X53987976Y-44135963D01*
X54011817Y-44137917D01*
X54011817Y-44137917D01*
G37*
D14*
G04 #@! TD*
G04 #@! TO.P,D3,2*
G04 #@! TO.N,Net-(D2-Pad1)*
X54253250Y-44818801D03*
D13*
G04 #@! TO.N,Net-(D3-Pad1)*
G04 #@! TO.C,D4*
G36*
X51280142Y-43407174D02*
X51303803Y-43410684D01*
X51327007Y-43416496D01*
X51349529Y-43424554D01*
X51371153Y-43434782D01*
X51391670Y-43447079D01*
X51410883Y-43461329D01*
X51428607Y-43477393D01*
X51444671Y-43495117D01*
X51458921Y-43514330D01*
X51471218Y-43534847D01*
X51481446Y-43556471D01*
X51489504Y-43578993D01*
X51495316Y-43602197D01*
X51498826Y-43625858D01*
X51500000Y-43649750D01*
X51500000Y-44137250D01*
X51498826Y-44161142D01*
X51495316Y-44184803D01*
X51489504Y-44208007D01*
X51481446Y-44230529D01*
X51471218Y-44252153D01*
X51458921Y-44272670D01*
X51444671Y-44291883D01*
X51428607Y-44309607D01*
X51410883Y-44325671D01*
X51391670Y-44339921D01*
X51371153Y-44352218D01*
X51349529Y-44362446D01*
X51327007Y-44370504D01*
X51303803Y-44376316D01*
X51280142Y-44379826D01*
X51256250Y-44381000D01*
X50343750Y-44381000D01*
X50319858Y-44379826D01*
X50296197Y-44376316D01*
X50272993Y-44370504D01*
X50250471Y-44362446D01*
X50228847Y-44352218D01*
X50208330Y-44339921D01*
X50189117Y-44325671D01*
X50171393Y-44309607D01*
X50155329Y-44291883D01*
X50141079Y-44272670D01*
X50128782Y-44252153D01*
X50118554Y-44230529D01*
X50110496Y-44208007D01*
X50104684Y-44184803D01*
X50101174Y-44161142D01*
X50100000Y-44137250D01*
X50100000Y-43649750D01*
X50101174Y-43625858D01*
X50104684Y-43602197D01*
X50110496Y-43578993D01*
X50118554Y-43556471D01*
X50128782Y-43534847D01*
X50141079Y-43514330D01*
X50155329Y-43495117D01*
X50171393Y-43477393D01*
X50189117Y-43461329D01*
X50208330Y-43447079D01*
X50228847Y-43434782D01*
X50250471Y-43424554D01*
X50272993Y-43416496D01*
X50296197Y-43410684D01*
X50319858Y-43407174D01*
X50343750Y-43406000D01*
X51256250Y-43406000D01*
X51280142Y-43407174D01*
X51280142Y-43407174D01*
G37*
D14*
G04 #@! TD*
G04 #@! TO.P,D4,2*
G04 #@! TO.N,Net-(D3-Pad1)*
X50800000Y-43893500D03*
D13*
G04 #@! TO.N,Net-(D4-Pad1)*
G04 #@! TO.C,D4*
G36*
X51280142Y-45282174D02*
X51303803Y-45285684D01*
X51327007Y-45291496D01*
X51349529Y-45299554D01*
X51371153Y-45309782D01*
X51391670Y-45322079D01*
X51410883Y-45336329D01*
X51428607Y-45352393D01*
X51444671Y-45370117D01*
X51458921Y-45389330D01*
X51471218Y-45409847D01*
X51481446Y-45431471D01*
X51489504Y-45453993D01*
X51495316Y-45477197D01*
X51498826Y-45500858D01*
X51500000Y-45524750D01*
X51500000Y-46012250D01*
X51498826Y-46036142D01*
X51495316Y-46059803D01*
X51489504Y-46083007D01*
X51481446Y-46105529D01*
X51471218Y-46127153D01*
X51458921Y-46147670D01*
X51444671Y-46166883D01*
X51428607Y-46184607D01*
X51410883Y-46200671D01*
X51391670Y-46214921D01*
X51371153Y-46227218D01*
X51349529Y-46237446D01*
X51327007Y-46245504D01*
X51303803Y-46251316D01*
X51280142Y-46254826D01*
X51256250Y-46256000D01*
X50343750Y-46256000D01*
X50319858Y-46254826D01*
X50296197Y-46251316D01*
X50272993Y-46245504D01*
X50250471Y-46237446D01*
X50228847Y-46227218D01*
X50208330Y-46214921D01*
X50189117Y-46200671D01*
X50171393Y-46184607D01*
X50155329Y-46166883D01*
X50141079Y-46147670D01*
X50128782Y-46127153D01*
X50118554Y-46105529D01*
X50110496Y-46083007D01*
X50104684Y-46059803D01*
X50101174Y-46036142D01*
X50100000Y-46012250D01*
X50100000Y-45524750D01*
X50101174Y-45500858D01*
X50104684Y-45477197D01*
X50110496Y-45453993D01*
X50118554Y-45431471D01*
X50128782Y-45409847D01*
X50141079Y-45389330D01*
X50155329Y-45370117D01*
X50171393Y-45352393D01*
X50189117Y-45336329D01*
X50208330Y-45322079D01*
X50228847Y-45309782D01*
X50250471Y-45299554D01*
X50272993Y-45291496D01*
X50296197Y-45285684D01*
X50319858Y-45282174D01*
X50343750Y-45281000D01*
X51256250Y-45281000D01*
X51280142Y-45282174D01*
X51280142Y-45282174D01*
G37*
D14*
G04 #@! TD*
G04 #@! TO.P,D4,1*
G04 #@! TO.N,Net-(D4-Pad1)*
X50800000Y-45768500D03*
D13*
G04 #@! TO.N,Net-(D5-Pad1)*
G04 #@! TO.C,D5*
G36*
X48573441Y-45760152D02*
X48597205Y-45762886D01*
X48620586Y-45767936D01*
X48643360Y-45775253D01*
X48665307Y-45784767D01*
X48686216Y-45796387D01*
X48705885Y-45810000D01*
X48724125Y-45825476D01*
X48740760Y-45842664D01*
X48755630Y-45861401D01*
X48768593Y-45881505D01*
X49012343Y-46303693D01*
X49023272Y-46324971D01*
X49032063Y-46347217D01*
X49038632Y-46370218D01*
X49042914Y-46393752D01*
X49044868Y-46417593D01*
X49044477Y-46441510D01*
X49041743Y-46465274D01*
X49036693Y-46488655D01*
X49029376Y-46511429D01*
X49019862Y-46533376D01*
X49008242Y-46554285D01*
X48994629Y-46573954D01*
X48979153Y-46592194D01*
X48961964Y-46608829D01*
X48943228Y-46623699D01*
X48923124Y-46636662D01*
X48132876Y-47092912D01*
X48111598Y-47103841D01*
X48089352Y-47112632D01*
X48066351Y-47119201D01*
X48042817Y-47123483D01*
X48018976Y-47125437D01*
X47995059Y-47125046D01*
X47971295Y-47122312D01*
X47947914Y-47117262D01*
X47925140Y-47109945D01*
X47903193Y-47100431D01*
X47882284Y-47088811D01*
X47862615Y-47075198D01*
X47844375Y-47059722D01*
X47827740Y-47042534D01*
X47812870Y-47023797D01*
X47799907Y-47003693D01*
X47556157Y-46581505D01*
X47545228Y-46560227D01*
X47536437Y-46537981D01*
X47529868Y-46514980D01*
X47525586Y-46491446D01*
X47523632Y-46467605D01*
X47524023Y-46443688D01*
X47526757Y-46419924D01*
X47531807Y-46396543D01*
X47539124Y-46373769D01*
X47548638Y-46351822D01*
X47560258Y-46330913D01*
X47573871Y-46311244D01*
X47589347Y-46293004D01*
X47606536Y-46276369D01*
X47625272Y-46261499D01*
X47645376Y-46248536D01*
X48435624Y-45792286D01*
X48456902Y-45781357D01*
X48479148Y-45772566D01*
X48502149Y-45765997D01*
X48525683Y-45761715D01*
X48549524Y-45759761D01*
X48573441Y-45760152D01*
X48573441Y-45760152D01*
G37*
D14*
G04 #@! TD*
G04 #@! TO.P,D5,1*
G04 #@! TO.N,Net-(D5-Pad1)*
X48284250Y-46442599D03*
D13*
G04 #@! TO.N,Net-(D4-Pad1)*
G04 #@! TO.C,D5*
G36*
X47635941Y-44136354D02*
X47659705Y-44139088D01*
X47683086Y-44144138D01*
X47705860Y-44151455D01*
X47727807Y-44160969D01*
X47748716Y-44172589D01*
X47768385Y-44186202D01*
X47786625Y-44201678D01*
X47803260Y-44218866D01*
X47818130Y-44237603D01*
X47831093Y-44257707D01*
X48074843Y-44679895D01*
X48085772Y-44701173D01*
X48094563Y-44723419D01*
X48101132Y-44746420D01*
X48105414Y-44769954D01*
X48107368Y-44793795D01*
X48106977Y-44817712D01*
X48104243Y-44841476D01*
X48099193Y-44864857D01*
X48091876Y-44887631D01*
X48082362Y-44909578D01*
X48070742Y-44930487D01*
X48057129Y-44950156D01*
X48041653Y-44968396D01*
X48024464Y-44985031D01*
X48005728Y-44999901D01*
X47985624Y-45012864D01*
X47195376Y-45469114D01*
X47174098Y-45480043D01*
X47151852Y-45488834D01*
X47128851Y-45495403D01*
X47105317Y-45499685D01*
X47081476Y-45501639D01*
X47057559Y-45501248D01*
X47033795Y-45498514D01*
X47010414Y-45493464D01*
X46987640Y-45486147D01*
X46965693Y-45476633D01*
X46944784Y-45465013D01*
X46925115Y-45451400D01*
X46906875Y-45435924D01*
X46890240Y-45418736D01*
X46875370Y-45399999D01*
X46862407Y-45379895D01*
X46618657Y-44957707D01*
X46607728Y-44936429D01*
X46598937Y-44914183D01*
X46592368Y-44891182D01*
X46588086Y-44867648D01*
X46586132Y-44843807D01*
X46586523Y-44819890D01*
X46589257Y-44796126D01*
X46594307Y-44772745D01*
X46601624Y-44749971D01*
X46611138Y-44728024D01*
X46622758Y-44707115D01*
X46636371Y-44687446D01*
X46651847Y-44669206D01*
X46669036Y-44652571D01*
X46687772Y-44637701D01*
X46707876Y-44624738D01*
X47498124Y-44168488D01*
X47519402Y-44157559D01*
X47541648Y-44148768D01*
X47564649Y-44142199D01*
X47588183Y-44137917D01*
X47612024Y-44135963D01*
X47635941Y-44136354D01*
X47635941Y-44136354D01*
G37*
D14*
G04 #@! TD*
G04 #@! TO.P,D5,2*
G04 #@! TO.N,Net-(D4-Pad1)*
X47346750Y-44818801D03*
D13*
G04 #@! TO.N,Net-(D5-Pad1)*
G04 #@! TO.C,D6*
G36*
X44867648Y-46588086D02*
X44891182Y-46592368D01*
X44914183Y-46598937D01*
X44936429Y-46607728D01*
X44957707Y-46618657D01*
X45379895Y-46862407D01*
X45399999Y-46875370D01*
X45418735Y-46890240D01*
X45435924Y-46906875D01*
X45451400Y-46925115D01*
X45465013Y-46944784D01*
X45476633Y-46965693D01*
X45486147Y-46987640D01*
X45493464Y-47010414D01*
X45498514Y-47033795D01*
X45501248Y-47057559D01*
X45501639Y-47081476D01*
X45499685Y-47105317D01*
X45495403Y-47128851D01*
X45488834Y-47151852D01*
X45480043Y-47174098D01*
X45469114Y-47195376D01*
X45012864Y-47985624D01*
X44999901Y-48005728D01*
X44985031Y-48024465D01*
X44968396Y-48041653D01*
X44950156Y-48057129D01*
X44930487Y-48070742D01*
X44909578Y-48082362D01*
X44887631Y-48091876D01*
X44864857Y-48099193D01*
X44841476Y-48104243D01*
X44817712Y-48106977D01*
X44793795Y-48107368D01*
X44769954Y-48105414D01*
X44746420Y-48101132D01*
X44723419Y-48094563D01*
X44701173Y-48085772D01*
X44679895Y-48074843D01*
X44257707Y-47831093D01*
X44237603Y-47818130D01*
X44218867Y-47803260D01*
X44201678Y-47786625D01*
X44186202Y-47768385D01*
X44172589Y-47748716D01*
X44160969Y-47727807D01*
X44151455Y-47705860D01*
X44144138Y-47683086D01*
X44139088Y-47659705D01*
X44136354Y-47635941D01*
X44135963Y-47612024D01*
X44137917Y-47588183D01*
X44142199Y-47564649D01*
X44148768Y-47541648D01*
X44157559Y-47519402D01*
X44168488Y-47498124D01*
X44624738Y-46707876D01*
X44637701Y-46687772D01*
X44652571Y-46669035D01*
X44669206Y-46651847D01*
X44687446Y-46636371D01*
X44707115Y-46622758D01*
X44728024Y-46611138D01*
X44749971Y-46601624D01*
X44772745Y-46594307D01*
X44796126Y-46589257D01*
X44819890Y-46586523D01*
X44843807Y-46586132D01*
X44867648Y-46588086D01*
X44867648Y-46588086D01*
G37*
D14*
G04 #@! TD*
G04 #@! TO.P,D6,2*
G04 #@! TO.N,Net-(D5-Pad1)*
X44818801Y-47346750D03*
D13*
G04 #@! TO.N,Net-(D6-Pad1)*
G04 #@! TO.C,D6*
G36*
X46491446Y-47525586D02*
X46514980Y-47529868D01*
X46537981Y-47536437D01*
X46560227Y-47545228D01*
X46581505Y-47556157D01*
X47003693Y-47799907D01*
X47023797Y-47812870D01*
X47042533Y-47827740D01*
X47059722Y-47844375D01*
X47075198Y-47862615D01*
X47088811Y-47882284D01*
X47100431Y-47903193D01*
X47109945Y-47925140D01*
X47117262Y-47947914D01*
X47122312Y-47971295D01*
X47125046Y-47995059D01*
X47125437Y-48018976D01*
X47123483Y-48042817D01*
X47119201Y-48066351D01*
X47112632Y-48089352D01*
X47103841Y-48111598D01*
X47092912Y-48132876D01*
X46636662Y-48923124D01*
X46623699Y-48943228D01*
X46608829Y-48961965D01*
X46592194Y-48979153D01*
X46573954Y-48994629D01*
X46554285Y-49008242D01*
X46533376Y-49019862D01*
X46511429Y-49029376D01*
X46488655Y-49036693D01*
X46465274Y-49041743D01*
X46441510Y-49044477D01*
X46417593Y-49044868D01*
X46393752Y-49042914D01*
X46370218Y-49038632D01*
X46347217Y-49032063D01*
X46324971Y-49023272D01*
X46303693Y-49012343D01*
X45881505Y-48768593D01*
X45861401Y-48755630D01*
X45842665Y-48740760D01*
X45825476Y-48724125D01*
X45810000Y-48705885D01*
X45796387Y-48686216D01*
X45784767Y-48665307D01*
X45775253Y-48643360D01*
X45767936Y-48620586D01*
X45762886Y-48597205D01*
X45760152Y-48573441D01*
X45759761Y-48549524D01*
X45761715Y-48525683D01*
X45765997Y-48502149D01*
X45772566Y-48479148D01*
X45781357Y-48456902D01*
X45792286Y-48435624D01*
X46248536Y-47645376D01*
X46261499Y-47625272D01*
X46276369Y-47606535D01*
X46293004Y-47589347D01*
X46311244Y-47573871D01*
X46330913Y-47560258D01*
X46351822Y-47548638D01*
X46373769Y-47539124D01*
X46396543Y-47531807D01*
X46419924Y-47526757D01*
X46443688Y-47524023D01*
X46467605Y-47523632D01*
X46491446Y-47525586D01*
X46491446Y-47525586D01*
G37*
D14*
G04 #@! TD*
G04 #@! TO.P,D6,1*
G04 #@! TO.N,Net-(D6-Pad1)*
X46442599Y-48284250D03*
D13*
G04 #@! TO.N,Net-(D7-Pad1)*
G04 #@! TO.C,D7*
G36*
X46036142Y-50101174D02*
X46059803Y-50104684D01*
X46083007Y-50110496D01*
X46105529Y-50118554D01*
X46127153Y-50128782D01*
X46147670Y-50141079D01*
X46166883Y-50155329D01*
X46184607Y-50171393D01*
X46200671Y-50189117D01*
X46214921Y-50208330D01*
X46227218Y-50228847D01*
X46237446Y-50250471D01*
X46245504Y-50272993D01*
X46251316Y-50296197D01*
X46254826Y-50319858D01*
X46256000Y-50343750D01*
X46256000Y-51256250D01*
X46254826Y-51280142D01*
X46251316Y-51303803D01*
X46245504Y-51327007D01*
X46237446Y-51349529D01*
X46227218Y-51371153D01*
X46214921Y-51391670D01*
X46200671Y-51410883D01*
X46184607Y-51428607D01*
X46166883Y-51444671D01*
X46147670Y-51458921D01*
X46127153Y-51471218D01*
X46105529Y-51481446D01*
X46083007Y-51489504D01*
X46059803Y-51495316D01*
X46036142Y-51498826D01*
X46012250Y-51500000D01*
X45524750Y-51500000D01*
X45500858Y-51498826D01*
X45477197Y-51495316D01*
X45453993Y-51489504D01*
X45431471Y-51481446D01*
X45409847Y-51471218D01*
X45389330Y-51458921D01*
X45370117Y-51444671D01*
X45352393Y-51428607D01*
X45336329Y-51410883D01*
X45322079Y-51391670D01*
X45309782Y-51371153D01*
X45299554Y-51349529D01*
X45291496Y-51327007D01*
X45285684Y-51303803D01*
X45282174Y-51280142D01*
X45281000Y-51256250D01*
X45281000Y-50343750D01*
X45282174Y-50319858D01*
X45285684Y-50296197D01*
X45291496Y-50272993D01*
X45299554Y-50250471D01*
X45309782Y-50228847D01*
X45322079Y-50208330D01*
X45336329Y-50189117D01*
X45352393Y-50171393D01*
X45370117Y-50155329D01*
X45389330Y-50141079D01*
X45409847Y-50128782D01*
X45431471Y-50118554D01*
X45453993Y-50110496D01*
X45477197Y-50104684D01*
X45500858Y-50101174D01*
X45524750Y-50100000D01*
X46012250Y-50100000D01*
X46036142Y-50101174D01*
X46036142Y-50101174D01*
G37*
D14*
G04 #@! TD*
G04 #@! TO.P,D7,1*
G04 #@! TO.N,Net-(D7-Pad1)*
X45768500Y-50800000D03*
D13*
G04 #@! TO.N,Net-(D1-Pad2)*
G04 #@! TO.C,D7*
G36*
X44161142Y-50101174D02*
X44184803Y-50104684D01*
X44208007Y-50110496D01*
X44230529Y-50118554D01*
X44252153Y-50128782D01*
X44272670Y-50141079D01*
X44291883Y-50155329D01*
X44309607Y-50171393D01*
X44325671Y-50189117D01*
X44339921Y-50208330D01*
X44352218Y-50228847D01*
X44362446Y-50250471D01*
X44370504Y-50272993D01*
X44376316Y-50296197D01*
X44379826Y-50319858D01*
X44381000Y-50343750D01*
X44381000Y-51256250D01*
X44379826Y-51280142D01*
X44376316Y-51303803D01*
X44370504Y-51327007D01*
X44362446Y-51349529D01*
X44352218Y-51371153D01*
X44339921Y-51391670D01*
X44325671Y-51410883D01*
X44309607Y-51428607D01*
X44291883Y-51444671D01*
X44272670Y-51458921D01*
X44252153Y-51471218D01*
X44230529Y-51481446D01*
X44208007Y-51489504D01*
X44184803Y-51495316D01*
X44161142Y-51498826D01*
X44137250Y-51500000D01*
X43649750Y-51500000D01*
X43625858Y-51498826D01*
X43602197Y-51495316D01*
X43578993Y-51489504D01*
X43556471Y-51481446D01*
X43534847Y-51471218D01*
X43514330Y-51458921D01*
X43495117Y-51444671D01*
X43477393Y-51428607D01*
X43461329Y-51410883D01*
X43447079Y-51391670D01*
X43434782Y-51371153D01*
X43424554Y-51349529D01*
X43416496Y-51327007D01*
X43410684Y-51303803D01*
X43407174Y-51280142D01*
X43406000Y-51256250D01*
X43406000Y-50343750D01*
X43407174Y-50319858D01*
X43410684Y-50296197D01*
X43416496Y-50272993D01*
X43424554Y-50250471D01*
X43434782Y-50228847D01*
X43447079Y-50208330D01*
X43461329Y-50189117D01*
X43477393Y-50171393D01*
X43495117Y-50155329D01*
X43514330Y-50141079D01*
X43534847Y-50128782D01*
X43556471Y-50118554D01*
X43578993Y-50110496D01*
X43602197Y-50104684D01*
X43625858Y-50101174D01*
X43649750Y-50100000D01*
X44137250Y-50100000D01*
X44161142Y-50101174D01*
X44161142Y-50101174D01*
G37*
D14*
G04 #@! TD*
G04 #@! TO.P,D7,2*
G04 #@! TO.N,Net-(D1-Pad2)*
X43893500Y-50800000D03*
D13*
G04 #@! TO.N,Net-(D7-Pad1)*
G04 #@! TO.C,D8*
G36*
X44817712Y-53493023D02*
X44841476Y-53495757D01*
X44864857Y-53500807D01*
X44887631Y-53508124D01*
X44909578Y-53517638D01*
X44930487Y-53529258D01*
X44950156Y-53542871D01*
X44968396Y-53558347D01*
X44985031Y-53575536D01*
X44999901Y-53594272D01*
X45012864Y-53614376D01*
X45469114Y-54404624D01*
X45480043Y-54425902D01*
X45488834Y-54448148D01*
X45495403Y-54471149D01*
X45499685Y-54494683D01*
X45501639Y-54518524D01*
X45501248Y-54542441D01*
X45498514Y-54566205D01*
X45493464Y-54589586D01*
X45486147Y-54612360D01*
X45476633Y-54634307D01*
X45465013Y-54655216D01*
X45451400Y-54674885D01*
X45435924Y-54693125D01*
X45418736Y-54709760D01*
X45399999Y-54724630D01*
X45379895Y-54737593D01*
X44957707Y-54981343D01*
X44936429Y-54992272D01*
X44914183Y-55001063D01*
X44891182Y-55007632D01*
X44867648Y-55011914D01*
X44843807Y-55013868D01*
X44819890Y-55013477D01*
X44796126Y-55010743D01*
X44772745Y-55005693D01*
X44749971Y-54998376D01*
X44728024Y-54988862D01*
X44707115Y-54977242D01*
X44687446Y-54963629D01*
X44669206Y-54948153D01*
X44652571Y-54930964D01*
X44637701Y-54912228D01*
X44624738Y-54892124D01*
X44168488Y-54101876D01*
X44157559Y-54080598D01*
X44148768Y-54058352D01*
X44142199Y-54035351D01*
X44137917Y-54011817D01*
X44135963Y-53987976D01*
X44136354Y-53964059D01*
X44139088Y-53940295D01*
X44144138Y-53916914D01*
X44151455Y-53894140D01*
X44160969Y-53872193D01*
X44172589Y-53851284D01*
X44186202Y-53831615D01*
X44201678Y-53813375D01*
X44218866Y-53796740D01*
X44237603Y-53781870D01*
X44257707Y-53768907D01*
X44679895Y-53525157D01*
X44701173Y-53514228D01*
X44723419Y-53505437D01*
X44746420Y-53498868D01*
X44769954Y-53494586D01*
X44793795Y-53492632D01*
X44817712Y-53493023D01*
X44817712Y-53493023D01*
G37*
D14*
G04 #@! TD*
G04 #@! TO.P,D8,2*
G04 #@! TO.N,Net-(D7-Pad1)*
X44818801Y-54253250D03*
D13*
G04 #@! TO.N,Net-(D8-Pad1)*
G04 #@! TO.C,D8*
G36*
X46441510Y-52555523D02*
X46465274Y-52558257D01*
X46488655Y-52563307D01*
X46511429Y-52570624D01*
X46533376Y-52580138D01*
X46554285Y-52591758D01*
X46573954Y-52605371D01*
X46592194Y-52620847D01*
X46608829Y-52638036D01*
X46623699Y-52656772D01*
X46636662Y-52676876D01*
X47092912Y-53467124D01*
X47103841Y-53488402D01*
X47112632Y-53510648D01*
X47119201Y-53533649D01*
X47123483Y-53557183D01*
X47125437Y-53581024D01*
X47125046Y-53604941D01*
X47122312Y-53628705D01*
X47117262Y-53652086D01*
X47109945Y-53674860D01*
X47100431Y-53696807D01*
X47088811Y-53717716D01*
X47075198Y-53737385D01*
X47059722Y-53755625D01*
X47042534Y-53772260D01*
X47023797Y-53787130D01*
X47003693Y-53800093D01*
X46581505Y-54043843D01*
X46560227Y-54054772D01*
X46537981Y-54063563D01*
X46514980Y-54070132D01*
X46491446Y-54074414D01*
X46467605Y-54076368D01*
X46443688Y-54075977D01*
X46419924Y-54073243D01*
X46396543Y-54068193D01*
X46373769Y-54060876D01*
X46351822Y-54051362D01*
X46330913Y-54039742D01*
X46311244Y-54026129D01*
X46293004Y-54010653D01*
X46276369Y-53993464D01*
X46261499Y-53974728D01*
X46248536Y-53954624D01*
X45792286Y-53164376D01*
X45781357Y-53143098D01*
X45772566Y-53120852D01*
X45765997Y-53097851D01*
X45761715Y-53074317D01*
X45759761Y-53050476D01*
X45760152Y-53026559D01*
X45762886Y-53002795D01*
X45767936Y-52979414D01*
X45775253Y-52956640D01*
X45784767Y-52934693D01*
X45796387Y-52913784D01*
X45810000Y-52894115D01*
X45825476Y-52875875D01*
X45842664Y-52859240D01*
X45861401Y-52844370D01*
X45881505Y-52831407D01*
X46303693Y-52587657D01*
X46324971Y-52576728D01*
X46347217Y-52567937D01*
X46370218Y-52561368D01*
X46393752Y-52557086D01*
X46417593Y-52555132D01*
X46441510Y-52555523D01*
X46441510Y-52555523D01*
G37*
D14*
G04 #@! TD*
G04 #@! TO.P,D8,1*
G04 #@! TO.N,Net-(D8-Pad1)*
X46442599Y-53315750D03*
D13*
G04 #@! TO.N,Net-(D10-Pad2)*
G04 #@! TO.C,D9*
G36*
X48042817Y-54476517D02*
X48066351Y-54480799D01*
X48089352Y-54487368D01*
X48111598Y-54496159D01*
X48132876Y-54507088D01*
X48923124Y-54963338D01*
X48943228Y-54976301D01*
X48961965Y-54991171D01*
X48979153Y-55007806D01*
X48994629Y-55026046D01*
X49008242Y-55045715D01*
X49019862Y-55066624D01*
X49029376Y-55088571D01*
X49036693Y-55111345D01*
X49041743Y-55134726D01*
X49044477Y-55158490D01*
X49044868Y-55182407D01*
X49042914Y-55206248D01*
X49038632Y-55229782D01*
X49032063Y-55252783D01*
X49023272Y-55275029D01*
X49012343Y-55296307D01*
X48768593Y-55718495D01*
X48755630Y-55738599D01*
X48740760Y-55757335D01*
X48724125Y-55774524D01*
X48705885Y-55790000D01*
X48686216Y-55803613D01*
X48665307Y-55815233D01*
X48643360Y-55824747D01*
X48620586Y-55832064D01*
X48597205Y-55837114D01*
X48573441Y-55839848D01*
X48549524Y-55840239D01*
X48525683Y-55838285D01*
X48502149Y-55834003D01*
X48479148Y-55827434D01*
X48456902Y-55818643D01*
X48435624Y-55807714D01*
X47645376Y-55351464D01*
X47625272Y-55338501D01*
X47606535Y-55323631D01*
X47589347Y-55306996D01*
X47573871Y-55288756D01*
X47560258Y-55269087D01*
X47548638Y-55248178D01*
X47539124Y-55226231D01*
X47531807Y-55203457D01*
X47526757Y-55180076D01*
X47524023Y-55156312D01*
X47523632Y-55132395D01*
X47525586Y-55108554D01*
X47529868Y-55085020D01*
X47536437Y-55062019D01*
X47545228Y-55039773D01*
X47556157Y-55018495D01*
X47799907Y-54596307D01*
X47812870Y-54576203D01*
X47827740Y-54557467D01*
X47844375Y-54540278D01*
X47862615Y-54524802D01*
X47882284Y-54511189D01*
X47903193Y-54499569D01*
X47925140Y-54490055D01*
X47947914Y-54482738D01*
X47971295Y-54477688D01*
X47995059Y-54474954D01*
X48018976Y-54474563D01*
X48042817Y-54476517D01*
X48042817Y-54476517D01*
G37*
D14*
G04 #@! TD*
G04 #@! TO.P,D9,1*
G04 #@! TO.N,Net-(D10-Pad2)*
X48284250Y-55157401D03*
D13*
G04 #@! TO.N,Net-(D8-Pad1)*
G04 #@! TO.C,D9*
G36*
X47105317Y-56100315D02*
X47128851Y-56104597D01*
X47151852Y-56111166D01*
X47174098Y-56119957D01*
X47195376Y-56130886D01*
X47985624Y-56587136D01*
X48005728Y-56600099D01*
X48024465Y-56614969D01*
X48041653Y-56631604D01*
X48057129Y-56649844D01*
X48070742Y-56669513D01*
X48082362Y-56690422D01*
X48091876Y-56712369D01*
X48099193Y-56735143D01*
X48104243Y-56758524D01*
X48106977Y-56782288D01*
X48107368Y-56806205D01*
X48105414Y-56830046D01*
X48101132Y-56853580D01*
X48094563Y-56876581D01*
X48085772Y-56898827D01*
X48074843Y-56920105D01*
X47831093Y-57342293D01*
X47818130Y-57362397D01*
X47803260Y-57381133D01*
X47786625Y-57398322D01*
X47768385Y-57413798D01*
X47748716Y-57427411D01*
X47727807Y-57439031D01*
X47705860Y-57448545D01*
X47683086Y-57455862D01*
X47659705Y-57460912D01*
X47635941Y-57463646D01*
X47612024Y-57464037D01*
X47588183Y-57462083D01*
X47564649Y-57457801D01*
X47541648Y-57451232D01*
X47519402Y-57442441D01*
X47498124Y-57431512D01*
X46707876Y-56975262D01*
X46687772Y-56962299D01*
X46669035Y-56947429D01*
X46651847Y-56930794D01*
X46636371Y-56912554D01*
X46622758Y-56892885D01*
X46611138Y-56871976D01*
X46601624Y-56850029D01*
X46594307Y-56827255D01*
X46589257Y-56803874D01*
X46586523Y-56780110D01*
X46586132Y-56756193D01*
X46588086Y-56732352D01*
X46592368Y-56708818D01*
X46598937Y-56685817D01*
X46607728Y-56663571D01*
X46618657Y-56642293D01*
X46862407Y-56220105D01*
X46875370Y-56200001D01*
X46890240Y-56181265D01*
X46906875Y-56164076D01*
X46925115Y-56148600D01*
X46944784Y-56134987D01*
X46965693Y-56123367D01*
X46987640Y-56113853D01*
X47010414Y-56106536D01*
X47033795Y-56101486D01*
X47057559Y-56098752D01*
X47081476Y-56098361D01*
X47105317Y-56100315D01*
X47105317Y-56100315D01*
G37*
D14*
G04 #@! TD*
G04 #@! TO.P,D9,2*
G04 #@! TO.N,Net-(D8-Pad1)*
X47346750Y-56781199D03*
D13*
G04 #@! TO.N,Net-(D10-Pad2)*
G04 #@! TO.C,D10*
G36*
X51280142Y-57220174D02*
X51303803Y-57223684D01*
X51327007Y-57229496D01*
X51349529Y-57237554D01*
X51371153Y-57247782D01*
X51391670Y-57260079D01*
X51410883Y-57274329D01*
X51428607Y-57290393D01*
X51444671Y-57308117D01*
X51458921Y-57327330D01*
X51471218Y-57347847D01*
X51481446Y-57369471D01*
X51489504Y-57391993D01*
X51495316Y-57415197D01*
X51498826Y-57438858D01*
X51500000Y-57462750D01*
X51500000Y-57950250D01*
X51498826Y-57974142D01*
X51495316Y-57997803D01*
X51489504Y-58021007D01*
X51481446Y-58043529D01*
X51471218Y-58065153D01*
X51458921Y-58085670D01*
X51444671Y-58104883D01*
X51428607Y-58122607D01*
X51410883Y-58138671D01*
X51391670Y-58152921D01*
X51371153Y-58165218D01*
X51349529Y-58175446D01*
X51327007Y-58183504D01*
X51303803Y-58189316D01*
X51280142Y-58192826D01*
X51256250Y-58194000D01*
X50343750Y-58194000D01*
X50319858Y-58192826D01*
X50296197Y-58189316D01*
X50272993Y-58183504D01*
X50250471Y-58175446D01*
X50228847Y-58165218D01*
X50208330Y-58152921D01*
X50189117Y-58138671D01*
X50171393Y-58122607D01*
X50155329Y-58104883D01*
X50141079Y-58085670D01*
X50128782Y-58065153D01*
X50118554Y-58043529D01*
X50110496Y-58021007D01*
X50104684Y-57997803D01*
X50101174Y-57974142D01*
X50100000Y-57950250D01*
X50100000Y-57462750D01*
X50101174Y-57438858D01*
X50104684Y-57415197D01*
X50110496Y-57391993D01*
X50118554Y-57369471D01*
X50128782Y-57347847D01*
X50141079Y-57327330D01*
X50155329Y-57308117D01*
X50171393Y-57290393D01*
X50189117Y-57274329D01*
X50208330Y-57260079D01*
X50228847Y-57247782D01*
X50250471Y-57237554D01*
X50272993Y-57229496D01*
X50296197Y-57223684D01*
X50319858Y-57220174D01*
X50343750Y-57219000D01*
X51256250Y-57219000D01*
X51280142Y-57220174D01*
X51280142Y-57220174D01*
G37*
D14*
G04 #@! TD*
G04 #@! TO.P,D10,2*
G04 #@! TO.N,Net-(D10-Pad2)*
X50800000Y-57706500D03*
D13*
G04 #@! TO.N,Net-(D10-Pad1)*
G04 #@! TO.C,D10*
G36*
X51280142Y-55345174D02*
X51303803Y-55348684D01*
X51327007Y-55354496D01*
X51349529Y-55362554D01*
X51371153Y-55372782D01*
X51391670Y-55385079D01*
X51410883Y-55399329D01*
X51428607Y-55415393D01*
X51444671Y-55433117D01*
X51458921Y-55452330D01*
X51471218Y-55472847D01*
X51481446Y-55494471D01*
X51489504Y-55516993D01*
X51495316Y-55540197D01*
X51498826Y-55563858D01*
X51500000Y-55587750D01*
X51500000Y-56075250D01*
X51498826Y-56099142D01*
X51495316Y-56122803D01*
X51489504Y-56146007D01*
X51481446Y-56168529D01*
X51471218Y-56190153D01*
X51458921Y-56210670D01*
X51444671Y-56229883D01*
X51428607Y-56247607D01*
X51410883Y-56263671D01*
X51391670Y-56277921D01*
X51371153Y-56290218D01*
X51349529Y-56300446D01*
X51327007Y-56308504D01*
X51303803Y-56314316D01*
X51280142Y-56317826D01*
X51256250Y-56319000D01*
X50343750Y-56319000D01*
X50319858Y-56317826D01*
X50296197Y-56314316D01*
X50272993Y-56308504D01*
X50250471Y-56300446D01*
X50228847Y-56290218D01*
X50208330Y-56277921D01*
X50189117Y-56263671D01*
X50171393Y-56247607D01*
X50155329Y-56229883D01*
X50141079Y-56210670D01*
X50128782Y-56190153D01*
X50118554Y-56168529D01*
X50110496Y-56146007D01*
X50104684Y-56122803D01*
X50101174Y-56099142D01*
X50100000Y-56075250D01*
X50100000Y-55587750D01*
X50101174Y-55563858D01*
X50104684Y-55540197D01*
X50110496Y-55516993D01*
X50118554Y-55494471D01*
X50128782Y-55472847D01*
X50141079Y-55452330D01*
X50155329Y-55433117D01*
X50171393Y-55415393D01*
X50189117Y-55399329D01*
X50208330Y-55385079D01*
X50228847Y-55372782D01*
X50250471Y-55362554D01*
X50272993Y-55354496D01*
X50296197Y-55348684D01*
X50319858Y-55345174D01*
X50343750Y-55344000D01*
X51256250Y-55344000D01*
X51280142Y-55345174D01*
X51280142Y-55345174D01*
G37*
D14*
G04 #@! TD*
G04 #@! TO.P,D10,1*
G04 #@! TO.N,Net-(D10-Pad1)*
X50800000Y-55831500D03*
D13*
G04 #@! TO.N,Net-(D11-Pad1)*
G04 #@! TO.C,D11*
G36*
X53604941Y-54474954D02*
X53628705Y-54477688D01*
X53652086Y-54482738D01*
X53674860Y-54490055D01*
X53696807Y-54499569D01*
X53717716Y-54511189D01*
X53737385Y-54524802D01*
X53755625Y-54540278D01*
X53772260Y-54557466D01*
X53787130Y-54576203D01*
X53800093Y-54596307D01*
X54043843Y-55018495D01*
X54054772Y-55039773D01*
X54063563Y-55062019D01*
X54070132Y-55085020D01*
X54074414Y-55108554D01*
X54076368Y-55132395D01*
X54075977Y-55156312D01*
X54073243Y-55180076D01*
X54068193Y-55203457D01*
X54060876Y-55226231D01*
X54051362Y-55248178D01*
X54039742Y-55269087D01*
X54026129Y-55288756D01*
X54010653Y-55306996D01*
X53993464Y-55323631D01*
X53974728Y-55338501D01*
X53954624Y-55351464D01*
X53164376Y-55807714D01*
X53143098Y-55818643D01*
X53120852Y-55827434D01*
X53097851Y-55834003D01*
X53074317Y-55838285D01*
X53050476Y-55840239D01*
X53026559Y-55839848D01*
X53002795Y-55837114D01*
X52979414Y-55832064D01*
X52956640Y-55824747D01*
X52934693Y-55815233D01*
X52913784Y-55803613D01*
X52894115Y-55790000D01*
X52875875Y-55774524D01*
X52859240Y-55757336D01*
X52844370Y-55738599D01*
X52831407Y-55718495D01*
X52587657Y-55296307D01*
X52576728Y-55275029D01*
X52567937Y-55252783D01*
X52561368Y-55229782D01*
X52557086Y-55206248D01*
X52555132Y-55182407D01*
X52555523Y-55158490D01*
X52558257Y-55134726D01*
X52563307Y-55111345D01*
X52570624Y-55088571D01*
X52580138Y-55066624D01*
X52591758Y-55045715D01*
X52605371Y-55026046D01*
X52620847Y-55007806D01*
X52638036Y-54991171D01*
X52656772Y-54976301D01*
X52676876Y-54963338D01*
X53467124Y-54507088D01*
X53488402Y-54496159D01*
X53510648Y-54487368D01*
X53533649Y-54480799D01*
X53557183Y-54476517D01*
X53581024Y-54474563D01*
X53604941Y-54474954D01*
X53604941Y-54474954D01*
G37*
D14*
G04 #@! TD*
G04 #@! TO.P,D11,1*
G04 #@! TO.N,Net-(D11-Pad1)*
X53315750Y-55157401D03*
D13*
G04 #@! TO.N,Net-(D10-Pad1)*
G04 #@! TO.C,D11*
G36*
X54542441Y-56098752D02*
X54566205Y-56101486D01*
X54589586Y-56106536D01*
X54612360Y-56113853D01*
X54634307Y-56123367D01*
X54655216Y-56134987D01*
X54674885Y-56148600D01*
X54693125Y-56164076D01*
X54709760Y-56181264D01*
X54724630Y-56200001D01*
X54737593Y-56220105D01*
X54981343Y-56642293D01*
X54992272Y-56663571D01*
X55001063Y-56685817D01*
X55007632Y-56708818D01*
X55011914Y-56732352D01*
X55013868Y-56756193D01*
X55013477Y-56780110D01*
X55010743Y-56803874D01*
X55005693Y-56827255D01*
X54998376Y-56850029D01*
X54988862Y-56871976D01*
X54977242Y-56892885D01*
X54963629Y-56912554D01*
X54948153Y-56930794D01*
X54930964Y-56947429D01*
X54912228Y-56962299D01*
X54892124Y-56975262D01*
X54101876Y-57431512D01*
X54080598Y-57442441D01*
X54058352Y-57451232D01*
X54035351Y-57457801D01*
X54011817Y-57462083D01*
X53987976Y-57464037D01*
X53964059Y-57463646D01*
X53940295Y-57460912D01*
X53916914Y-57455862D01*
X53894140Y-57448545D01*
X53872193Y-57439031D01*
X53851284Y-57427411D01*
X53831615Y-57413798D01*
X53813375Y-57398322D01*
X53796740Y-57381134D01*
X53781870Y-57362397D01*
X53768907Y-57342293D01*
X53525157Y-56920105D01*
X53514228Y-56898827D01*
X53505437Y-56876581D01*
X53498868Y-56853580D01*
X53494586Y-56830046D01*
X53492632Y-56806205D01*
X53493023Y-56782288D01*
X53495757Y-56758524D01*
X53500807Y-56735143D01*
X53508124Y-56712369D01*
X53517638Y-56690422D01*
X53529258Y-56669513D01*
X53542871Y-56649844D01*
X53558347Y-56631604D01*
X53575536Y-56614969D01*
X53594272Y-56600099D01*
X53614376Y-56587136D01*
X54404624Y-56130886D01*
X54425902Y-56119957D01*
X54448148Y-56111166D01*
X54471149Y-56104597D01*
X54494683Y-56100315D01*
X54518524Y-56098361D01*
X54542441Y-56098752D01*
X54542441Y-56098752D01*
G37*
D14*
G04 #@! TD*
G04 #@! TO.P,D11,2*
G04 #@! TO.N,Net-(D10-Pad1)*
X54253250Y-56781199D03*
D13*
G04 #@! TO.N,Net-(D11-Pad1)*
G04 #@! TO.C,D12*
G36*
X56830046Y-53494586D02*
X56853580Y-53498868D01*
X56876581Y-53505437D01*
X56898827Y-53514228D01*
X56920105Y-53525157D01*
X57342293Y-53768907D01*
X57362397Y-53781870D01*
X57381133Y-53796740D01*
X57398322Y-53813375D01*
X57413798Y-53831615D01*
X57427411Y-53851284D01*
X57439031Y-53872193D01*
X57448545Y-53894140D01*
X57455862Y-53916914D01*
X57460912Y-53940295D01*
X57463646Y-53964059D01*
X57464037Y-53987976D01*
X57462083Y-54011817D01*
X57457801Y-54035351D01*
X57451232Y-54058352D01*
X57442441Y-54080598D01*
X57431512Y-54101876D01*
X56975262Y-54892124D01*
X56962299Y-54912228D01*
X56947429Y-54930965D01*
X56930794Y-54948153D01*
X56912554Y-54963629D01*
X56892885Y-54977242D01*
X56871976Y-54988862D01*
X56850029Y-54998376D01*
X56827255Y-55005693D01*
X56803874Y-55010743D01*
X56780110Y-55013477D01*
X56756193Y-55013868D01*
X56732352Y-55011914D01*
X56708818Y-55007632D01*
X56685817Y-55001063D01*
X56663571Y-54992272D01*
X56642293Y-54981343D01*
X56220105Y-54737593D01*
X56200001Y-54724630D01*
X56181265Y-54709760D01*
X56164076Y-54693125D01*
X56148600Y-54674885D01*
X56134987Y-54655216D01*
X56123367Y-54634307D01*
X56113853Y-54612360D01*
X56106536Y-54589586D01*
X56101486Y-54566205D01*
X56098752Y-54542441D01*
X56098361Y-54518524D01*
X56100315Y-54494683D01*
X56104597Y-54471149D01*
X56111166Y-54448148D01*
X56119957Y-54425902D01*
X56130886Y-54404624D01*
X56587136Y-53614376D01*
X56600099Y-53594272D01*
X56614969Y-53575535D01*
X56631604Y-53558347D01*
X56649844Y-53542871D01*
X56669513Y-53529258D01*
X56690422Y-53517638D01*
X56712369Y-53508124D01*
X56735143Y-53500807D01*
X56758524Y-53495757D01*
X56782288Y-53493023D01*
X56806205Y-53492632D01*
X56830046Y-53494586D01*
X56830046Y-53494586D01*
G37*
D14*
G04 #@! TD*
G04 #@! TO.P,D12,2*
G04 #@! TO.N,Net-(D11-Pad1)*
X56781199Y-54253250D03*
D13*
G04 #@! TO.N,Net-(D12-Pad1)*
G04 #@! TO.C,D12*
G36*
X55206248Y-52557086D02*
X55229782Y-52561368D01*
X55252783Y-52567937D01*
X55275029Y-52576728D01*
X55296307Y-52587657D01*
X55718495Y-52831407D01*
X55738599Y-52844370D01*
X55757335Y-52859240D01*
X55774524Y-52875875D01*
X55790000Y-52894115D01*
X55803613Y-52913784D01*
X55815233Y-52934693D01*
X55824747Y-52956640D01*
X55832064Y-52979414D01*
X55837114Y-53002795D01*
X55839848Y-53026559D01*
X55840239Y-53050476D01*
X55838285Y-53074317D01*
X55834003Y-53097851D01*
X55827434Y-53120852D01*
X55818643Y-53143098D01*
X55807714Y-53164376D01*
X55351464Y-53954624D01*
X55338501Y-53974728D01*
X55323631Y-53993465D01*
X55306996Y-54010653D01*
X55288756Y-54026129D01*
X55269087Y-54039742D01*
X55248178Y-54051362D01*
X55226231Y-54060876D01*
X55203457Y-54068193D01*
X55180076Y-54073243D01*
X55156312Y-54075977D01*
X55132395Y-54076368D01*
X55108554Y-54074414D01*
X55085020Y-54070132D01*
X55062019Y-54063563D01*
X55039773Y-54054772D01*
X55018495Y-54043843D01*
X54596307Y-53800093D01*
X54576203Y-53787130D01*
X54557467Y-53772260D01*
X54540278Y-53755625D01*
X54524802Y-53737385D01*
X54511189Y-53717716D01*
X54499569Y-53696807D01*
X54490055Y-53674860D01*
X54482738Y-53652086D01*
X54477688Y-53628705D01*
X54474954Y-53604941D01*
X54474563Y-53581024D01*
X54476517Y-53557183D01*
X54480799Y-53533649D01*
X54487368Y-53510648D01*
X54496159Y-53488402D01*
X54507088Y-53467124D01*
X54963338Y-52676876D01*
X54976301Y-52656772D01*
X54991171Y-52638035D01*
X55007806Y-52620847D01*
X55026046Y-52605371D01*
X55045715Y-52591758D01*
X55066624Y-52580138D01*
X55088571Y-52570624D01*
X55111345Y-52563307D01*
X55134726Y-52558257D01*
X55158490Y-52555523D01*
X55182407Y-52555132D01*
X55206248Y-52557086D01*
X55206248Y-52557086D01*
G37*
D14*
G04 #@! TD*
G04 #@! TO.P,D12,1*
G04 #@! TO.N,Net-(D12-Pad1)*
X55157401Y-53315750D03*
D15*
G04 #@! TO.N,Net-(D1-Pad2)*
X43771200Y-52483800D03*
G04 #@! TD*
D16*
G04 #@! TO.N,Net-(D1-Pad1)*
X56781200Y-47346800D02*
X56781200Y-49329500D01*
X56781200Y-49329500D02*
X55831500Y-50279200D01*
X55831500Y-50279200D02*
X55831500Y-50800000D01*
G04 #@! TO.N,Net-(D1-Pad2)*
X43893500Y-50800000D02*
X43893500Y-52361500D01*
X43893500Y-52361500D02*
X43771200Y-52483800D01*
X64770000Y-49530000D02*
X63221200Y-49530000D01*
X57706500Y-50800000D02*
X61951200Y-50800000D01*
X61951200Y-50800000D02*
X63221200Y-49530000D01*
G04 #@! TO.N,Net-(D2-Pad1)*
X55157400Y-48284200D02*
X55157400Y-45722900D01*
X55157400Y-45722900D02*
X54253300Y-44818800D01*
G04 #@! TO.N,Net-(D3-Pad1)*
X50800000Y-43893500D02*
X50973700Y-43893500D01*
X50973700Y-43893500D02*
X53315700Y-46235500D01*
X53315700Y-46235500D02*
X53315700Y-46442600D01*
G04 #@! TO.N,Net-(D4-Pad1)*
X50800000Y-45768500D02*
X50109800Y-45768500D01*
X50109800Y-45768500D02*
X49160100Y-44818800D01*
X49160100Y-44818800D02*
X47346800Y-44818800D01*
G04 #@! TO.N,Net-(D5-Pad1)*
X44818800Y-47346800D02*
X45723000Y-46442600D01*
X45723000Y-46442600D02*
X48284200Y-46442600D01*
G04 #@! TO.N,Net-(D6-Pad1)*
X46442600Y-48284200D02*
X45891700Y-48835100D01*
X45891700Y-48835100D02*
X44254800Y-48835100D01*
X44254800Y-48835100D02*
X43432600Y-48012900D01*
X43432600Y-48012900D02*
X43432600Y-46849300D01*
X43432600Y-46849300D02*
X47589800Y-42692100D01*
X47589800Y-42692100D02*
X53972200Y-42692100D01*
X53972200Y-42692100D02*
X59768500Y-48488400D01*
X59768500Y-48488400D02*
X59768500Y-48768000D01*
G04 #@! TO.N,Net-(D7-Pad1)*
X44818800Y-54253300D02*
X44818800Y-52270500D01*
X44818800Y-52270500D02*
X45768500Y-51320800D01*
X45768500Y-51320800D02*
X45768500Y-50800000D01*
G04 #@! TO.N,Net-(D8-Pad1)*
X46442600Y-53315700D02*
X46442600Y-55877100D01*
X46442600Y-55877100D02*
X47346700Y-56781200D01*
G04 #@! TO.N,Net-(D10-Pad2)*
X50800000Y-57706500D02*
X50626300Y-57706500D01*
X50626300Y-57706500D02*
X48284300Y-55364500D01*
X48284300Y-55364500D02*
X48284300Y-55157400D01*
G04 #@! TO.N,Net-(D10-Pad1)*
X50800000Y-55831500D02*
X51490200Y-55831500D01*
X51490200Y-55831500D02*
X52439900Y-56781200D01*
X52439900Y-56781200D02*
X54253300Y-56781200D01*
G04 #@! TO.N,Net-(D11-Pad1)*
X56781200Y-54253300D02*
X55877100Y-55157400D01*
X55877100Y-55157400D02*
X53315700Y-55157400D01*
G04 #@! TO.N,GND*
X61643500Y-48768000D02*
X62442500Y-47969000D01*
X62442500Y-47969000D02*
X65451000Y-47969000D01*
X65451000Y-47969000D02*
X66326100Y-48844100D01*
X66326100Y-48844100D02*
X66326100Y-50513900D01*
X66326100Y-50513900D02*
X64770000Y-52070000D01*
X64770000Y-52070000D02*
X63221200Y-52070000D01*
X61643500Y-52959000D02*
X62332200Y-52959000D01*
X62332200Y-52959000D02*
X63221200Y-52070000D01*
G04 #@! TO.N,Net-(D12-Pad1)*
X55157400Y-53315700D02*
X55708300Y-52764800D01*
X55708300Y-52764800D02*
X59574300Y-52764800D01*
X59574300Y-52764800D02*
X59768500Y-52959000D01*
G04 #@! TD*
M02*
