G04 #@! TF.GenerationSoftware,KiCad,Pcbnew,5.0.2-bee76a0~70~ubuntu18.04.1*
G04 #@! TF.CreationDate,2020-10-21T16:40:24-07:00*
G04 #@! TF.ProjectId,led_ring,6c65645f-7269-46e6-972e-6b696361645f,rev?*
G04 #@! TF.SameCoordinates,Original*
G04 #@! TF.FileFunction,Profile,NP*
%FSLAX46Y46*%
G04 Gerber Fmt 4.6, Leading zero omitted, Abs format (unit mm)*
G04 Created by KiCad (PCBNEW 5.0.2-bee76a0~70~ubuntu18.04.1) date Wed 21 Oct 2020 04:40:24 PM PDT*
%MOMM*%
%LPD*%
G01*
G04 APERTURE LIST*
%ADD10C,0.150000*%
G04 APERTURE END LIST*
D10*
X60452000Y-54610000D02*
X61722000Y-54610000D01*
X60452000Y-46990000D02*
X61722000Y-46990000D01*
X55880000Y-59690000D02*
G75*
G03X59690000Y-55880000I0J3810000D01*
G01*
X59690000Y-45720000D02*
G75*
G03X55880000Y-41910000I-3810000J0D01*
G01*
X48260000Y-66675000D02*
X53340000Y-66675000D01*
X46990000Y-60452000D02*
X46990000Y-65405000D01*
X54610000Y-60452000D02*
X54610000Y-65405000D01*
X46990000Y-36195000D02*
X46990000Y-41148000D01*
X54610000Y-36195000D02*
X54610000Y-41148000D01*
X48260000Y-34925000D02*
X53340000Y-34925000D01*
X53340000Y-66675000D02*
G75*
G03X54610000Y-65405000I0J1270000D01*
G01*
X46990000Y-65405000D02*
G75*
G03X48260000Y-66675000I1270000J0D01*
G01*
X54610000Y-36195000D02*
G75*
G03X53340000Y-34925000I-1270000J0D01*
G01*
X48260000Y-34925000D02*
G75*
G03X46990000Y-36195000I0J-1270000D01*
G01*
X59690000Y-45720000D02*
X59690000Y-46228000D01*
X55372000Y-59690000D02*
G75*
G03X54610000Y-60452000I0J-762000D01*
G01*
X46990000Y-60452000D02*
G75*
G03X46228000Y-59690000I-762000J0D01*
G01*
X55372000Y-59690000D02*
X55880000Y-59690000D01*
X45720000Y-59690000D02*
X46228000Y-59690000D01*
X46228000Y-41910000D02*
G75*
G03X46990000Y-41148000I0J762000D01*
G01*
X54610000Y-41148000D02*
G75*
G03X55372000Y-41910000I762000J0D01*
G01*
X55880000Y-41910000D02*
X55372000Y-41910000D01*
X45720000Y-41910000D02*
X46228000Y-41910000D01*
X41910000Y-54610000D02*
X41910000Y-55880000D01*
X41910000Y-45720000D02*
X41910000Y-46990000D01*
X59690000Y-55372000D02*
X59690000Y-55880000D01*
X61722000Y-54610000D02*
X66548000Y-54610000D01*
X67310000Y-47752000D02*
X67310000Y-53848000D01*
X61722000Y-46990000D02*
X66548000Y-46990000D01*
X41910000Y-55880000D02*
G75*
G03X45720000Y-59690000I3810000J0D01*
G01*
X45720000Y-41910000D02*
G75*
G03X41910000Y-45720000I0J-3810000D01*
G01*
X66548000Y-54610000D02*
G75*
G03X67310000Y-53848000I0J762000D01*
G01*
X67310000Y-47752000D02*
G75*
G03X66548000Y-46990000I-762000J0D01*
G01*
X60452000Y-54610000D02*
G75*
G03X59690000Y-55372000I0J-762000D01*
G01*
X59690000Y-46228000D02*
G75*
G03X60452000Y-46990000I762000J0D01*
G01*
X41910000Y-46990000D02*
X41910000Y-54610000D01*
X54102000Y-50800000D02*
G75*
G03X54102000Y-50800000I-3302000J0D01*
G01*
M02*
